<?xml version="1.0" standalone="no"?>
<!DOCTYPE svg PUBLIC "-//W3C//DTD SVG 1.1//EN" "http://www.w3.org/Graphics/SVG/1.1/DTD/svg11.dtd" >
<svg xmlns="http://www.w3.org/2000/svg">
<metadata></metadata>
<defs>
<font id="moabhoers_bold_2.0bold" horiz-adv-x="1869" >
<font-face units-per-em="2048" ascent="1536" descent="-512" />
<missing-glyph horiz-adv-x="610" />
<glyph horiz-adv-x="0" />
<glyph horiz-adv-x="682" />
<glyph horiz-adv-x="0" />
<glyph horiz-adv-x="0" />
<glyph unicode="&#xd;" horiz-adv-x="1024" />
<glyph unicode=" "  horiz-adv-x="610" />
<glyph unicode="&#x09;" horiz-adv-x="610" />
<glyph unicode="&#xa0;" horiz-adv-x="610" />
<glyph unicode="!" horiz-adv-x="335" d="M268 735l-2 -121v-4q4 -28 0 -53v-29q0 -25 2 -39q0 -8 -1 -29t-1 -30v-115q4 -28 -18 -71q-12 -21 -25 -27l2 2q-27 -16 -49 -20q-32 -3 -59 10q-33 16 -54 43q-10 30 -10 51v94v142q0 5 -1 11t-1 7v217q0 18 2 23v184q0 45 39 76q35 22 58 24q28 3 49 -6h-4 q23 -7 41 -26l6 -9q24 -48 24 -65q2 -25 2 -82q0 -7 -1 -19t-1 -18v-61q2 -8 2 -25v-35zM281 6q0 -21 -7 -45v2q-6 -21 -26.5 -43t-42.5 -31h-2q-12 -6 -27 -6q-62 -7 -100 31q-9 7 -19 27l-10 18q-10 23 -10 39q-3 39 18 74q40 60 119 53l25 -6h2q9 -4 15.5 -7.5t12.5 -9 t7 -6.5l14 -14q12 -12 18 -29q0 -6 6 -12q7 -14 7 -35z" />
<glyph unicode="&#x22;" horiz-adv-x="706" d="M131 956q0 38 23 65.5t55 27.5q10 0 19 -1t12 -1h30q33 0 61.5 -26.5t28.5 -64.5q0 -13 -1 -26.5t-1 -16.5v-39q0 -26 -12.5 -59.5t-30.5 -50.5l-12 -16q-2 -2 -12 -13t-17 -18q-17 -19 -28 -23l-10 -8q-20 -18 -46.5 -19t-45.5 17.5t-19 50.5q0 27 4 47q2 10 2 29 q0 11 1 27.5t1 21.5q2 12 2 41q0 9 -1 18l-1 9q0 1 -1 8.5t-1 19.5zM418 967q0 37 27.5 61.5t58.5 24.5h24l8 1q8 1 17 1q31 0 61.5 -34t30.5 -69q0 -31 -4 -51q-2 -10 -2 -35q0 -67 -35 -102q-6 -6 -9 -12t-3 -7q-3 -4 -12 -13.5t-15 -16.5q-22 -22 -44 -36.5t-45 -20 t-37.5 15t-14.5 67.5q0 29 -2 35q0 3 -1 14t-1 21q0 11 -1 20t-1 11q-2 8 -2 43v47q0 3 1 14.5t1 20.5z" />
<glyph unicode="#" horiz-adv-x="1105" d="M428 195q-2 -6 -2 -11q0 -28 -8 -78q-1 -4 -2 -9l-1.5 -7.5t-0.5 -3.5q0 -9 -6 -39q-12 -44 -56 -65l6 2q-2 -1 -15.5 -7t-20.5 -8q-21 -4 -43 6h2q-18 6 -31 19l-6 6q-21 21 -23 41v-2q-9 36 -4 53v14q0 2 1 6.5t1 6.5t4 26v13q14 53 -11.5 98t-66.5 53q-33 6 -47 35 q-13 39 -4 66q16 48 72 69h20q46 1 64.5 16.5t23.5 53.5v4q1 17 -15 27t-42 17t-35 13q-43 24 -53 74q0 19 2 23q0 12 8 24q11 24 36 41.5t54 20.5q25 -2 42.5 8t26.5 31t11.5 33t5.5 30l9 43q6 21 6 33v20q0 27 18 51q8 21 45 39q46 20 88 -10q28 -17 39 -59q5 -31 0 -54 q0 -35 -2 -47q-4 -34 -1 -62t23 -44.5t56 -11.5q22 3 37 35.5t18 54.5v4q0 4 1 13t1 13l11 70q2 4 2 14q5 35 30 60q10 10 34.5 20t37.5 10q19 0 33 -8q24 -15 35 -28q13 -17 18 -35q1 -6 3.5 -20.5t2.5 -20.5q0 -3 -3 -28t-3 -38q-1 -69 4 -80q5 -10 35 -28q18 -11 31 -19 q27 -14 41 -30q6 -8 7.5 -11.5t2.5 -5.5q14 -43 0 -82l-2 -6q-32 -35 -55 -41q-12 -6 -13 -6q-8 -2 -26.5 -6t-26.5 -6.5t-19 -7.5t-16 -12t-6 -17q-3 -24 3.5 -37.5t16.5 -19t43 -17.5l15 -6q4 -2 8 -5.5t10.5 -10t12.5 -11.5q12 -12 20 -32q7 -25 -2 -64q-12 -36 -49 -51 h2q-81 -28 -102 -56.5t-29 -103.5q-3 -10 -3.5 -27.5t-2.5 -25.5l-2 -6q0 -10 -7 -31l3 4q-7 -35 -43 -67q-37 -20 -78 -11q-35 12 -49 33q-12 12 -15 23q-13 26 -10 57q0 4 4 20q6 20 6 41q0 44 -39 78q-40 35 -71 11q-16 -12 -25 -41zM561 481q12 -1 22 5.5t13.5 12 t11.5 17.5q0 2 1 6t1 6q0 68 -37 68h-16.5t-13 -0.5l-11 -1t-8.5 -0.5t-8 -1.5t-6.5 -1.5t-6.5 -2t-6 -2.5t-7 -3t-7 -3.5q-7 -7 -10 -21q-5 -43 8 -55.5t80 -22.5z" />
<glyph unicode="$" horiz-adv-x="888" d="M559 360q0 -2 2 -2q-2 0 -2 2zM465 1227h4q37 -5 55 -25t29 -53q4 -10 4 -31v-8q0 -11 11 -27.5t22 -17.5q11 -3 23 -8.5t18.5 -9.5t21 -13.5t17.5 -11.5q38 -27 65 -68q5 -5 8 -16q31 -63 -10 -107q-33 -36 -80 -36q-62 0 -88 41l-24 22q-3 0 -9 6q-17 13 -38 17 q-68 12 -72 10q-2 -1 -11.5 -6t-15.5 -6q-7 -4 -16.5 -7t-15.5 -6t-11 -8q-29 -48 -26 -65v-2l10 -21q0 -9 16 -27t25 -24l29 -21l18 -16q39 -26 43 -29q11 -11 29 -18q33 -12 55 -25q7 -4 11 -7t7 -6t6 -5h-2q5 -2 17 -10t16 -9l27 -14l14 -10v2q12 -12 19.5 -18.5t10.5 -8 t7.5 -3.5t7.5 -3h-2q37 -22 58 -53q16 -26 16 -27v2l12 -28l-2 2l10 -27q9 -23 9 -39q0 -8 2 -12q0 -2 1 -6t1 -6q10 -46 6 -70q-4 -12 -4 -14q-2 -6 -2 -11q-3 -51 -31 -100l-16 -25l2 2l-11 -16q-21 -30 -49 -55q-22 -19 -51 -37q-55 -38 -69 -57q-12 -16 -15 -35 q-4 -40 -20 -64q-16 -30 -58 -45q-34 -8 -73 9t-48 47q-8 19 -8 47q-13 46 -80 75q-4 0 -7.5 1t-7 3t-5.5 3q-27 15 -70 45q-35 35 -43 53q-2 2 -8 14q-8 8 -8 17l-8 16q-14 19 -17 39q-1 1 -3 5l-3.5 7t-1.5 4q-12 18 -12 45q0 37 18 64q18 34 78 47l6 -4q1 0 8.5 -1.5 t11.5 -2.5t11.5 -3.5t13.5 -6.5t13.5 -9.5t14.5 -13.5t13 -18l-6 6q15 -19 17 -19l-1 2q18 -26 33 -61l12 -27q13 -13 31 -22q37 -21 80 -25h8q35 13 70 17l-6 -3q22 6 47 21q12 7 37 41q2 3 14 59q2 6 2 19q0 12 -41 71q-84 73 -137 95v-2q-20 10 -35 22l-2 2q-2 0 -6 4 q-2 0 -4 2q-2 0 -2 2l-27 11h2q-25 14 -33 18l-2 4q-12 6 -14 8q-14 7 -55 41l-10 13q-22 22 -25 28l-8 8l-10 13q-14 14 -23 35l-2 2q-22 28 -25 53q-6 29 -8 70t2 61q15 58 35 88q4 14 16 25q10 8 37 40q1 1 8 10.5t9 11.5t9 9.5t11.5 10.5t13 8.5t17.5 9.5q17 9 33 26.5 t16 26.5q3 41 25 72.5t55 38.5h24q5 0 12 1z" />
<glyph unicode="%" horiz-adv-x="1384" d="M160 727l-2 2q-17 53 -17 88v10q0 1 1 5t1 8q0 47 21 112l8 21q6 17 21 41v2q41 46 57 55q10 7 25.5 14t41 15t56 7.5t57.5 -11.5q34 -3 59 -25h-2q22 -12 50 -45l10 -16l12 -17q18 -24 23 -43v2q18 -56 18 -112q0 -4 -1 -8t-1 -5v-10q0 -47 -14 -88q-11 -29 -37 -59 l-6 -6h2q-28 -28 -60 -41h-2q-52 -27 -116 -27q-55 0 -111 29q-23 11 -53 45q-13 14 -13 16q-18 18 -28 41zM745 1030v-2q9 32 40 56t61 24q2 0 10.5 -1t11.5 -1q4 -2 9 -2q37 0 61 -34.5t14 -72.5l2 4l-10 -40l-8 -33l-12 -37q-9 -11 -11 -21v2q-5 -23 -14 -41l2 7l-14 -35 q-7 -27 -15 -39l-12 -31l-63 -141q-57 -127 -84 -217v2l-21 -70l-26 -69l-17 -52l-8 -22v2q-8 -23 -16 -39q-6 -10 -9 -25l-14 -36l-12 -29v4q-8 -31 -42 -60.5t-63 -29.5q-17 0 -32 6q-36 3 -53.5 49.5t-4.5 85.5q0 1 13 33v-2q15 35 24 67q7 35 9 35h3l29 70q5 24 12 35 v-2l21 67q9 40 61 164q45 111 51 131q8 35 21 45l-2 -2q2 2 12 29q5 19 15 39l14 26l14 41l10 23q4 20 17 41l-2 -6l12 35v-3q2 9 3.5 19.5t2.5 13.5l-2 -2zM401 782l5 13q12 18 12 39q0 52 -15 79v5q-6 12 -22 20q-13 0 -24 -6t-13 -10q-16 -36 -16 -88q0 -22 10 -52 q14 -14 31 -14q7 0 19 5t13 9zM762 90v2q-21 58 -21 92q0 4 1 8t1 5v8q0 49 21 114l8 19q4 15 27 49l-2 -4q14 28 53 55l11 6q11 7 17.5 10.5t20.5 9.5t26 9t28 5.5t32 2.5q67 -2 131 -45h-2q25 -15 45 -47l-2 4l10 -14l15 -17l-2 3q9 -10 22 -46q21 -54 21 -114v-8 q0 -1 -1 -5t-1 -8q0 -52 -17 -94q-9 -21 -13 -27t-15 -12l4 2q-8 -4 -13 -10q-32 -40 -57 -55l10 8l-14 -10q-50 -25 -72 -25q-8 0 -12 -2h2q-92 -10 -168 33q-37 24 -53 45q-6 10 -12 14q-1 1 -4.5 3.5t-5 3.5t-4.5 4.5t-4.5 6.5t-4.5 8.5t-6 12.5zM928 201q0 -19 14 -51 q3 -9 17 -19t26 -10q32 0 39 14q18 41 18 66q0 39 -22 88q0 1 -4.5 3t-11 3.5t-11.5 1.5q-13 1 -25 -1t-18.5 -4.5t-7.5 -4.5q-14 -35 -14 -86z" />
<glyph unicode="&#x26;" horiz-adv-x="1067" d="M1020 88q24 -51 -16 -86q-39 -39 -66 -39q-19 0 -35.5 4t-27 7.5t-24 13.5t-18.5 14.5t-18 18t-16 16.5q-15 15 -32.5 22.5t-30 9.5t-34.5 -4.5t-32.5 -10.5t-39 -17.5t-38.5 -18.5q-20 -20 -74 -36q-4 0 -37 -11q-47 -13 -75 -10l-74 8l-19 8l-55 21q-13 5 -53 25 q-47 37 -68 67v-2q-46 46 -71 129q0 1 -1.5 7t-1.5 9t-4 23q0 1 -1 6t-1 6q-2 20 -2 66q0 16 6 31q16 51 31 73q31 58 43 70q43 61 47 108t-22 89l-8 18q-23 60 -21 117q3 39 16 73l7 25q14 28 18 33l10 14l11 12q21 37 100 97l20 8q10 2 43 2q5 0 6.5 -1.5t4.5 1.5 q28 12 53 6h-2q32 -4 43 -4q27 0 45 -6q37 -14 59 -27l-2 2l29 -16q23 -13 49 -45l21 -25q26 -30 38 -94l5 -23v-14q0 -5 -5 -35l-4 -22q0 -2 -1 -9t-1 -8q-7 -19 -28.5 -58t-32.5 -63.5t-9 -61.5t27 -71q12 -15 23 -24l16 -19l-4 5q15 -17 31.5 -27.5t37.5 -12.5t40 13 q48 33 96 22q17 -3 43 -29t31 -42q12 -45 -19 -76q-24 -26 -31 -57t-0.5 -55.5t21.5 -41.5l27 -28q3 -4 5.5 -8t5 -7.5t3.5 -5.5l12 -12q19 -13 31 -37zM326 858l-2 -31q0 -15 8.5 -38.5t23.5 -32.5q27 -21 66 -21q28 0 53 25q25 32 31 43q0 4 1 19t1 18v8q0 6 1 10t1 6 l-8 15q-8 16 -35 34q-70 12 -80 9q-16 -4 -34.5 -24.5t-26.5 -39.5zM535 211q1 1 7.5 9t8.5 11l7 10.5t7 13t4 13.5t2 15q0 28 -20 57l-14 20q-25 33 -48 60q-30 36 -63.5 40.5t-62 -15t-52.5 -58.5q-5 -7 -13 -21.5t-11 -17.5q-35 -42 -15 -98q9 -18 11 -19l10 -14l8 -10 q5 -3 22 -13t25 -16l-2 2l23 -14l8 -2h35q39 -3 51 4q23 15 31 18q9 2 16 9z" />
<glyph unicode="'" horiz-adv-x="507" d="M139 956q0 38 23 65.5t55 27.5q9 0 18.5 -1t12.5 -1h31q33 0 60.5 -26.5t27.5 -64.5q0 -13 -1 -26.5t-1 -16.5v-39q0 -26 -12 -59.5t-29 -50.5l-15 -16q-1 -1 -26 -31q-17 -17 -29 -23l-10 -8q-21 -18 -47 -19t-45 17.5t-19 50.5q0 27 4 47q2 10 2 29q0 11 1 27.5t1 21.5 q2 12 2 41q0 9 -1 18l-1 9q0 1 -1 8.5t-1 19.5z" />
<glyph unicode="(" horiz-adv-x="518" d="M346 -55h-4h4zM113 479l-2 86q0 2 1 7.5t1 7.5q0 12 2 20q0 29 2 41q0 42 12 90q0 1 1 3.5t1 4.5q0 25 6 39v-4q13 39 13 62q2 24 14 63l31 121l4 14l12 21h-4l6 14q9 31 35 47q10 10 37 14h12q29 4 61 -16q29 -22 43 -61q2 -17 -2 -41v-2l-14 -39l-18 -47l-9 -33v6 q0 -2 -1 -6.5t-1 -5.5q-5 -13 -12 -47q0 2 -2 6q0 -19 -6 -37l2 2l-10 -64l-6 -49q-7 -54 -7 -59q0 -2 -1 -5.5t-1 -4.5v-15q0 -39 -2 -53q0 -33 -2 -47v-29q0 -10 2 -20q0 -15 2 -19q0 -27 2 -41q4 -36 4 -41q0 -9 5 -24q0 -2 2 -6q0 -7 4 -15v-20q0 -3 2 -21t2 -40 q-1 -1 20 -58.5t27 -71.5q0 2 2 0q0 -6 4 -14l10 -37q8 -38 -8 -71q-24 -30 -33 -39q-10 0 -16 -2l-14 -6q-27 -8 -43 -3l2 -2q-55 9 -70 58q-3 14 -22 51l-7 31q-6 34 -14 59q-8 24 -8 31l-8 37l-4 16l-11 49l-6 23q-6 14 -6 43q-1 4 -8 53q-6 35 -6 68q0 2 -1 7t-1 7v14z " />
<glyph unicode=")" horiz-adv-x="507" d="M403 584l3 -88q0 -2 -1.5 -7t-1.5 -6q0 -14 -2 -22q0 -29 -2 -41q0 -42 -12 -90q-2 -4 -2 -8q-18 -85 -18 -95q-2 -21 -15 -65l-30 -119l-5 -16q-9 -32 -14 -37q-13 -36 -35 -43q-9 -9 -37 -17h-12q-31 -4 -61 17q-30 26 -43 61v2q-4 13 2 41v2l14 37l19 47l8 33l-2 -8 q4 8 4 14q3 4 10.5 36t7.5 40l10 63l7 50q6 43 6 59q0 2 1 6t1 6v13q0 39 2 53v41v32v37l-2 13l-4 32q-2 12 -2 41q0 7 -4.5 18t-4.5 17q-2 4 -2 21v12q-4 41 -19 96.5t-28 81.5q-7 13 -8 19q-2 4 -2 14l-10 29q-8 41 6 69q12 18 35 43q10 0 16 2l14 6q22 5 43 2h-2 q25 -3 43.5 -19.5t26.5 -39.5q8 -25 21 -47q0 -2 1.5 -7t4 -13t4.5 -13q3 -22 12 -59q8 -28 8 -31q5 -32 8 -39l15 -63l4 -23q8 -16 8 -41q0 -2 8 -55q6 -30 6 -68v-14q0 -2 1 -6t1 -6z" />
<glyph unicode="*" horiz-adv-x="722" d="M213 899q-1 8 2.5 24.5t-1 29.5t-24.5 28q-22 16 -22 53q8 30 18 45q2 2 6.5 7.5t7.5 7.5t7 2q20 10 41 10h12t9 1.5t6 2t4 3.5t2.5 4t2.5 6t3 7q16 56 65 62q24 3 47 -8q2 -1 7.5 -5t6.5 -5.5t5 -5t5.5 -6t4 -7t4.5 -10.5q9 -26 19 -32.5t26.5 -5.5t28.5 -5 q22 -7 35.5 -27t13.5 -43q0 -29 -11.5 -45t-23.5 -36.5t-12 -61.5v-4q0 -23 -16 -39q-23 -26 -54 -29.5t-51 17.5q-15 12 -30 10t-23 -10q-28 -28 -70 -11q-19 7 -35 27q-11 14 -14 31q-1 4 -1 9t-1 9z" />
<glyph unicode="+" horiz-adv-x="1050" d="M723 428q-19 1 -45 -7.5t-50 -36t-24 -67.5v-26v-23q0 -31 -16 -47q-5 -10 -15 -20q-17 -20 -38 -27q-28 -8 -50 0q-19 3 -34 21l-7 6q-37 40 -28 88v35q2 38 -30.5 74t-80.5 36q-29 -3 -59 0q-49 4 -80 31q-21 24 -21 76q10 63 64 82q16 4 33 4q31 1 56.5 4.5t43 10.5 t31 12.5t21.5 16.5t13 17t7 18.5t2.5 17t0 18t-0.5 14.5v8q-4 25 8 70q6 16 22 30.5t35 18.5q52 23 92 -17l15 -12q14 -27 16 -47q1 -15 0 -44.5t0 -43.5q3 -42 37 -62.5t92 -29.5q13 0 17 2q49 10 92 -17q25 -25 32 -53v2q3 -6 3 -28t-3 -29q-14 -43 -47 -60 q-28 -14 -57 -14q-31 0 -47 -2z" />
<glyph unicode="," horiz-adv-x="473" d="M119 143q0 38 23 64t55 26h30h31q33 0 61.5 -26t28.5 -64q0 -13 -1 -17t-1 -17q0 -25 -13 -59.5t-30 -51.5q-24 -21 -29 -23l-16 -14q-13 -13 -22 -16l-11 -8q-8 -5 -39 -13.5t-63.5 -7.5t-32.5 21l-8 36q25 41 31 66.5t6 103.5z" />
<glyph unicode="-" horiz-adv-x="952" d="M655 432h-53q-28 0 -62 1t-44 1q-45 3 -109 0h-141q-51 4 -82 31q-19 24 -19 76q10 64 64 82l27 4q35 -2 62 -1t124.5 4t191.5 3q40 0 50 -2q12 0 18 2q47 10 90 -17q28 -25 33 -53v2q3 -7 3 -28t-3 -29q-9 -39 -45 -59q-34 -15 -60 -15q-31 0 -45 -2z" />
<glyph unicode="." horiz-adv-x="487" d="M119 143q0 38 23 64t55 26h30h31q33 0 61.5 -26t28.5 -64q0 -15 -1 -26.5t-1 -12.5v-36q0 -20 -10 -41q-21 -47 -105 -47q-38 0 -69.5 14.5t-38.5 38.5q-9 30 -2 55q0 3 -2 21v34z" />
<glyph unicode="/" horiz-adv-x="997" d="M225 -135q-35 3 -61.5 23.5t-38.5 54.5q-7 48 16 88q5 5 9 18v-4q9 27 10 31l-2 -6l24 55q17 35 26.5 60t12.5 34.5t6 13.5l52 123l30 78l17 23q5 24 14 35q0 2 2 4l2 6q6 19 12 28q0 8 11 25l8 18v-2q6 19 18 35l4 15q7 34 43 108q4 11 11.5 28.5t11.5 27.5t4 14l16 35 l15 24q5 3 16.5 29.5t22.5 55.5t21.5 57.5t10.5 29.5q10 15 37 86v-2l21 51l18 35q16 27 39 39q11 11 25 14q42 14 82 -10q2 -2 9.5 -7.5t10 -8.5t8 -10t10.5 -17q2 -11 13 -29q0 -27 -2 -43l-9 -18q-13 -34 -20 -47l-10 -29q-8 -11 -8 -14l-13 -23v-2q-10 -33 -22 -55l2 6 l-8 -22l-39 -93q-2 -7 -15 -24l-14 -37l-39 -90l-51 -119l-21 -43q0 -6 -2 -10q0 -12 -6 -19q0 -1 -1 -4.5t-1 -5.5l-14 -30q-1 -5 -10 -16.5t-11 -14.5l-18 -51l-6 -19q-1 -8 -21 -43l2 2q-6 -9 -8 -26l-18 -35q-18 -52 -31 -74t-18 -45q-2 -14 -13 -21q-8 -14 -16 -34 l-8 -21v-12q-7 -10 -11 -21l-10 -22v-6q-12 -16 -12 -17q-3 -14 -12 -28q-1 -1 -4.5 -7.5t-6 -11.5t-2.5 -6q-19 -28 -32 -39q-28 -14 -47 -14q-1 0 -3.5 -1t-3.5 -1h-4z" />
<glyph unicode="0" horiz-adv-x="911" d="M715 121l-19 -21q-64 -56 -73 -63q-22 -18 -29 -19l-31 -16h-2l-16 -6q-7 -3 -44 -7.5t-50 -4.5h-2q-8 -2 -23 -2q-12 0 -20.5 1.5t-19 4.5t-19.5 4q-16 3 -23 8l-12 6l-13 6l-12 6q-6 1 -36.5 24t-41.5 34l-2 2q-15 12 -24 24q-56 71 -66 95l-10 20l-2 6q-18 44 -27 78 q-7 8 -10.5 18t-5.5 30.5t-2 23.5v8q-6 12 -6 31v14q0 1 -0.5 5t-1 15t-0.5 27q-2 10 -2 35v37q0 3 -1 20.5t-0.5 32.5t3.5 29q0 22 2 32q0 3 1 9t4 19.5t5 27.5q3 12 18 55q4 21 11 37l24 51q17 34 49 82l23 23l18 22q93 62 115 72l25 8q4 0 8 2q4 0 12 4q30 6 64 6h26 q2 0 6 -1t6 -1h19q12 -2 67 -30t72 -44l21 -16q20 -15 49 -53l14 -17q8 -8 19 -30l34 -76v2l11 -23l4 -18q0 4 1 -1q1 -4 4 -18l3 -12l14 -69q0 -6 2 -8v-7q4 -12 4 -30q0 -2 1 -7.5t1 -7.5v-12q0 -2 -1 -5.5t-1 -6.5q4 -20 4 -37v-25q0 -3 1.5 -10.5t1.5 -11.5 q0 -1 -1.5 -9t-1.5 -10q-9 -39 -2 -69q-6 -9 -6 -17v-4q0 -29 -22 -88q-2 -4 -2 -12q-2 -4 -2 -14l-11 -21q0 -9 -43 -92q-6 -6 -10 -14l-6 -13q-1 -2 -3 -5.5t-4 -6.5t-5 -6zM416 184l80 2l24 13l17 12l4 2q28 28 37 51l24 53v-2l10 52l9 26q19 76 16 107v16q0 2 -1 6.5 t-1 7.5v60q0 17 -8 49q0 13 -4 29l-15 53v-2l-16 51l-8 12l-6 13q-4 11 -13 20q-18 18 -22 25q-6 0 -6 4l-15 10l-71 20q-13 0 -23 -2q-4 -1 -8 -1.5t-5.5 -1t-3.5 -1t-2.5 -0.5t-1.5 -0.5l-2 -1t-2 -1.5t-3 -2t-5 -3l-10 -6q-40 -27 -47 -39l-16 -27l-11 -18l-12 -27 l-16 -47v-4v-14l-4 -23l-5 -10q-2 -6 -2 -10q0 -3 -1 -10t-1 -9q-2 -6 -2 -10q0 -3 -1 -7.5t-1 -6.5v-111l2 -4q0 -2 1 -11t1 -11q0 -5 4 -19q0 -1 5.5 -33.5t9.5 -44.5l6 -20q4 -18 8 -29l8 -16l15 -33l8 -16q15 -20 20 -25l11 -6q8 -8 12 -10l10 -4l12 -6z" />
<glyph unicode="1" horiz-adv-x="428" d="M281 1073q36 0 67 -35q25 -22 25 -65v-43q0 -18 1 -53.5t1 -42.5v-138q0 -7 -1 -14.5t-1 -9.5v-45q0 -2 1 -10t1 -15v-45q0 -5 -1 -12t-1 -10v-48q0 -1 1 -8t1 -14q0 -11 -1 -34.5t-1 -35.5v-90q0 -2 1 -9.5t1 -14.5t-1 -14t-1 -9v-139q0 -2 1 -10t1 -15q0 -38 -27 -65 t-65 -27h-17q-30 0 -63 29q-29 33 -29 63q0 8 1 16.5t1 10.5v22q0 7 -1 14.5t-1 8.5v24q0 11 1 34.5t1 37.5v70q0 12 -2 18q0 2 -1 13t-1 16q0 27 4 35v35q0 2 -1 10t-1 16v70q0 2 1 8.5t1 13.5v13q-4 10 -4 36v23q0 2 1 10t1 15v96q0 33 -26 62.5t-52 29.5 q-42 3 -58.5 41.5t5.5 75.5l-2 -2l6 14l6 14q12 23 49 52q33 20 68 20q33 0 51 2q32 4 60 4z" />
<glyph unicode="2" horiz-adv-x="837" d="M680 209q34 0 61 -27q14 -14 23.5 -39t9.5 -47q0 -36 -29 -65q-25 -25 -65 -25h-31q-5 0 -16 -1t-19 -1h-49q-7 0 -23.5 -1t-23.5 -1h-192q-8 0 -25 1t-25 1q-14 0 -34.5 3.5t-48.5 13t-47 32t-19 53.5q0 47 41 99q28 30 37 45l24 31l31 36l31 35q17 28 43 54 q42 53 49 65l33 35q1 1 11.5 12.5t21.5 26.5q39 51 49 69q17 20 24 37l6 17l17 22q14 35 14 64q0 56 -41 100q-36 29 -72 35q-39 9 -79 -2q-52 -21 -86 -107q-19 -40 -40 -56.5t-61 -16.5q-44 0 -73 28t-15 76q4 22 14 51v-2q14 47 46 94.5t71 75.5q29 22 49 27h-2 q36 16 101 26q37 6 78 0q111 -27 159 -61q51 -35 82 -74q3 -4 14.5 -21t15.5 -24t10 -22t9 -29q15 -41 15 -100q0 -38 -23 -117q-14 -37 -26 -57q-31 -57 -66 -101l-35 -47q-33 -41 -47 -55q-39 -41 -52.5 -73.5t-3.5 -51.5t28 -29t42 -12h109z" />
<glyph unicode="3" horiz-adv-x="815" d="M725 369q6 -51 0 -103q-3 -22 -10 -53q-14 -47 -49 -94q-27 -45 -80 -76q-20 -15 -54 -29l3 2q-40 -23 -105 -30q-3 0 -10 -1t-10 -1q-10 -2 -35 -2q-70 0 -115 16h2q-65 17 -102 51q-22 13 -43 37q-40 46 -56 90l-16 51q-7 38 16 64q13 14 35 25.5t41 11.5q33 0 66 -23 q14 -9 22.5 -22t16.5 -31t14 -27l8 -8q3 -3 10 -10.5t11 -11t9.5 -8t10.5 -5.5q9 -4 27 -8q1 0 4 -1t4 -1q50 -7 82 2q20 4 39 16q5 0 15 7.5t11 11.5q6 6 14 19t11 16l-2 -2q20 42 20 82q0 80 -61 122q-34 15 -57 19q-39 8 -62 31q-26 23 -26 63q0 35 26 64q26 26 68 32 q15 -2 33 4q10 5 16 9q22 15 29 24v-2q18 29 18 80q0 27 -2 33q-12 44 -57 74q-53 16 -70 16q-69 0 -102 -59l-9 -17q-11 -25 -41 -45q-35 -18 -79 -18q-41 0 -64 30q-24 27 -14 66q3 12 22 50.5t29 53.5q26 39 39 52q41 35 86 51q50 14 86 20q49 7 98 0l29 -8q4 -4 10 -4 l25 -4q20 -4 32 -8q54 -24 89 -62q26 -23 57 -78q31 -74 33 -90q6 -38 -2 -94q-3 -21 -22 -78t-19 -94t22 -82q3 -6 8.5 -16.5t9.5 -20t7 -20.5q5 -22 10 -49z" />
<glyph unicode="4" horiz-adv-x="915" d="M874 311q35 -18 35 -80q0 -38 -18 -59q-17 -19 -45 -27q-32 -4 -54 -32.5t-22 -63.5q0 -36 -27 -63q-29 -25 -61 -25h-18q-31 0 -60 25q-22 22 -22 63q0 53 -58.5 79.5t-115.5 16.5h-60q-8 2 -29 2q-20 0 -28 -2h-62q-6 2 -28 2q-104 0 -140 68q-36 70 21 156l14 22 l15 25l57 80l2 4l12 16l39 62q20 40 35 55l6 8q2 2 4 10l66 99l37 53q1 2 14 20v2l16 25l15 20q2 5 4 9l18 32q54 87 126.5 137.5t125.5 36.5q80 -26 80 -163q0 -17 2 -27v-94q0 -2 0.5 -14t0.5 -38.5t-1 -72.5v-248q6 -52 30 -77.5t74 -41.5zM580 459v96q0 35 -5 74 q-4 24 -13.5 41.5t-22.5 24.5t-30 -3.5t-34 -40.5l-12 -16l-6 -8l-4 -6l-21 -35l-55 -86q-9 -18 -12 -21l-19 -28q-28 -54 -0.5 -91.5t88.5 -37.5q71 0 108 32t38 105z" />
<glyph unicode="5" horiz-adv-x="827" d="M766 420v-94q-6 -47 -27 -101q-11 -28 -45 -75v-5l-39 -47l-24 -20q-31 -31 -64 -47q-22 -13 -37 -13q-2 -1 -5.5 -2t-4.5 -2q-36 -18 -102 -26q-46 -6 -103 2q-26 0 -49 10q-68 22 -90 35q-15 6 -41 26q1 0 -3 5t-9 11t-8 9l-13 10l-28 31q-23 29 -23 72q4 37 33 63 q11 9 32.5 18t35.5 9q22 0 40 -9.5t24.5 -17t23.5 -29.5l12 -16l16 -14q33 -23 72 -29q50 -7 98 2l21 10l20 13l-4 -2l12 10q49 34 70 90v-2q14 41 14 80q0 24 -6 47q-6 40 -26 70q-10 15 -21 26q-31 31 -63 39q-13 5 -24 8t-23 4t-19 1.5t-20 -1t-18 -2.5t-21 -4t-21 -4 q-57 -9 -93.5 14t-39.5 64q-2 23 10 80l7 37q2 9 4.5 29.5t6 35t9.5 29.5q2 7 4 21.5t4 21.5q1 6 10 47q20 70 61 97.5t116 27.5q6 0 21 -1t24 -1h79q5 0 16 1t17 1q9 0 25 -1t24 -1h45q40 0 66 -23q29 -26 29 -67t-29 -70t-66 -29h-22q-2 0 -10 1t-15 1h-24q-1 0 -9 -1 t-16 -1h-65q-25 0 -56 -10.5t-36 -34.5q-7 -30 7 -47.5t70 -31.5l21 -7h-2q38 -9 47 -14q64 -31 84 -47l10 -8q14 -9 27 -29q23 -23 57 -78q16 -40 33 -98q0 -4 4 -16z" />
<glyph unicode="6" horiz-adv-x="866" d="M784 414q6 -36 -2 -109q-4 -12 -4 -14q-4 -21 -8 -39q-2 -7 -18 -45q-27 -58 -72 -103q-16 -14 -43 -32q-23 -21 -59 -35q-14 -11 -43 -19h2l-13 -6q-18 -11 -47 -18q-32 -4 -51 -4q-50 0 -96 14l-23 6h2l-20 8q-23 11 -29 15q-3 3 -12 10l-7 5l1 -1q-4 4 -37 27l-35 30 q-16 16 -48.5 64t-43.5 76q-14 41 -15 57q0 2 -1 8.5t-1 9.5q-4 20 -4 35q0 32 6 52l29 73l19 56l14 26q19 29 25 37l18 27l8 10l17 29q11 22 38 53q7 10 19 25l20 25t9 13l14 23l12 18l31 35q5 9 49 70.5t64 85.5l14 18l10 12q32 40 84 48q10 0 17.5 -3t15.5 -10t14 -10 q31 -20 39 -61q7 -36 -14 -66q-2 -2 -6.5 -9t-6.5 -9q-28 -33 -44.5 -62.5t-23 -51.5t-3.5 -43.5t9.5 -35t21 -29.5t25 -24t29 -21.5t25.5 -19.5q47 -41 68 -70l27 -47q29 -65 34 -104zM588 313l2 4q2 4 2 25v10q0 55 -29 97q-5 7 -35.5 31.5t-48.5 31.5q-17 10 -57 10 q-30 0 -68 -14q-21 -8 -49 -31q-24 -26 -37 -76q-8 -36 -8 -47q0 -55 16 -82l13 -18l-2 2q3 -5 7 -11.5t6.5 -11t4.5 -6.5q6 -8 23 -20q10 -7 42.5 -20.5t47.5 -10.5q27 0 51 6q81 27 119 131z" />
<glyph unicode="7" horiz-adv-x="851" d="M631 1047q78 1 114.5 -32t36.5 -91q0 -48 -26 -99l-6 -12l2 2q-3 -5 -23 -37l-22 -39l-13 -20l-35 -57q-8 -13 -8 -15l-10 -20q-20 -32 -33 -58l-16 -28l-27 -45l-14 -19l-10 -16l-35 -60q-30 -57 -33 -61q-4 -6 -8 -13.5t-6 -9.5l-15 -20l-6 -12l-16 -27l-25 -39 q-9 -15 -26 -49q-5 -9 -19.5 -34.5t-21.5 -39.5l-27 -39l-1 -1l-5 -9t-12 -22q-21 -35 -62 -45q-16 -5 -44.5 -3.5t-41.5 9.5h2q-13 9 -27.5 28t-17.5 35q-9 27 10 70l-2 -2l15 22q10 20 12 23l29 45l43 67l22 41l70 117l22 37q13 14 21 26.5t15 26.5t11 21l25 43v2l8 12 q3 8 17 27q57 98 17.5 157.5t-159.5 59.5h-104q-40 0 -68 28q-26 26 -26 66q0 14 6.5 41t17.5 39q29 26 68 26h22q2 0 10 1.5t13 1.5h47q7 0 17 -1.5t12 -1.5q6 -2 18 -2q13 0 19 2q2 0 12 1.5t16 1.5q7 0 15 -1.5t10 -1.5h92q3 0 10 1.5t12 1.5q7 0 15 -1.5t10 -1.5h94 q2 0 10 1.5t13 1.5z" />
<glyph unicode="8" horiz-adv-x="819" d="M731 432q17 -32 22 -57t3 -70q0 -43 -13 -100l-24 -60l-6 -12l-17 -27q-5 -6 -13.5 -16t-15 -17.5t-10.5 -11.5q-67 -50 -86 -59l-18 -8l-31 -14q-20 -5 -43 -5q-22 0 -22 -4q-20 -4 -43 -4q-19 0 -39 4q-2 0 -7.5 1t-7.5 1q-151 19 -233 131q-51 76 -59 152q-5 30 -5 49 q0 30 3 51q3 30 12 56q19 44 24 51q28 53 33.5 93.5t-4.5 62t-24 50.5t-17 52q-2 14 -2 49q0 37 2 47q4 35 31 96q5 15 11.5 25.5t21.5 25.5t18 19l12 10q9 11 56 43t69 39q43 11 53 12h52q35 0 49 -2q70 -14 98 -28h-2q35 -13 88 -66l33 -35q44 -70 49 -139 q13 -93 -16 -158q-46 -107 18 -227zM281 772q0 -29 2 -37l8 -14l8 -14q5 -11 34 -36t48 -32q12 -4 31 -4q18 0 30 4q0 1 7 3.5t16.5 6t13.5 6.5q38 38 60 80q6 30 6 33q0 5 -2 14t-4 15.5t-2 7.5l-11 29q-6 11 -22 26.5t-29 22.5q-26 16 -63 16t-66 -18q-5 -2 -24 -21 q-29 -29 -37 -55v2q-4 -20 -4 -35zM498 168q7 5 21.5 19t19.5 18q12 19 24 63q4 16 4 37q0 43 -18 78q-10 21 -23 29q-14 16 -34 28q-13 10 -31 13q-15 3 -61.5 -4.5t-73.5 -20.5q-24 -15 -27 -20q-21 -21 -27 -31l2 2q-5 -8 -9.5 -22t-4.5 -15q-6 -15 -6 -39q0 -10 8 -43 q5 -18 24.5 -46.5t37.5 -43.5l-2 2q8 -5 28 -11.5t21 -6.5q20 -4 39 -4q56 0 88 18z" />
<glyph unicode="9" horiz-adv-x="851" d="M645 412l-29 -37l-55 -70l-12 -20l-14 -21l-84 -114l-15 -23q-10 -10 -10 -12l-31 -39h2l-24 -35q-32 -35 -68 -41q-35 -6 -72 20l5 -2q-32 19 -39 62q-4 36 18 67l23 31l12 19q56 69 41 137.5t-105 114.5l-34 30l-15 15l-22 28q-11 18 -32 69.5t-30 82.5q-2 16 -2 49 q0 17 4 37q0 2 1 7t1 7q4 16 4 27q1 2 2.5 10t3 15.5t3.5 11.5l20 49q13 25 33 49q27 42 78 80q8 6 20.5 11.5t14.5 6.5l18 15q8 0 12 2q73 27 94 30q22 2 91.5 -4.5t99.5 -17.5l39 -21h2q6 -4 17 -10t18.5 -10t9.5 -6l-4 2q46 -29 83.5 -78t49.5 -96v2q7 -20 10 -58 q0 -3 1 -7t1 -7q4 -16 4 -37q0 -13 -4 -49l-14 -47q-6 -19 -27.5 -65t-27.5 -54q-13 -20 -13 -26l-16 -29zM420 563q29 0 47 4q3 1 27 15q19 9 49 49t43 71v9l4 20q0 17 -8 41q-3 22 -34 58t-69 57h2q-9 5 -28 10q-25 0 -69 -7.5t-56 -17.5q-14 -6 -25 -20q-15 -15 -31 -39 v2q-22 -44 -22 -80q0 -13 4 -37l-2 2l14 -38q11 -23 13 -25q17 -21 22 -25q7 -8 37.5 -24.5t50.5 -20.5q24 -4 31 -4z" />
<glyph unicode=":" horiz-adv-x="589" d="M309 856q35 0 72 -28t37 -64q0 -9 -1 -19t-1 -12v-28q0 -37 -27.5 -66t-62.5 -29q-17 0 -41 -4t-54 -4q-34 0 -64 38.5t-30 74.5q0 23 1.5 29.5t8.5 13.5q-6 -6 -6 -4q0 34 33.5 69t67.5 35h-4q9 1 16.5 1h10.5t6 -0.5t5 -0.5q1 0 11 -1t22 -1zM301 502q31 0 71 -35.5 t40 -69.5q0 -25 -4 -41v-14q0 -37 -33.5 -65.5t-69.5 -28.5h-14q-10 -2 -47 -2q-35 0 -71 35.5t-36 70.5v41q0 33 35 70.5t68 38.5q6 0 11.5 0.5t8.5 0.5h5.5t3.5 -0.5t2 -0.5h1h29z" />
<glyph unicode=";" horiz-adv-x="577" d="M309 852q35 0 72 -28t37 -64q0 -9 -1 -19t-1 -12v-29q0 -37 -27.5 -65.5t-62.5 -28.5q-17 0 -41 -4t-54 -4q-34 0 -64 38.5t-30 74.5q0 13 2 25t2 14q0 34 33 69t68 35h-4q9 1 16.5 1h10.5t6 -0.5t5 -0.5q1 0 11 -1t22 -1zM135 387q0 33 36 71t69 38q15 0 23 -1t9 -1h33 q42 0 70 -26t28 -65l-2 -28v-15q0 -29 -9.5 -42t-41.5 -37h2q-18 -13 -35 -17l-12 -2q2 0 -4 -6q-12 -10 -35 -18q-2 -3 -14 -11q-35 -25 -78 -7.5t-43 61.5q0 34 4 41v65z" />
<glyph unicode="&#x3c;" horiz-adv-x="913" d="M725 287q-28 -30 -57 -31.5t-82 18.5q-36 11 -170 82l-66 33l-114 55h2q-30 12 -49 43.5t-19 63.5q0 1 -1 4t-1 6q0 33 20 65t50 44h-2l24 14l29 14q43 16 45 17q21 3 45 18q10 2 16 8q14 19 39 29q10 6 35 12q10 0 37 11l24 14l35 16h-2q20 11 37 11q27 10 75.5 -3.5 t59.5 -44.5q19 -46 -6 -86.5t-76 -46.5q-6 -3 -10 -7t-6 -5q-3 -2 -14.5 -6.5t-16.5 -7.5q-50 -22 -63 -50t6.5 -54t62.5 -46l54 -28q63 -14 84.5 -61.5t-25.5 -100.5z" />
<glyph unicode="=" horiz-adv-x="962" d="M655 573h-53q-28 0 -62 1t-44 1q-45 3 -109 0h-86l8 3q-38 -7 -63 -3q-48 4 -82 31q-19 24 -19 76q10 64 64 82l27 4q35 -2 62 -1t124.5 4t191.5 3q40 0 50 -2q12 0 18 2q48 11 90 -16q28 -25 33 -53v2q3 -7 3 -29.5t-3 -28.5q-8 -38 -45 -61q-39 -13 -60 -13 q-31 0 -45 -2zM307 471h53q26 0 60.5 -1t44.5 -1q45 -3 108 0h86l-6 -2q35 6 64 2q48 -4 82 -31q18 -30 18 -76q-10 -63 -63 -81q-18 -7 -27 -7q-41 -6 -379 -6q-39 0 -49 2q-12 0 -18 -2q-54 -8 -91 19q-27 24 -32 53v-2q-3 6 -3 28t3 29q10 40 45 60q32 14 59 14 q31 0 45 2z" />
<glyph unicode="&#x3e;" horiz-adv-x="935" d="M186 811q29 29 58 30.5t82 -18.5q15 -6 20 -8.5t10.5 -6.5t10.5 -11q17 -7 34 -14.5t29 -12.5l33 -14l98 -47l117 -54h-2q29 -13 48 -45t19 -67q0 -1 1 -3t1 -3q0 -32 -20 -64t-49 -45h2l-55 -27q-20 -10 -48 -18q-5 -3 -38 -14q-10 -6 -19 -15q-19 -19 -41 -28 q-10 -5 -33 -11q-11 0 -36 -10l-25 -12l-35 -19h2q-18 -8 -37 -8q-26 -12 -75 1.5t-60 43.5q-15 39 2.5 80.5t61.5 44.5q2 1 11 6.5t21 10.5l27 16q12 6 23 13t28 19t25 24.5t11 26.5t-11 28.5t-43 27.5q-6 2 -33 15q-26 6 -53 26q-63 14 -85 61.5t23 100.5z" />
<glyph unicode="?" horiz-adv-x="929" d="M795 946v4v-4zM123 811v31q0 67 14 96q18 46 47.5 96t57.5 60q15 11 20 18q1 1 2 1.5t1 1t2 2t5.5 3.5t10 6.5t16.5 10.5l53 26q72 13 88 13q51 0 76 -5q45 -10 64 -20l14 -6l-6 2q36 -12 65 -35q29 -16 58 -45l16 -16l31 -33l10 -19q20 -30 27 -53v-6v6q1 -6 6 -23.5 t6 -27.5q0 -4 1 -11t1 -10q2 -10 2 -38q0 -12 -6 -54q-4 -24 -4 -28q-4 -47 -19 -74q-7 -13 -10 -25q-31 -59 -53 -90l-17 -22q-10 -21 -18 -33l-14 -27q-15 -23 -31 -43l-23 -30q-20 -30 -32 -70v-18q0 -7 -2 -19t-2 -18v-17q0 -23 -5 -45t-24 -42.5t-49 -20.5 q-12 0 -19.5 -1t-17.5 -1q-34 0 -65 42t-31 72q0 88 12 140v-4q0 2 1 5.5t1 4.5q5 30 18 55q18 43 58 88l22 31l-2 -2l17 20l30 49q9 11 29 60l2 4q0 2 2 4q0 6 8 18q1 2 3.5 8t4.5 10t3.5 10.5t1.5 12.5l6 31q1 3 2 11l2 8q-3 31 -19 71q-11 24 -53 48t-78 24 q-27 0 -82 -80l2 4q-22 -37 -22 -61q0 -30 -23 -68q-12 -16 -23 -25.5t-22 -13.5t-16.5 -5t-18 0t-14.5 1q-41 0 -66 24.5t-32 55.5zM360 -10q0 31 30.5 67.5t64.5 36.5q14 0 20.5 -1t22.5 -1q36 0 70 -27.5t34 -60.5v-47q0 -30 -28 -65t-66 -35q-6 0 -13.5 1t-13.5 1 q-37 0 -78 25.5t-41 58.5q0 5 -0.5 9.5t-0.5 6.5t-0.5 3.5t-0.5 2.5v25z" />
<glyph unicode="@" horiz-adv-x="1705" d="M1583 709q8 -27 8 -58q0 -45 -6 -80q-11 -51 -39 -155q-8 -20 -50 -84.5t-64 -93.5l-17 -17l-37.5 -37.5t-67 -63t-53.5 -36.5q-34 -22 -51 -27q-22 -11 -41 -15t-33.5 -2.5t-28.5 11t-22.5 18t-20 27t-17.5 30t-17 34t-16 33.5q-22 43 -68.5 66.5t-91.5 23.5t-73 -8 t-45.5 -32t-24.5 -42t-19 -62q-3 -9 -4 -14q-17 -53 -49 -66.5t-90 2.5l26 -16q6 -7 11.5 -10.5t11.5 -6t10 -5.5l-2 2l14 -7l23 -12l49 -24q2 -1 5 -1.5t8 -1.5t8 -2l41 -10l-2 2q18 -3 32 -10h-4q10 -5 37 -8q32 -4 41 -4h25l21 3q7 1 11 1l64 6q1 0 4.5 1t5.5 1q-4 0 0 2 q1 0 10 1t11 1h10l43 8q2 0 9 1t9 1l39 9h-2l21 6q14 4 78 27.5t83 33.5q35 11 61 2t41 -32.5t20 -49.5t-1.5 -49.5t-23.5 -32.5q-12 -4 -15 -10l-18 -6l-23 -8l-41 -19h2q-8 -5 -32 -10q-2 0 -7 -1t-6 -1q-4 -2 -11 -4.5t-9 -3.5t-5.5 -2t-4.5 -2q-21 -6 -29 -10 q-3 -1 -10 -4t-10 -3l-15 -6l-20 -6l-4 -4q-14 -10 -43 -10q-7 0 -19 -4q-1 0 -13 -1t-31 -2.5t-36 -2.5h-41l-34 -9q-32 -4 -66 -4q-19 0 -105 10.5t-114 20.5q-14 4 -25.5 8.5t-13.5 5.5l-14 6l-25 13l-27 14l-174 100q-22 15 -53 50l-55 63l-31 45l-12 12l-2 4 q-2 4 -2 13q-13 20 -17 33l-12 22q-4 4 -4 10l-25 54q-10 20 -28 79l-21 80q0 11 -2 15q-2 12 -2 77q0 158 10 191l6 33q0 6 5 16q5 38 10 47q0 9 8 17q3 25 20 57q18 40 27 53q1 2 2.5 4t2.5 3.5t1 2.5q5 8 21 31.5t26 38.5h-2q11 16 87.5 91.5t109.5 99.5v2q4 1 8.5 4.5 t5.5 3.5l-2 -2q13 12 70 37l12 8q12 5 44.5 19t57 24t37.5 14l19 4h-2q14 7 59 17q3 0 12 1t13 1q12 0 18 2h60q39 2 102 2q1 0 7 -1t9 -1q80 0 285 -84q8 -4 20.5 -13.5t16.5 -11.5l88 -65q9 -6 57 -54q39 -50 43 -57h2l21 -23q37 -59 65 -118l-2 2q17 -38 25 -76 q6 -23 6 -55q0 -13 2 -21q0 -20 2 -24zM438 154q11 -13 54 -48l22 -18q-20 20 -20 45q0 73 18 117q1 8 4 21t4 18v-2l8 51q14 22 17 41q5 8 10 27q0 26 6 47l8 28q9 91 37 131l6 15q2 4 8 15.5t11 26t8 33.5l12 35v2q14 62 31 103q11 85 54 154t91 94h-2q33 16 85.5 -8.5 t76.5 -59.5q11 -16 12 -16v-21l9 -18l-2 2q14 -32 18 -66q3 -23 16 -43q25 -48 29 -80q4 -13 9.5 -35.5t8.5 -31.5q10 -38 23 -70l4 -45l4 -14q9 -58 35.5 -100.5t60 -59t71 0t67.5 69.5l2 12q3 21 20 45q5 9 6 16q1 8 3.5 30t2.5 30q0 130 -6 151v-2q0 1 -14 29q2 -5 -3 2 t-11 16l-9 19q-10 10 -10 26q-1 2 -5 6.5t-8 10.5t-7 12l2 -2q-24 36 -55 63q-22 25 -48 46q-14 14 -114 63q-2 0 -9.5 2t-9.5 2l-16 8q-30 15 -45 15q-11 5 -98 13.5t-93 6.5q-2 0 -9 -1t-9 -1h-4q-10 -2 -31 -2l-4 -1q-4 -1 -8 -1q-7 0 -23 -4q-26 -8 -110.5 -52 t-132.5 -75l-23 -27l-4 -4l-14 -16q-30 -37 -35 -45l-14 -19l4 6q-16 -24 -33 -59l-17 -27l-16 -26q-4 -16 -16 -41l-14 -27q-1 -1 -1 2q-20 -81 -20 -170q0 -103 12 -121l8 -34q10 -24 13.5 -38t3.5 -16.5t4.5 -11.5t19.5 -31l11 -14q0 3 5 -4q3 -7 7 -14l8 -13l18 -22 l9 -12q0 -1 1 -3.5t1 -3.5q11 -19 24 -32zM420 1174l2 2zM819 451q47 -4 60 -2q57 38 34 108q0 1 -1 6t-1 8q-10 39 -14 70l-5 18q-21 49 -40 37q-14 -9 -23 -55l-2 -12l-6 -23l-4 -12q0 -1 -1.5 -7t-6 -22.5t-12.5 -42.5v2q-10 -38 -2.5 -54.5t24.5 -18.5z" />
<glyph unicode="A" d="M2435 -518v-2v2q25 -100 -65 -236q-18 -29 -83 -80t-106 -65q-39 -12 -135 -23q-58 0 -86 9q-11 0 -23 8l11 -2q-2 2 -9 2q-70 21 -210 108q-15 11 -23 27l-8 8q-10 8 -19 25l-6 4l-16 24l-47 68l-25 51l-4 15l-16 43q-3 3 -6 12q-7 14 -7 22q-21 69 -26 109l-2 12 q-9 16 -13 41v17q0 2 -1 5.5t-1 4.5v-4q-5 29 -10 155q-2 6 -2 27v272q0 99 -6 146q-2 38 -25 77t-53 48q-6 0 -51 10q-32 4 -45 10q-5 0 -12 1t-9 1q-8 2 -14 2q-35 7 -85.5 -24.5t-86.5 -92.5q-9 -13 -23 -45q-5 -10 -8.5 -15.5t-11.5 -18.5t-20 -33l2 2q-11 -22 -11 -27 q-20 -61 -38 -80q-4 -3 -7 -6q-14 -18 -20 -35l-6 -12l-9 -16l-12 -15q-14 -29 -96 -131q-33 -24 -51 -49l-15 -12q-8 -12 -22 -23l-29 -30q-37 -29 -55 -41q-60 -20 -64 -21l-6 -4l-24 -10l-17 -2h11l-17 -4q-21 -7 -63 -19q-38 -6 -99 -6h-30q-12 0 -29.5 5.5t-38.5 13 t-31 10.5l-16 6q-11 5 -37 19.5t-39 19.5l2 -2q-10 5 -16 10q-13 6 -17 12q-19 11 -41 33q-11 14 -45 75t-43 83q0 8 -2 12q-13 48 -16 88q-2 13 2 43l10 60q0 1 1 3t1 3q0 12 4 20q0 2 1 8t1 7q5 5 5 12q7 34 22 63l-2 -4q21 37 43 62q3 6 16 16q32 35 70 62q69 42 115 51 q37 12 108 12q2 0 7 -1t8 -1h24q29 0 37 -2q19 -2 62 -12q34 -6 55 -41q11 -11 14 -43q3 -21 -11 -54.5t-28 -46.5q-27 -16 -73 -16q-27 0 -48 8q-3 1 -7 2.5t-6 2.5t-3 1h-14q-4 0 -13 1t-16 1h-16q-24 0 -56 -14l-57 -33l-8 -12l-23 -25l-10 -18v-12q0 -2 -1 -9.5t-1 -9.5 l-6 -31v-16q-2 -29 5.5 -53t37.5 -80l24 -23q21 -21 64 -39t74 -18q52 0 84 4q6 0 6 4l41 17l96 65q26 21 80 86l-2 -2l10 17l16 20l19 27q13 14 33 45l53 96q2 2 14 41v-2q12 34 29 65v-2l4 13l4 6q55 90 82 182q0 3 2 14l2 11l8 10l6 8v2l9 21l-2 -7l10 19l14 35l17 43 l12 22q41 85 61 139v-6q7 26 45 113l-2 -2q17 41 37.5 85.5t50 104t41.5 84.5l64 125l22 41v-2q21 37 54 60q65 26 118 26q58 0 113 -33q0 -2 2 -4l18 -14q5 -6 13 -17t12.5 -17t8.5 -14t5 -15l7 -60q8 -87 6 -149q-4 -28 -4 -35q0 -3 -5 -43q-7 -43 -4 -86q-2 -12 -2 -19 q0 -38 -2 -108v-98q3 -7 2.5 -18.5t-2.5 -32t-2 -25.5q-2 -10 2 -49q2 -25 2 -82q0 -58 -10 -140q0 -44 -4 -114v-11l-2 -40q0 -13 -4 -29l2 4q-4 -23 -2 -33l-2 -69v-37q0 -72 8 -236q0 -6 1 -17.5t1 -17.5q2 -14 2 -55q0 -29 2 -47v2l6 -37q10 -123 56 -209q29 -60 32 -63 l19 -21l-2 2q22 -33 71 -80q9 -13 17 -12l33 -20q17 0 26 -6q35 -7 37 -7h29l35 -2q11 0 53 19l26 12q2 4 10 9l9 5q8 5 26 23q28 28 31 98q-8 38 10 70l-2 -2q10 21 30.5 34t35.5 16l16 3q2 0 8 2q35 -4 62 -22q37 -24 49 -74zM1518 1110q-2 60 -27 55q-25 -4 -53 -62 q-2 -4 -4 -9q-7 -20 -25 -59.5t-23 -53.5l-18 -39l-41 -102l-6 -25l-10 -33l-4 -10q-7 -14 -9 -24q-9 -28 4 -70t54 -45q9 -1 29 -4.5t32 -5.5t28.5 0.5t27 11t19.5 27.5t13 49q6 31 6 94v65q-3 40 0 80q0 10 5 27q2 16 2 133z" />
<glyph unicode="B" horiz-adv-x="1601" d="M1466 494l13 -72q6 -34 6 -76q0 -23 -4 -59q0 -27 -6 -54v7l-2 -7q-2 -18 -13 -73l-18 -49l-6 -21q-11 -25 -31 -67l-35 -60q-20 -33 -41 -57l-14 -25l-27 -33l-18 -18q-16 -22 -35 -35q-24 -21 -45 -28q-8 -3 -16 -11q0 1 -8.5 -5t-18.5 -13q-4 -2 -17 -12t-20 -13l2 2 l-63 -28q-14 -9 -25 -13q-6 -3 -24 -9l-21 -9q-25 -6 -53 -10l-23 -4q-14 -7 -16 -7q-32 -12 -47 -12q-25 -2 -84 -2q-45 6 -78 8q-16 4 -28 6t-19 3t-10 2q-40 8 -56 14h2q-4 2 -12 2q-26 4 -43 8l-35 19h-2q-20 11 -20 12l-37 20l2 -2l-27 15l-63 41q-10 9 -35.5 25.5 t-30.5 19.5q-31 31 -43 49l-16 20l2 -2l-45 68l-19 33l4 -5l-26 50q-22 68 -23 73q-2 42 -4 62q0 3 -1 12t-1 12q0 17 -2 25q-6 50 -4 57q3 44 10 74q1 15 23 78q19 41 37 78q23 43 41 67q8 11 17.5 21.5t23.5 23.5t18 17q41 41 61 57q42 26 70 39h-2q12 8 68 20l8 9l26 8 q10 4 119 4h19q39 0 53 -2q44 -9 78 -21h-4q36 -9 63 -26q21 -9 76 -47l14 -9l43 -32q29 -37 31 -39l12 -25q4 -8 10 -14q3 -4 11.5 -14t12.5 -17t7 -14q13 -40 15 -55q0 -3 1 -8.5t1 -8.5q4 -39 0 -70q0 -29 -9 -65q-7 -54 -22 -86q-25 -44 -49 -72q-29 -31 -80 -49h2 q-10 -6 -39.5 -11.5t-40.5 -0.5h4q-15 4 -27.5 13.5t-16 14t-15.5 21.5l2 -2q-24 40 -15 80q3 21 16.5 41t35.5 28l16 9l4 6l10 18l-2 -2q7 13 11 35q4 25 0 72q0 2 -1.5 7t-1.5 7q0 6 -2 14q-27 36 -53 62q-10 10 -43 18h2l-18 8l-15 9q-30 15 -65 18q-21 2 -64 -2 q-2 0 -9 -1t-9 -1q-4 0 -13.5 -1t-13.5 -1q-14 0 -24 -2q0 -2 -4 -4l-41 -27l-27 -12l-8 -4l2 2q-25 -22 -55 -60q-10 -12 -39 -69q-25 -76 -29 -105q-4 -28 -4 -41v-20l-1 -13q0 -13 1 -16q4 -20 6 -24l6 -23l13 -31l10 -18v-8q26 -52 31 -58v-2q8 -2 20 -14q42 -46 68 -66 q17 -17 47 -32l61 -31l31 -6q27 -4 39 -10h-4l26 -9q11 -5 39 -8q10 0 35.5 -1t34.5 -1q19 0 65 4q40 3 70 10q16 3 39 19l22 8q2 3 7 5t13.5 4t12.5 3q2 1 31 15l29 20l22 21q11 7 29.5 24.5t19.5 18.5l27 24q2 1 4 2.5t3.5 2.5t3.5 2t3.5 2t2.5 2t1 2q6 8 12.5 22t8.5 16 l12 27l19 31q11 11 20 29q4 9 8 38v-4q0 3 2 9.5t2 9.5q17 70 17 71q0 4 1 15t1 14q4 28 4 43q0 22 -8 68q0 4 -1 16t-1 16q0 29 -17 64l2 -2q-7 13 -22 47l-8 27l2 -2q-1 4 -6 14t-7 16l2 -4l-41 58l-41 41l-26 22l-23 18q-7 3 -20 19l-8 6q-4 4 -7 4q-27 22 -36 27l-21 6 l-14 6q-40 14 -58 48t-8 75q8 36 37 61t66 25q1 0 11 -1t11 -1q16 -4 41.5 6.5t28.5 32.5q2 16 2 41q0 4 -1 20t-1 23q-5 36 -23 71q-20 41 -39 64l-61 63q-42 30 -57 37l2 -2q-6 1 -32 9t-42 10q-52 7 -82 2q-25 -3 -74 -23q-37 -16 -67 -37q-23 -16 -56 -57q-4 -4 -4 -6 q-33 -43 -39 -57l2 2q-20 -68 -18 -86v-50l2 -18q-2 -31 -2 -64q0 -8 -1 -17.5t-1 -12.5v-47q0 -42 -28.5 -67t-75.5 -28q-46 0 -74 31q-13 13 -18.5 19.5t-11 18.5t-5.5 26q0 23 4 43q4 12 4 26v25q0 23 -2 35q0 3 -1 13.5t-1 18.5q0 2 2 0l-6 39v19q0 1 1 6t1 6q8 40 8 45 q0 2 2 6.5t2 7.5q8 37 19 56l8 14q19 48 35 74q6 10 47 63q7 7 14 21l10 18q11 17 27 25l57 41q8 6 45 22q9 2 17.5 6.5t9.5 4.5l35 18q11 9 33 16q8 1 32.5 7.5t38.5 7.5h70q35 0 65 -6h-4q15 -5 19 -5q8 -2 26 -2q41 0 68 -14l-8 2q16 -5 49 -24l41 -27q46 -26 49 -29 q30 -24 60 -51q40 -46 49 -63q15 -22 37 -60q13 -20 22 -61l-2 4l6 -15l21 -79q4 -23 4 -78v-10q0 -43 -6 -68q0 -1 -2.5 -6.5t-2.5 -7.5q-16 -62 -16 -97q0 -41 19 -75q10 -26 32 -52l19 -22l24 -41l13 -23l8 -12q15 -19 26 -49l15 -45l12 -33q8 -20 8 -39z" />
<glyph unicode="C" horiz-adv-x="1429" d="M1346 1010q0 -15 2 -21q4 -19 0 -41q-7 -21 -7 -35q-3 -21 -10 -36l-8 -27q-11 -43 -23 -71t-20 -37t-18 -18t-15 -17q-9 -12 -49 -52q-32 -29 -61 -45l-121 -51h-2l-23 -6l-45 -12q-46 -4 -67 -4q-26 0 -72 8q-1 0 -70 18l-18 6q-30 7 -47 17q-22 11 -37 26l-17 15 l-16 12q-4 3 -11.5 8t-14 10.5t-13.5 14.5q-20 29 -31 55q-7 11 -22 64q-8 23 -12 63q-7 44 -4 86q5 25 26 76q4 10 12 21t12.5 16t16.5 16.5t14 13.5q4 4 37 23q12 8 31 8h-6q7 4 19 0.5t14.5 -4.5t14 -7.5t15.5 -8.5q41 -41 41 -80q0 -53 -32 -78l-4 -6l-5 -12q0 -2 -1 -5 t-1 -4q0 -27 2 -39q5 -31 17 -57v2l8 -16l4 -11q27 -23 59 -36q34 -7 52 -9q4 0 7 -1l3 -1q3 0 11 -1t11 -1q37 -4 54 0q19 3 96 35l35 31l16 18l12 11q10 5 15 10q15 24 28 58.5t11 43.5q0 2 1 6t1 6q2 8 2 21q0 14 -6.5 65t-14.5 62v-2l-14 22l-14 19q-6 5 -10 11l-5 5h2 q-4 5 -15 19t-17 20q-39 34 -56 43q-17 10 -39 19q-17 3 -30 10q-29 6 -29 8q-2 0 -6.5 1t-5.5 1q-24 4 -35 4h-80q-10 0 -16 2l-25 -4l-20 -4l-54 -12l-10 -8l-65 -19q-12 -2 -37 -23t-35 -40l-12 -11l-19 -16q-5 -12 -20 -26.5t-21 -30.5q-1 -1 -4 -5.5t-6.5 -8.5t-5.5 -5 q-3 -13 -12 -22l-23 -35q-3 -6 -14 -22l-7 -11q-8 -16 -26 -72l-19 -53l-6 -29l-4 -34v-2q0 -1 -1 -7t-2.5 -14.5t-2.5 -13.5q0 -19 -4 -35l-4 -14q-7 -21 -12 -49v-13q0 -3 1 -7.5t1 -6.5v-29q0 -23 4 -59q4 -28 4 -47q4 -28 4 -47q6 -54 6 -58q0 -20 10 -37l8 -36l15 -54 q17 -54 33 -80l30 -45l58 -88l30 -28l13 -15q22 -11 39 -28l20 -15l41 -24q34 -19 59 -25q16 -7 76 -16h62l53 10l14 4q42 10 78 29l16 4l13 6l24 16l39 45q8 10 23 50l2 10q8 36 8 47q0 31 -4 45q-2 4 -8 20t-10 23t-12.5 17t-20.5 16q-47 16 -66 41q-26 33 -22 82 q11 36 49 65q42 23 78 17q70 -18 114 -52q30 -34 58 -77l6 -9q31 -49 39 -75q8 -39 8 -97v-16q0 -49 -8 -80q-2 -14 -13 -38.5t-14 -33.5l-6 -14q-26 -53 -47 -80q-13 -18 -72 -65l2 2q-59 -46 -90 -64q-2 -1 -3 -3t-4.5 -4t-12.5 -5q-16 -8 -41 -8h-7q-47 -19 -81 -27 q-23 -4 -76 -4h-58q-47 0 -65 2q-26 4 -60 18l-20 5q-28 4 -47 12q-25 9 -41 20l-88 52l-27 22l-30 27l-68 67q-20 20 -35 41q-14 14 -37 64l2 -4l-16 22q-25 35 -61 109q-7 31 -13 51l-14 47q-8 15 -14 47v-2q-10 19 -13 39q-2 8 -3.5 21t-2.5 16q-2 12 -2 43q0 19 -2 29 l-6 36q-4 24 -4 45q0 6 -1 18t-1 17v37q4 65 8 82v31q0 31 2 45l12 71q9 27 13 41l12 39l6 23q1 6 12 49l-2 -4q11 33 23 57v4l14 31v-2q3 7 12.5 22.5t12.5 22.5q6 9 10 23l10 20l-4 -6q7 13 18 23l9 14l8 12l12 23q6 4 11.5 10.5t15.5 22t20 28.5q9 12 35 33l25 22 q5 3 28 31q9 9 16 14.5t11 8t17.5 9.5t23.5 13l14 10q25 17 47 25q12 5 95 23l16 2l16 6q4 3 16 3.5t36 2.5t49 8q14 1 58 0.5t54 -2.5q28 -5 78 -16h19q36 -4 67 -19q3 -2 16 -7.5t19 -10.5l25 -21l77 -55l31 -37v-2l23 -22l18 -17l27 -26q1 -6 9.5 -19.5t10.5 -19.5 q4 -5 6.5 -10t3.5 -7.5t0 -3.5q25 -50 39 -104q4 -8 4 -29q0 -12 2 -20q0 -7 5 -37z" />
<glyph unicode="D" horiz-adv-x="1673" d="M1552 737l4 -143l3 -74l-7 -71l-12 -70l-12 -70l-12 -73l-25 -72l-31 -60q-12 -27 -24 -63l-47 -68h2l-41 -57l-45 -51l-56 -55l-51 -43l-65 -37l-68 -35l-70 -31l-145 -33l-27 -2q-48 -6 -59 -6q-55 2 -78 6q-43 4 -59 9l-56 12l-22 8v-2q-23 5 -35 8h2q-14 5 -39 19 l-14 8l-70 39l-59 39l-31 20l-37 25q-14 14 -25 26.5t-21 24.5l-15 18l-12 21l2 -2q-25 35 -31 47l-12 24l2 -2q-3 5 -11.5 16.5t-13 19t-4.5 11.5q-3 7 -6 20t-7.5 32t-7.5 30q-8 34 -12 82q0 3 -1 8t-1 7q-4 43 -2 69q4 42 12 78q6 27 13.5 52t7.5 26q6 14 19 42.5 t16 35.5l43 65q20 23 43 43l30 31q37 37 50 45q7 6 26 15.5t25 13.5l20 12l47 16l70 21h102h13q39 0 57 -2q26 -6 74 -19q30 -9 57 -24l12 -6q59 -37 70 -45l12 -9l43 -30q22 -28 31 -41l12 -25l19 -18q22 -37 24 -41q11 -27 15 -70v-53v-14q0 -39 -7 -70q-7 -48 -24 -84 q-9 -23 -49 -74q-37 -34 -76 -47q-25 -13 -45 -16h-14l-25 6q-33 13 -53 47q-22 39 -13 78q15 58 58 71h-2l16 11l4 4l6 14q9 18 9 35q4 18 0 63v27q-6 13 -58 72l-35 18l-22 8q-22 4 -29 9q-27 14 -49 18q-35 3 -84 -4h4q-10 -2 -35 -2l-47 -25q-13 -10 -32 -14l-9 -4 q-6 -2 -10 -4q-17 -12 -57 -58q-33 -60 -41 -79q-8 -20 -27 -93q0 -2 -1 -7.5t-1 -8.5q-4 -24 -4 -31v-14q0 -27 4 -43q1 -3 2 -9.5t2 -8.5l6 -19v2l13 -31l8 -18l6 -16q18 -41 31 -58q2 0 4 -2l12 -10l14 -14q9 -9 26 -25t19 -18q40 -31 58 -39q47 -28 59 -33q12 -6 29 -6 l37 -8q22 -8 73 -17h3l59 4l49 2l55 13l58 16l53 14l55 29q9 7 28 19t25 16l58 49l49 57l23 41l34 58l21 39l22 53l-2 -4q2 10 7.5 29.5t7.5 29.5l14 53l8 68l12 59q0 11 1 34t1 36l3 72l-5 73l-2 72v-2l-4 49l-10 70l-16 63l-15 66l-26 59l-15 35q-5 9 -26 51 q-19 15 -31 33l-47 55l-51 49q-1 0 -4 2.5t-4 2.5l-58 32l-49 23l-25 12l-49 12l-51 11q-4 0 -15 2t-14 2h-63q-2 0 -70 -23q-49 -28 -71 -39q-3 -3 -22.5 -23t-27.5 -32l5 4l-17 -20q-22 -30 -28 -45q-28 -69 -21 -86l-2 -144v-33q0 -42 -29 -73.5t-71 -34.5q-41 -6 -80 33 q-35 35 -35 75q0 23 4 43q4 16 2 41v45l-2 29l-4 23q0 18 4 26q8 32 8 37q0 2 2 6.5t2 7.5q11 34 21 54l6 14q10 23 22 48.5t13 27.5q4 8 12 18t19.5 23.5t17.5 21.5l20 27l-4 -6q9 15 33 39q41 36 62 47q9 6 47 22l39 19q18 12 51 22l65 17h74l25 2l82 -13l86 -22l53 -23 l94 -43l53 -26l47 -37l66 -62l53 -63l49 -68l31 -77l35 -74l22 -76v2l25 -78l20 -141v-72zM1036 1333l-4 2z" />
<glyph unicode="E" horiz-adv-x="1640" d="M809 -377q-154 0 -285.5 58.5t-214.5 140.5q-127 114 -191.5 270t-64.5 340q0 44 2 64q14 122 68 264q20 49 87 141.5t157 153.5q47 30 98.5 54.5t80.5 37.5t60.5 36.5t56 64.5t48.5 108q10 29 43 82l2 4q5 6 17.5 20.5t17.5 20.5q43 41 105.5 73.5t125.5 36.5q18 2 59 2 q67 0 104.5 -16t96.5 -61q41 -50 66 -80q41 -79 38 -156q0 -44 -32 -76q-32 -28 -70 -28q-21 0 -35 8q-36 18 -47.5 45t-15.5 76q-6 41 -35 59q-12 15 -33 25q-10 0 -16 4q-2 0 -11.5 2.5t-15.5 3.5q-79 0 -119 -27q-25 -28 -36 -42t-20 -35.5t-9 -45.5v-10l2 -27 q4 -17 33 -55q16 -20 24.5 -33t15 -34t3.5 -43q-6 -52 -72 -86h-2q-27 -9 -41 -9h-51q-71 2 -123 -5.5t-125 -33.5q-127 -56 -209 -202t-82 -303q0 -76 21 -162v2q5 -16 15 -38t33 -63t51.5 -80t73 -82t95 -75t120.5 -53.5t146 -22.5q60 -2 169 31t159 82q86 96 123.5 165.5 t56.5 186.5q3 17 -12 131l-6 17q-7 27 -54 100q-4 12 -16 24q-21 26 -22 27q-73 68 -213 66q-71 0 -138.5 -56.5t-89.5 -132.5q-10 -27 -10 -61q0 -3 -0.5 -17t0 -21t2.5 -18t6 -20q10 -20 10 -35q7 -32 -4 -61q-31 -45 -90 -45q-55 0 -82 37q-17 23 -29 78.5t-12 95.5 q-2 59 12.5 113t33 90t52.5 75.5t53 57.5t54 47q96 75 246 75q101 0 199 -38.5t161 -106.5q58 -64 99 -154l24 -55q29 -80 29 -121v-78q0 -52 -14.5 -119t-54 -154t-98.5 -163.5t-159.5 -141.5t-226.5 -93l2 2q-91 -23 -170 -23z" />
<glyph unicode="F" horiz-adv-x="1828" d="M158 293q-3 -3 2 -8q-2 2 -2 8zM1948 1210q-16 -10 -43 -10q-62 -4 -88 -4q-39 4 -48 4q-12 2 -73 2q-146 0 -189 -6h-96q-39 -5 -68 -18.5t-45.5 -30t-27 -40.5t-14.5 -44t-5 -45q0 -21 -4 -41q-2 -12 -2 -29q-3 -13 -4.5 -83.5t0.5 -80.5q0 -1 1 -7.5t1 -8.5 q5 -41 40.5 -71.5t68 -42t49.5 -11.5h94q7 0 10.5 1t5.5 1q6 2 25 2q37 11 63 -4q29 -15 45.5 -45t16.5 -63q0 -31 -14.5 -56.5t-42.5 -36.5q-13 -10 -64 -10q-16 6 -22 6q-38 -7 -86 0q-62 -2 -103 -11.5t-58 -22t-30 -27.5t-21 -27t-28.5 -20t-54.5 -8q-42 0 -72.5 28.5 t-30.5 83.5q0 5 1.5 32t0.5 36v35q0 43 2 55q0 3 1 15.5t1 25.5v119q0 8 -1 25.5t-1 29.5q-2 33 -2 92q7 33 -2 98v-2q-2 14 -2 37q0 57 -59.5 110t-165.5 48h2l-23 -2l-30 -6q-24 0 -37.5 -1.5t-17 -3.5t-7 -4.5t-8.5 -3.5l-37 -6q-19 0 -31 -8l-2 -2q-20 -10 -34 -12 l-11 -6l-63 -37q-15 -15 -25 -23l-4 -4q-11 -11 -26 -20l-25 -23l-20 -18l-13 -13q-22 -22 -26 -34q-1 -1 -0.5 -4.5t-1.5 -8.5q-2 -4 -4 -12.5t-4 -14.5t-6.5 -13t-10.5 -13l-8 -25q-10 -18 -15 -30l-4 -8q-13 -49 -16 -91q-4 -12 -4 -41q0 -3 -1 -13.5t-1 -14.5 q-4 -40 -2 -64q0 -8 4 -32q4 -16 4 -37q2 -11 3.5 -22t2.5 -15v2l6 -33l-2 4q17 -40 27 -63l2 -17l4 -8l-2 12q0 -1 2 -6t4 -8l12 -20q14 -20 27 -33l21 -25l16 -20q13 -21 16 -23q3 -4 9 -9.5t10 -9t4 -5.5q17 -6 57 -33l-2 2q69 -36 160 -61q26 -9 47 -11l8 -2 q33 -6 47 -8q20 -4 39 -4q11 0 51 8l41 4q51 5 66 10q30 15 39 15q25 12 39 16q3 1 12 5t12 5q39 13 51 23l27 29q22 3 37 18l18 16l13 11l24 20l9 7q8 6 9.5 7.5t9 6t12.5 6t12.5 3t15.5 1.5q19 0 43 -14q3 -2 14.5 -7t16.5 -9.5t10 -12.5q9 -15 15 -37.5t5 -34.5 q-12 -40 -33 -67l-49 -48q-8 -5 -23 -26t-35 -56t-35.5 -88.5t-16.5 -109.5q4 -55 2 -82q0 -6 -1 -17t-1 -14v-16q-6 -27 -19 -43v-4q-2 -2 -4.5 -5.5t-4.5 -5.5t-4 -4.5t-4 -4.5t-4 -3.5t-4 -2.5t-5 -1q-8 -7 -18 -10t-13 -4q-10 -4 -25 -4q-2 0 -14 1t-14 1 q-25 3 -38.5 14t-25.5 33q-16 29 -16 72q0 12 4 24l-2 -4q6 54 6 64q0 4 -4 28v-2v41q0 8 -12.5 20t-41.5 20.5t-63 2.5q-27 -2 -86 -2q-5 0 -14.5 -1t-14.5 -1h-45q-41 5 -141 31q-15 4 -27 8.5t-25 11.5t-20 10l-20 7q-17 6 -48 22t-38 19l-14 8l-39 24q-23 14 -62 45 q-48 41 -78 82v-2q-28 35 -69 101q-1 1 -3.5 4.5t-6 9.5t-7.5 14l-4 17q0 4 -6 16q0 4 -2 12t-5.5 18.5t-4.5 16.5v-2l-12 37l-7 25v-2q-14 41 -16 59q-8 54 -8 98q-1 21 4 76q2 12 2 35l10 94q5 25 23 78l10 31v-5q22 72 37 107v-2q29 56 53 84q12 16 47 51l10 10l17 21 q3 3 6 8t9.5 12.5t21.5 22.5q7 7 47 31l26 14l7 4q1 2 7.5 9.5t9 9.5t8 7t11.5 6.5t13 2.5l4 2l24 12q26 9 33 14l31 13q50 20 116.5 34.5t116.5 14.5h4q16 2 62 2q4 0 12 -1t12 -1q35 1 47 4.5t50 3.5q7 0 21.5 -1t21.5 -1h299q77 0 100 2q27 0 47 -4q4 -2 25 -2 q176 0 209 2q34 10 84 6q3 0 10 -1t10 -1q28 -4 43 -4h21h18q44 11 66 -2q25 -17 34 -37q2 -2 9 -16q24 -34 8 -86q-12 -33 -47 -56z" />
<glyph unicode="G" horiz-adv-x="1425" d="M1090 1049q10 8 22 16q-8 4 -22 18q-44 49 -27 103q8 18 27 46t24 38q4 8 4 20q-4 13 -18 31l-27 37q-31 20 -59 28q-19 8 -33 11q-1 0 -4 1t-4 1l-19 4q-4 1 -12 4t-14 5t-10 3h-21q-25 4 -35 2q-5 -1 -19.5 -2.5t-29.5 -3.5q-39 -3 -57 -10q-9 -2 -19.5 -4.5 t-15.5 -3.5t-6 -2q-8 -2 -25 -13l-14 -8q-6 -3 -31 -18l6 6l-16 -12l-21 -11q-3 -3 -10.5 -7.5t-9.5 -6.5q-13 -9 -55 -51q-49 -48 -52 -53q-6 -9 -19 -29t-19 -29q-39 -52 -66 -104v2q-8 -17 -14 -33.5t-12 -38t-8.5 -31.5t-9 -38.5t-7.5 -34.5q-2 -10 -9 -32t-10 -36l2 2 q-10 -75 -10 -125q0 -41 12 -143l-2 4l9 -25v2l8 -26q3 -14 9 -41.5t9 -42.5v2l23 -49l-4 6l16 -37q4 -7 12 -19.5t15.5 -24.5t13.5 -24l10 -16q7 -20 33 -51l43 -45q6 -6 27 -19q1 -1 28 -18q23 -23 43 -29q36 -18 56 -26h-2q41 -12 88 -15q40 -2 82.5 7.5t87.5 35t82 64 t64 100.5t34 139q4 36 4 74v98q2 20 2 121q0 64 -2 76v43q3 39 -8 80l-17 24l-4 7q-13 30 -7.5 69t20.5 58zM1307 901l4 -180v-236q-2 -37 -2 -102q0 -9 1 -25t1 -22v-25q0 -73 -8 -213q0 -38 -11 -129q-25 -175 -51 -256q-8 -22 -32 -74t-33 -65l2 2q-14 -34 -76 -49 q-26 -8 -46 -3.5t-46 25.5q-35 35 -29 74q0 7 2 13t7 15.5t7 14.5q30 54 31 93t-20 58.5t-55 29t-69 8t-67 -8.5q-6 0 -12 -2q-39 -6 -55 -4q-56 6 -62 8q-24 3 -51 13l10 -2q-8 4 -10 4l-35 8l4 -2l-39 6q-23 10 -51 29l-18 10l6 -2q-8 4 -70 41q-7 6 -21.5 19.5 t-21.5 19.5l-8 12q-13 9 -61 57q-41 47 -54 66l-18 20l-17 21q-19 31 -24 47q-2 3 -4.5 13t-5.5 16l-13 24q-17 33 -20 45l-25 68q-13 43 -20 78l2 -2q-2 9 -9.5 34.5t-9.5 38.5q-10 61 -10 154q0 192 74 391q24 65 84 164l-2 -2q2 4 6 9t6 9q22 35 31 48l10 12l35 39l12 16 l15 19l20 26q49 45 82 70q40 27 74 43l12 8q41 25 119 55q66 20 102 27q64 10 109 8h-2q43 0 88 -10h-6q12 -4 20 -4q40 -7 104 -31q13 -5 23 -14h2q25 -5 39 -13l20 -10l17 -10q1 -1 3.5 -2t7 -2.5t7.5 -3.5q17 -12 35 -39l8 -12q18 -22 31 -41v2l33 -64l-2 2 q14 -32 16 -43q9 -31 -6 -98q-14 -55 -41 -98l-10 -15q-27 -38 -60 -57l15 -6q41 -23 51 -47l6 -17q23 -36 25 -92z" />
<glyph unicode="H" horiz-adv-x="2007" d="M1878 1329l-2 -207q-2 -10 -2 -26q0 -2 -1 -7t-1 -8v-49q0 -4 -1 -26t-1 -33v-29q0 -1 1 -7t1 -11v-15q0 -2 2 -20q0 -33 -4 -53q0 -3 -1 -9.5t-1 -9.5v-16q0 -17 4 -41q2 -14 2 -45v-86q0 -25 -4 -49q0 -3 -1 -8.5t-1 -8.5v-39q0 -3 1 -9t1 -9q0 -31 2 -113v-84 q2 -14 1.5 -28.5t-3.5 -54t-4 -50.5q0 -4 1 -8.5t1 -7.5q2 -12 2 -56q0 -20 2 -34v-70q0 -6 -1 -40t-1 -50v-21q0 -5 -4.5 -21t-19 -38.5t-34.5 -30.5h3q-16 -8 -48 -8h-18q-37 0 -53 29l-17 33l-4 12l4 -19q-8 16 -8 31q0 1 -1 6t-1 6q-2 8 -2 33v43q0 1 0.5 9.5t1 22 t0.5 28.5q2 63 2 180v20q0 21 2 29v23q0 4 -1.5 12.5t-2.5 15.5q-3 13 2 78q-5 41 -14.5 72t-22 50.5t-30 31t-33.5 16t-38 2t-39 -7t-40 -14t-37.5 -17t-35 -18.5t-29.5 -15l-43 -22l-27 -17l-14 -10l-33 -20l-70 -35q-31 -27 -79.5 -34t-89.5 17t-46 78q2 17 1.5 50 t0.5 79v56q0 3 1 11t1 15v82q0 23 -2 33q-4 16 -4 72q4 2 4 57v88q0 14 1 39t1 37q0 88 -38.5 128t-133.5 40h-32q-30 0 -70 -6q-2 0 -8 -1t-8 -1h-15q-20 -4 -33 -4q-11 -1 -33.5 -5.5t-33.5 -5.5q-16 -8 -60 -22q-1 0 0 1q2 0 3 1q-49 -22 -89 -51l-2 -2l-16 -15l-68 -61 v2q0 -1 -3 -4.5t-16.5 -21.5t-31.5 -44q-8 -7 -18 -39l-4 -10q-27 -62 -31 -78q-2 -10 -7 -38.5t-7 -43.5l-2 -4q0 -2 -1 -4.5t-1 -3.5v-20q-7 -47 -5 -111l3 -10q0 -8 4 -66l4 -22q0 -13 6 -43l-2 2q10 -47 20 -66l13 -12v-4l10 -10l2 -17l29 -35q3 -9 57 -67q1 -1 5 -4 t11 -8t18 -13t31 -21t45 -28l99 -39q86 -28 96 -29q20 -2 49 -2q70 -2 86 -2q9 0 33 4q12 1 22 3t19.5 5.5t15.5 4.5q1 0 2.5 0.5l4.5 1.5l6 2q11 4 31.5 12t21.5 8h2l12 4l15 7l11 4q11 4 33 14.5t54 28.5l10 6l2 2l10 10q9 9 49 33l33 33q24 24 68 24q8 0 24.5 -3.5 t20.5 -4.5l10 -6q6 -3 11 -6.5t10 -8.5l8 -8q16 -21 22 -41t0 -39.5t-10.5 -28.5t-14.5 -25q-2 -4 -3 -5q-8 -7 -33 -27l-29 -20q-14 -8 -30 -31q-48 -41 -61 -81t-13 -113q-2 -12 -2 -23q-5 -29 -11.5 -41t-31.5 -33q-18 -12 -66 -12q-21 0 -50.5 10.5t-39.5 24.5 q-6 7 -13.5 23.5t-15.5 31t-21 28.5t-35 22t-52 6h-12q-29 0 -39 2h-11q-3 0 -9 1t-9 1q-14 0 -20 -2h-27q-21 0 -33 4h-18q-32 0 -52 4h3q-26 2 -148 49h2q-3 1 -8 5t-8 5q-21 9 -94 47l-52 33l-20 10l-37 29q-53 42 -82 82q-20 21 -47 65l-16 21l-21 33l-16 49 q-12 27 -23 71l-4 15q-4 7 -8 47l-2 24q-6 27 -10 105q0 73 2 106q1 4 1 9t1.5 13t5.5 23q0 2 1 11t1 10q2 8 8 35l6 35q2 31 17 71q3 21 30 72h2v2q18 30 54 100q35 47 61 78l51 45l23 21h2q21 12 55 41q53 46 105 65q23 9 98 31.5t104 26.5q6 2 27 2q20 0 98 8h23 q11 0 35 4q21 0 67 -4q3 0 6.5 -1t5.5 -1h11q63 0 105.5 -3.5t72.5 -15t46 -24t25 -40t11 -53.5t2 -73q2 -13 4 -23q0 -20 2 -88q0 -1 -1 -16t-1.5 -38t0.5 -77v-76q0 -17 -4 -41q0 -5 -1.5 -24t3 -42.5t10.5 -49.5t21.5 -44.5t36 -28.5t54 -1.5t75.5 37.5l18 10 q2 1 5.5 2.5t5.5 2.5t3 1q4 3 16.5 12.5t20.5 14.5l45 22q68 37 76 45q114 85 127 211v35q0 2 -1 5t-1 5v172q0 2 1 8.5t1 8.5q2 8 2 22q0 27 2 37v-4q0 2 1 6.5t1 7.5v19q0 19 17 49q31 39 86 39q24 0 34.5 -3t34.5 -20q17 -11 25 -25t9.5 -24.5t2.5 -36.5v-12z" />
<glyph unicode="I" horiz-adv-x="1439" d="M963 1544q-45 31 -45 88q-5 13 2 54q0 16 18 51q7 17 30 31.5t42 19.5l20 6q52 10 123 -31q27 -31 31 -41q6 -15 6 -28l6 -35q0 -43 -16 -72q-9 -21 -33 -40t-51 -23q-79 -16 -133 20zM1346 315l4 -4q18 -22 23.5 -43.5t-1.5 -41.5t-12.5 -29t-16.5 -25q-14 -14 -26 -22 l6 6l-12 -11l-29 -20q-12 -7 -29 -31q-25 -23 -36 -28q-14 -14 -27.5 -44t-9.5 -49v-8q0 -12 2 -18v-19l-1 -11q-1 -11 -1 -17q-2 -12 -2 -23q-5 -48 -38 -67t-73 -19q-18 0 -44 11.5t-38 25.5t-19.5 36t-13.5 34.5t-33 23.5t-77 15h-13q-28 0 -38 2h-13q-3 0 -8 1t-8 1 q-15 0 -23 -2h-24q-21 0 -33 4h-18q-34 0 -52 4h2q-27 2 -147 49h2q-3 1 -9 5t-9 5q-28 13 -93 47l-53 33l-18 10l-37 29q-51 41 -84 82q-30 36 -45 65l-17 21l-20 33l-18 49q-7 16 -21 71l-12 62l-4 24q-7 33 -11 105q0 73 2 106q6 34 9 45q0 2 2 11t2 10q3 8 8 35l6 35 q2 32 14 71q3 11 8 23t12.5 27t10.5 22h2v2q32 53 56 100q47 64 61 78l51 45l23 21h2q32 20 49 37q15 15 50.5 38t59.5 31q23 9 98.5 31.5t104.5 26.5q6 2 25 2q24 0 98 8h25q6 0 34 4q22 0 68 -4q3 0 6.5 -1t5.5 -1h9q63 0 105.5 -3.5t73 -14.5t46.5 -24t25.5 -40t11.5 -54 t2 -73q2 -13 4 -23q0 -20 2 -88q0 -1 -1 -16t-1.5 -38t0.5 -77v-76q0 -17 -4 -41q-2 -10 -2 -26l6 -64v-47q0 -3 1 -7.5t1 -6.5v-41q3 -37 2 -53q-2 -25 -2 -74q0 -31 4 -47q4 -24 4 -43q0 -5 -1 -11t-2.5 -13t-2.5 -11q-10 -34 -35.5 -51t-58.5 -17q-39 0 -74 27.5 t-39 63.5q-4 25 0 38v9q3 12 0 26v76q2 10 2 35v55q0 4 1 12t1 15v18q0 23 -2 33q-2 8 -2 72q2 2 2 57v88q0 14 1 39t1 37q0 61 -15.5 95.5t-60 53.5t-127.5 19q-32 0 -69 -6q-2 0 -9.5 -1t-9.5 -1h-12q-20 -4 -29 -4q-13 -1 -36.5 -5.5t-34.5 -5.5q-18 -9 -62 -22q-2 0 2 2 q-56 -28 -86 -51l-2 -2l-18 -15l-66 -61v2q-12 -12 -51 -70q-7 -7 -18 -39l-6 -10q-22 -50 -29 -78q-13 -53 -17 -82v-4q0 -2 -1 -4.5t-1 -3.5v-20q-6 -42 -4 -111l2 -10q0 -8 4 -66l3 -22q0 -13 6 -43l-2 2q16 -54 22 -66l10 -12v-4l13 -10l2 -17l26 -35q3 -5 60 -67 q17 -17 110 -74l99 -39q86 -28 96 -29q20 -2 49 -2h61q8 -2 23 -2q13 0 33 4q17 1 36 6.5t23 6.5q1 0 2 0.5t3.5 1.5t4.5 2q11 3 30 10.5t26 9.5h2l12 4l12 7q12 4 31 4h2l10 6q11 11 23 14q2 0 4 2l8 8q10 7 21 13l10 6l4 2l10 10q5 5 47 33l35 33q24 24 68 24q7 0 24 -4 t19 -4l12 -6q16 -12 23 -19z" />
<glyph unicode="J" horiz-adv-x="1419" d="M1307 1194v-18q0 -5 1 -17t1 -18q0 -5 4 -25q2 -10 2 -39q0 -10 -1 -32.5t-1 -32.5q-2 -25 -2 -78q0 -1 -1 -2.5t-1 -3.5q0 -7 1 -23t1 -24v-39q0 -8 -1 -24t-1 -21v-41q0 -16 1 -46t1 -46v-80q0 -9 -1 -25t-1 -24v-37q0 -126 -1 -188.5t-10 -186.5t-28 -215 q-17 -73 -74 -169.5t-113 -150.5l-2 -2q-1 -1 -2 -1t-2 -1t-5 -7.5t-11 -20.5l-14 -2l-11 -7q4 1 4 0l-18 -18l-23 -4l13 2q-1 -1 -8.5 -5.5t-12.5 -6.5l-10 -9l-20 -14l-35 -14l6 2q-41 -20 -51 -23h2q-24 -8 -52 -12l3 2l-25 -4l-23 -8q-43 -13 -51 -13q-38 -3 -80 0 l-71 13q-2 0 -9 2t-10 2l-33 4q-44 3 -75 16q-55 24 -92 43q-10 5 -20.5 11.5t-23 14.5t-20.5 13l-61 45q-8 5 -56 60q-21 19 -51 57v2q-13 21 -31 62q-11 20 -20 51l-29 92l-6 29q-2 4 -8 43v108q0 3 6 33l6 20l4 25q0 7 11 47q2 7 7 22.5t7 22.5l10 27q29 60 78 123.5 t104 99.5q80 42 93 47q72 25 79 27h-4q27 8 72 8h27q3 0 7 1t7 1q43 4 63 2q31 -3 70 -12h-4q6 -2 12 -2q8 -3 80 -35h-2l14 -8q53 -29 58 -33q47 -33 84 -94h-2q28 -46 43 -129q6 -30 6 -76q0 -38 -10 -74q-1 -8 -4 -17t-6.5 -15.5t-9.5 -17t-9 -17.5q-1 -4 -5 -12.5 t-5 -10.5q-10 -23 -23 -39q-14 -19 -47 -31l8 2q-23 -10 -39 -10q-41 0 -73 35q-31 27 -31 76q0 35 22 63q1 4 17 27q0 23 8 39v12q0 37 -2 47l-4 4l-8 19q-3 14 -19 37q-63 71 -160 71q-27 0 -76 -10t-67 -12q-10 -5 -67 -43q-14 -11 -35 -37l2 4l-15 -21q-14 -17 -32 -63 l-6 -14l2 6q0 -1 -4.5 -11.5t-8.5 -15.5l-10 -20l-6 -33l-8 -27q-2 -8 -2 -22v-31q0 -43 2 -61q10 -52 24 -95q34 -58 58 -86q16 -25 39 -45l20 -24l16 -15l-6 5q13 -13 58 -31q43 -27 49 -29l30 -10q48 -20 93 -25q40 -4 53 -4q5 0 29 4l-5 -2q30 6 33 6q42 9 76 23 q11 2 21 6.5t21 12t17 12t18 14.5t15 12v-2l27 23l26 18l-10 -8l8 6q2 3 9 12.5t12 14.5l16 24q23 27 33 47l14 25q3 5 10 18l11 19q9 15 22 57q3 20 6 51v15q9 52 9 69l1 14q1 13 1 25q5 142 2 170q0 10 1 64.5t1 93.5q2 92 2 281q0 12 -2 20q0 4 -1 17t-1 20q0 2 1 14 t1 21v92q0 20 -4 70q0 7 -1 23t-1 24q-4 96 -58 137t-131 45q-33 0 -47 -2q-44 -4 -65 -2q-18 0 -60 6q-2 0 -8 1t-8 1q-36 3 -60 37q-20 31 -20 65q0 25 4 39v2q9 27 27 43q23 23 104 23q14 0 41.5 -1t38.5 -1q7 0 19 -1t14 -1h24q5 0 17.5 1t17.5 1q6 0 18 1t15 1l190 -2 q32 -3 73.5 -32.5t51.5 -61.5q7 -30 12 -78.5t1 -77.5z" />
<glyph unicode="K" horiz-adv-x="2035" d="M2832 -256l-2 4q5 -22 -4 -63l2 2q-4 -20 -4 -27q-7 -54 -18 -78v2q-16 -51 -33 -78q-5 -8 -19.5 -26t-21.5 -27q-24 -28 -39 -43l-14 -12h-2v-2l-15 -19q-5 -3 -13.5 -8t-10.5 -6l-15 -6q-11 -3 -22 -10l-21 -11l-12 -4q0 1 -8.5 -2t-15.5 -6q-51 -14 -121 -14 q-32 -3 -64 0q-27 3 -57 18h-6q-20 3 -39 8h2q-13 2 -31 11l-35 14q-8 6 -61 31h2q-28 15 -94 76l-19 16l2 -2q-42 37 -51 47l-26 27q-11 16 -25 34l-10 17l-8 12q-19 16 -41 49q-14 15 -29 41l-8 12q-7 9 -13 27l-16 29q-3 7 -10.5 17t-9.5 13v-2l-15 23q-21 26 -41 63 l2 -2q-10 17 -14 37q-6 17 -14 31q-11 19 -17 25q-5 3 -8 16q-25 33 -43 70q-10 13 -10 24l-4 6l-23 47l-2 2l-12 23l2 -2q-18 34 -49 74q-9 29 -47 98l-27 43q-1 3 -12 9.5t-32 13t-42 6.5q-28 0 -66 -28t-78.5 -56.5t-74.5 -28.5q-97 0 -107 119v35q0 4 1 12.5t1 13.5 q0 10 -1 22.5t-1 16.5v117q0 39 2 49q5 25 5 33q0 9 -1 16t-1 10q-5 19 0 64q3 0 0 27q-5 45 -5 65v19q5 36 0 43q-1 60 -16.5 104.5t-36 67t-48 36.5t-43 17t-30.5 4q-65 0 -100 -6q-32 -3 -45 -8h2q-27 -11 -66 -11q-28 -17 -55 -26q-17 -4 -48.5 -28t-45.5 -38 q-28 -21 -31 -24l-24 -21q-12 -4 -56 -65q-12 -15 -18 -33l-12 -27l-13 -39l-8 -39q-18 -52 -20 -69l-2 -21q-9 -41 -9 -51q-2 -20 2 -59q0 -9 1 -19.5t2 -25t2 -25.5q11 -70 34 -129v2l7 -16q9 -23 16 -35q36 -46 82 -92q34 -34 86 -54l39 -20l6 -6l37 -17h-2 q24 -11 63 -20q68 -16 144 -16q78 0 155 22q1 0 6.5 1t6.5 1q12 3 57 21q8 0 18 10q18 9 33 14q14 5 27 12l86 70l6 4q3 3 10 11l7 7l-1 -1q40 28 72 28q29 0 45 -8h-2q28 -10 43.5 -36.5t17.5 -57.5v-17q-5 -44 -34 -69l-20 -16q-20 -17 -28 -23q-50 -35 -73 -77.5 t-25 -74.5q0 -4 -1 -11.5t-1 -10.5v-12v-52q-2 -26 -14.5 -44.5t-29.5 -25.5t-27.5 -9.5t-16.5 -2.5h-22h-17q-1 0 -8 1t-8 1q-36 5 -54 43q-2 4 -6 14t-6 14.5t-7 14t-8 13.5t-9.5 12.5t-12 11t-14.5 9t-17.5 6t-21 3t-24.5 -0.5q-21 0 -41 -4q-12 -2 -41 -2q-54 0 -74 2 q-3 1 -10.5 1.5t-15.5 2t-17 4.5l2 -2l-29 8h2l-37 8q-68 13 -133 39l2 -2l-30 16l-64 35l2 -2l-16 10l-94 68l-54 64l2 -3l-14 15q-2 3 -11.5 13t-13.5 15q-38 33 -40 68q-18 29 -35 84q-22 45 -25 61q-4 32 -4 50q0 14 -12 127q0 5 -1 18t-1 21v63q9 60 16 100v-4 q5 50 64 203l-2 -2q19 40 51 84q24 34 55 63q20 24 39 33l-2 -2l24 23q21 19 66 53q19 19 37 31q5 2 13 4t13 4q5 0 9 4q23 9 73 37q44 7 70 20q19 0 55 8l29 7h35q28 0 39 6q5 0 19.5 1t19.5 1q10 0 20 2q3 0 18 1t25 1q68 5 90 2h-4q10 0 45 -10q16 -4 25 -4 q190 0 190 -199v-70q6 -36 6 -47v-18v-90q0 -52 -2 -68q0 -3 -1 -7t-1 -7q0 -7 1 -21t1 -20q4 -54 27.5 -75.5t55 -12.5t63 31.5t55.5 52.5q20 16 31 34q7 5 22 25l17 16q1 2 10 12t20 22.5t15 17.5l10 14q22 27 22 39l21 10q7 10 18 21.5t25 24t18 16.5l11 6q-2 -2 -1 0 q1 5 7 14q15 25 20 31l25 22l26 31l11 12q4 4 11.5 10.5t12.5 11.5t8 9l11 21h-4q11 11 18 16.5t9 6.5l3 1.5t2 1.5l4 2q-2 -2 -2 -3q2 0 7 5q19 19 49 25q51 7 86 -19q25 -25 28 -30q9 -13 13 -43v-17q0 -28 -23 -51l-6 -4l-4 -14q-17 -25 -25 -29l-41 -41q-3 -3 -13 -14.5 t-15 -14.5l-6 -6l-17 -22l-22 -25h2l-15 -16l-28 -27q-4 -3 -17 -20l-18 -21l-25 -27q-11 -23 -47 -59l-12 -12q-36 -47 -62 -115t-28 -108l4 -25q-5 -32 27 -104t81 -127l17 -27l-2 2l16 -31h2l6 -10q3 -4 5.5 -9t10 -20.5t17.5 -35.5l14 -27q10 -17 17 -33l10 -18 q3 -5 9.5 -17.5t9.5 -17.5q1 -3 14 -23l14 -22l23 -35q56 -105 73 -119q16 -23 23 -43l25 -35q4 -8 16 -20l12 -16l-2 2l33 -48l35 -34l51 -56q0 -2 14 -8q15 -22 21 -26q25 -20 51 -33l25 -13q24 -8 45 -14l22 -6l31 -8q14 -7 37 -4q5 0 24 4t53.5 17t59.5 30q2 2 2 4 q12 24 23 37l6 8l14 14l6 13l12 32v-2q3 10 1.5 28t-3.5 22l-6 8q-7 4 -10 12q-11 15 -22 41t-11 47q6 25 24.5 54.5t31.5 35.5q22 12 67 8q43 -7 66 -30l12 -15l14 -18l6 -9t9 -14t10 -18q19 -48 22 -84z" />
<glyph unicode="L" horiz-adv-x="1413" d="M3080 -250q27 -50 19 -90q-1 -8 -3 -14t-6.5 -11.5t-6 -8.5t-8.5 -7.5t-8 -5.5t-11 -5l-9 -5q-26 -18 -73 -39h2q-56 -27 -78 -35l4 2q-12 -5 -63 -18l-29 -5h4l-16 -4l-64 -16l-37 -6q-68 -9 -100 -2h-8q-68 5 -76 8q-4 0 -10.5 1t-10.5 1q-31 0 -67 4q-187 44 -215 57 l-70 15q-106 35 -151 53l-72 31q-40 13 -47 18q-14 9 -25 13h2q-23 8 -69 20v-2l-62 18l6 -4q-8 1 -20.5 7t-18.5 8l-24 6l4 -2q-24 4 -29 4l-37 4q-95 10 -165 10h-82q-41 -7 -45 -8l-33 -6q-4 0 -17.5 -1t-17.5 -1q-23 0 -125 -35q-14 -4 -55 -4q-16 0 -37 16.5t-33 34.5 q-9 30 -6 61v21v20q-2 36 -29 64t-64.5 42.5t-69.5 22t-52 7.5h-45q-46 7 -84 20h2l-57 14q-1 0 -9.5 1.5t-15.5 3.5q-37 11 -59 22l2 -2q-21 8 -88 47l-35 25l2 -2q-30 20 -60 47q-30 21 -63 63l-14 15l-25 34l2 -2l-31 43l-8 9q-16 12 -20 34l-4 25q0 2 -1 6t-1 6l-9 17 l-18 47l-8 32q0 2 -2.5 12t-7.5 38q-7 54 -7 96v98q2 22 17 72l6 22q3 47 22 93v-5q9 35 37 99l-2 -2l15 32q20 41 32 54q23 29 37 43l13 16q3 2 17 15t21 18l-2 -2l25 18l8 8q70 60 88 68l8 6q4 3 31 12h4q0 3 2 3q11 7 30 14t24 10l16 4q43 17 45 17l59 14l33 10h78 q28 4 57 4q7 0 31 4h98q34 0 84 -4q49 -17 62 -28l-2 2l18 -13l35 -28q1 -1 3.5 -6t4.5 -7l6 -8q22 -28 27 -51q2 -12 2 -31q0 -1 1 -6.5t1 -11.5v-12q0 -3 -1 -13t-1 -14q-3 -23 0 -33v2q8 -32 8 -41v-12q0 -21 -4 -33v-4q0 -2 -0.5 -12t-1 -25.5t-0.5 -29.5q0 -2 -1 -6 t-1 -5q-5 -19 -2 -35v-8q1 -5 3.5 -15t2.5 -13q0 -16 -6 -31v-4q0 -3 8 -23q4 -54 4 -92q-2 -56 -2 -108l-8 -146l-8 -22q-1 -2 -3 -6.5t-3 -6.5q-3 -3 -8.5 -8t-8.5 -8q-4 -4 -12 -8.5t-15 -7.5l-6 -2q-18 -5 -37 -6.5t-43.5 2.5t-42 24t-20.5 55q-5 25 0 64v45q0 37 2 47 q0 3 1 11.5t1 17.5q4 62 4 204v29q-1 4 -2 55l-2 50q2 6 2 20v53q-3 6 -8 31q0 5 -16.5 21.5t-55.5 33t-86 13.5q-43 0 -110 -9q-9 9 -111 -30h-4q-12 -5 -29 -9q-8 -2 -20 -14l-66 -43l-22 -22l-19 -19l-51 -55q-7 -4 -21.5 -26.5t-19.5 -35.5q0 -8 -4 -16q-4 -9 -16 -57 l-10 -33l2 4q-1 -3 -4.5 -11.5t-6 -19.5t-4.5 -28q-4 -18 -4 -54v-67q0 -3 1 -12t1 -13q0 -23 2 -37q3 -15 13 -51l4 -18q1 -4 16 -49v2l4 -9q13 -22 23 -36l43 -56q2 -4 7.5 -9t15 -14t16.5 -16q4 -8 25 -23t36 -22q1 -1 10 -5t20 -9t15 -8l37 -17q70 -34 131 -39 q9 -2 47 -2h21q29 0 73 7q60 4 111 26l33 12q8 2 18.5 9t13.5 8l11 6l90 57q10 4 24.5 20t22.5 21q23 23 63 23h9q16 0 41 -6q21 -12 34 -31l10 -20q4 -5 7 -11q9 -32 6 -45q-1 -8 -4 -15.5t-6 -11.5t-8 -11t-7 -11l-22 -20l-37 -33q-21 -17 -29 -29q-27 -28 -45.5 -61.5 t-25 -65.5t17.5 -50.5t80 -12.5q16 4 31 4h32q15 0 27 2h80q20 -2 59 -2q77 0 156 -13q4 -2 18 -2q54 -9 58 -10q74 -17 147 -47h4q9 -4 23.5 -9t19.5 -7l27 -9q28 -12 80 -30l53 -21l-2 2q91 -34 108 -39h-4q48 -10 82 -24h-6l154 -35l71 -14q23 -2 64 -2h47q47 -6 100 0 l52 10l36 8l-4 -2q12 3 84 29q30 11 37 16l39 25q45 21 80 10q42 -17 53 -33z" />
<glyph unicode="M" horiz-adv-x="2428" d="M2265 1257l-8 -92v-26q0 -5 1 -16.5t1 -16.5q0 -31 -2 -43q0 -3 -1 -11t-1 -12q0 -35 2 -55q4 -52 2 -67q-2 -4 -2 -9v-14q0 -8 1 -26t1 -27v-320q0 -41 -2 -55q0 -7 -1 -18t-1 -17q-2 -28 2 -70q0 -6 1 -18t1 -16q0 -5 -1 -16t-1 -15q-2 -14 -2 -31v-30q0 -1 1 -6t1 -7 v-219q0 -9 -1 -27t-1 -28v-90l-4 -31q0 -8 -2 -18q-21 -70 -64 -80q-24 -3 -45 0h-6q-50 0 -73.5 41.5t-14.5 85.5v34q4 13 4 29v49v29v43v117v-2q-4 50 -4 84q0 20 2 30q4 66 4 97q-2 2 -2 16q-4 24 -4 39q0 2 1 7.5t1 8.5q0 61 -17.5 93.5t-45 28.5t-56.5 -42 q-6 -9 -12.5 -20t-9.5 -15l-13 -22l-8 -15l-16 -20q-3 -4 -15 -16q-40 -70 -122 -70q-2 0 -11.5 1t-11.5 1l-6 2q-26 0 -45 8q-52 34 -62 49q-2 2 -5.5 6t-4.5 5q-10 10 -16 30q-8 8 -8 13q-39 55 -47 69l-19 29q-22 27 -53 28t-53.5 -17t-24.5 -42q0 -19 -4 -59q0 -1 -1 -3 t-1 -3q0 -26 -12.5 -53t-34.5 -35l-13 -7q-17 -9 -40.5 -10.5t-47 6t-39.5 30.5t-16 58q-4 62 -4 82q2 25 2 43q0 122 4 179v71q0 4 -1 9.5t-1 9.5q-2 8 -2 26v92q-2 0 -2 19q0 38 -10 88q-3 38 -27 68q-14 27 -14 36q-4 9 -21 23l-16 20l-29 31q-1 0 -2 1t-4 2.5t-6 2.5 q-23 18 -45 27q-89 33 -148 33q-42 0 -163 -25h-9q-5 -1 -13.5 -5t-10.5 -5h2q-17 -6 -23 -12l-32 -17q-9 -6 -15 -8q-16 -16 -32 -16l-43 -43q-6 -4 -21 -19l-18 -16q-13 -10 -41 -49h-2q-7 -17 -39 -58v2q-38 -57 -39 -59l2 6l-6 -16q0 -1 -10.5 -24.5t-16.5 -43.5 q-16 -47 -22 -88q0 -3 -2.5 -14.5t-2.5 -14.5q-5 -42 -8 -53q0 -15 4 -43q0 -4 1 -13t1 -11q0 -4 1 -13.5t1 -13.5q0 -12 5 -47q2 -13 4 -22t2.5 -11.5t1.5 -5.5l2 -6l8 -31q2 -11 6 -22t10.5 -24t8.5 -19l6 -11q3 -4 4.5 -9.5t3.5 -8.5q5 -10 8 -10l2 -7l19 -28 q2 -2 13 -14t23.5 -24.5t22.5 -21.5l35 -36l14 -11q37 -41 66 -53l18 -8l33 -10l19 -9q19 -9 38 -16q11 -5 66 -18q37 -15 98 -21q24 -5 47 -2q3 0 16.5 1t20.5 1q45 0 92 8h21q38 4 69 15q28 6 41 14q29 15 45 20q37 8 60 21q6 2 16 8l16 14q16 4 37 21l27 20l33 23l37 37 q37 22 71 22q33 0 51 -12q8 -4 23 -14q35 -25 43 -49v2q9 -24 4 -47q0 -7 -2.5 -14t-5 -12t-8 -12t-8 -10.5t-9 -10.5t-8.5 -9q-5 -4 -33 -25l-20 -14l-19 -16q-22 -22 -32 -27l-9 -8q-32 -34 -53.5 -97.5t-21.5 -91.5q0 -5 -1 -14t-1 -14q0 -37 -2 -47q-6 -31 -23 -56 q-9 -9 -19.5 -15t-16.5 -8.5t-17.5 -5.5t-16.5 -5h-18q-1 0 -4 -1.5t-4 -1.5h-12q-48 7 -66 48q-2 6 -6 13.5t-4.5 8.5t-2 11t0.5 20q1 45 -56.5 74.5t-93.5 25.5h-94q-4 0 -14 -1t-15 -1h-51q-24 3 -49 10l4 -2l-35 9q-3 0 -11.5 2t-10.5 2q-9 1 -60 10l2 -2q-13 3 -26.5 8 t-33 13.5t-30.5 13.5l-6 2q-3 2 -7 3t-7 3q-77 29 -111 51q-15 9 -51 37l-61 45l-23 22q-4 4 -19 18t-24 24t-16 20q-55 47 -87.5 115t-58.5 159q-15 30 -18 72q-10 55 -10 109q0 77 4 112q1 33 12 115l14 35v-2q19 59 21 71q32 79 49 109q40 70 57 92l56 61l20 23 q31 36 45 47l21 16l-5 -2q44 33 54 39q13 11 45 33q17 8 39 27l43 16l-6 -2q26 15 55 25q20 8 33 11t18 5l35 12l35 6l45 7q40 4 82 4q33 0 65 -4l37 -7q3 0 9.5 -1t8.5 -1q9 -2 36.5 -11t39.5 -13h-4l37 -12l57 -25q29 -17 39 -23l66 -49l15 -14q16 -13 22 -21 q61 -61 77 -102q14 -18 23 -41v2q1 -1 2 -4.5t3 -7.5t5 -8q30 -60 78 -117l53 -109l41 -57q45 -85 51 -92l13 -16q32 -47 66 -63t60 -8t49.5 28t35 37.5t16.5 27.5q6 18 12 27q2 6 13 20q1 2 22 43l15 37q9 31 32 78l-2 -4l25 59l18 41q1 4 5 13.5t6 17.5q7 29 15 53 l11.5 34.5t3.5 18.5q4 22 10 41l7 21q4 8 4 14l14 25q1 2 3.5 6t4.5 7t4 5q34 49 84 49q35 0 49 -6l17 -8l18 -14h-2q20 -13 31 -43q6 -30 6 -91z" />
<glyph unicode="N" horiz-adv-x="2084" d="M1968 1237v-31l-6 -114q0 -9 1 -27.5t1 -28.5q0 -8 -1 -27.5t-1 -27.5q-2 -18 -2 -47v-76q0 -6 -1 -35.5t-1 -48.5q-8 -107 2 -178q2 -12 2 -35q0 -43 -2 -82q-4 -78 -4 -92v-74q2 -20 2 -77q0 -74 -2 -109q-2 -31 -2 -84v-47q0 -7 1 -24t1 -25v-86q0 -1 -1 -9t-1 -12 q0 -22 -6 -37q-20 -42 -62 -59q-23 -10 -55 -10q-39 0 -66 35q-2 8 -14 20q-6 24 -6 37q0 1 -1 4t-1 4v12q0 52 -6 82q0 4 -1 15.5t-1 15.5q0 11 -4 39v-2q-13 48 -15 53q-6 10 -18 45q-8 24 -17 33l2 -2l-20 35q-18 26 -33 55l-47 68q-15 31 -35 51l2 -2l-22 26l-37 54 l-27 32q-20 36 -70 77t-100 53.5t-71 -44.5q-2 -10 -2 -26v-72q0 -20 -15 -46t-35 -34q-13 -7 -39.5 -4t-53 10.5t-46.5 35t-20 69.5q4 16 4 26v15q0 3 1 14t1 19v47q-5 24 -2 43v-2l8 73v19q0 7 1 41.5t1 52.5v37q0 41 -8 88v-2q-13 70 -43 125l2 -2l-16 22q-22 37 -41 56 l-13 12q-19 19 -47 31q-69 43 -164 39h-20q-2 0 -12.5 0.5t-14.5 -0.5q-28 -9 -53 -13q-55 -28 -77.5 -40t-49 -30.5t-51.5 -43.5l-15 -15q-11 -9 -41 -46t-30 -44q-16 -19 -29 -49l-8 -16l-27 -82q-8 -49 -12 -72q0 -3 -1 -8.5t-1 -7.5q-4 -32 -4 -45q0 -3 -1 -11t-1 -12 v-68q0 -15 8 -73l6 -31l12 -37l7 -24l10 -43q13 -30 22.5 -49t23 -35t18 -20.5t26 -21.5t29.5 -24q12 -13 74.5 -52t88.5 -50q11 -5 52 -17l4 -2q0 1 17.5 -2t33.5 -6q8 0 20 -1t15 -1q48 -10 78 -10l135 16l41 12q5 -1 42 13t46 20q12 5 49 25t41 24l82 74q25 25 74 25 q29 0 51 -13q29 -14 37 -24q24 -34 20 -78q-1 -17 -12.5 -37.5t-26.5 -34.5q-31 -31 -43 -41l-41 -39q-29 -29 -49 -80.5t-20 -66.5q0 -20 -5 -35v-22v-19q0 -3 -0.5 -12t-1 -12.5t-2.5 -11.5t-4.5 -13t-7.5 -11.5t-12 -13.5q-28 -22 -60 -28q-44 0 -53 2q-45 18 -57 43 q-17 65 -71 92t-154 27q-26 0 -50 4q-4 0 -12 1t-12 1q-15 1 -38.5 4t-33.5 4l-45 14q-12 2 -20 4q-61 19 -119 45l-86 45h-2q-20 10 -41 31l-23 19q-16 12 -59 52.5t-55 53.5l-35 45q-18 21 -29 43q-22 27 -37 78l-2 4q-7 15 -10.5 26t-5 20t-2.5 13l-4 11l-21 98l-4 14 q-6 35 -6 84q-5 76 0 109q4 65 12 102q6 34 25 115q24 63 41 96v-2q17 38 53 90q3 4 8.5 14.5t7.5 14.5q15 25 33 47q6 6 19 18.5t24 22t21 16.5q3 3 7 8.5t7 8.5q64 58 143 98q71 33 115 43h-2q79 23 178 19h14q21 1 76 -11.5t68 -17.5h-2l39 -12l16 -7h-4q2 0 6.5 -1 t5.5 -1l37 -20v-2q31 -19 37 -21h6l14 -14q5 -3 27 -25q5 -9 10 -12q2 -2 9 -7t10.5 -8.5t10.5 -11.5t13 -18l13 -14l12 -17l35 -47q6 -12 20 -26l21 -23q22 -38 133 -186l51 -70q0 -6 4 -6l17 -23l8 -12l92 -119q2 -3 29 -30q82 -84 138 -53t50 161l4 31v45v43v53 q0 29 -2 45q-2 18 -2 58q0 23 4 51v39v65v23v22q19 56 51 72q33 10 64 10h12q38 0 61 -39h3l14 -14q12 -20 12 -43z" />
<glyph unicode="O" horiz-adv-x="1536" d="M1434 688q0 -19 -4 -43q-5 -30 -5 -41q-2 -12 -2 -33q0 -7 -1 -22.5t-1 -22.5q-4 -24 -4 -32l-4 -43l-6 -37q-4 -9 -8 -35q-7 -16 -10 -37q-5 -11 -9 -39q-6 -18 -6 -20l-16 -60l-37 -71l2 6l-10 -21q-8 -26 -37 -67v2l-19 -35l-14 -21v2q-20 -34 -33 -45l-8 -8l-14 -18 l-19 -19q-12 -9 -66 -57.5t-89 -63.5q-89 -30 -113 -36l-51 -9l-29 -4q-4 0 -13 -1t-13 -1q-28 -4 -35 -4q-23 0 -55 4q-14 2 -46 2q-66 4 -96 17q-41 20 -47 20l-10 4q-30 9 -47 23q-12 3 -19 10l-34 25q-12 10 -19 14t-17 11.5t-38 33.5q-23 12 -23 31l-10 8 q-33 49 -83 146.5t-60 136.5q-31 71 -31 98l-4 22q-9 29 -12 62l-3 10q-10 24 -14 47q-4 12 -4 29q-2 8 -2 35q-6 105 -6 121q4 46 6 67v-2l6 43l4 37q13 78 33 143q1 6 5 18.5t5 16.5q4 26 19 62v-3q2 5 43 84h-2q6 13 23 33t20 25l24 33q18 24 47 53l43 41l25 24 q24 18 25 19q12 12 32 20q11 5 23 13q14 8 16 12l82 43q27 8 41 12l18 6q9 4 15 8l33 15q50 4 57 4q39 8 98 0q52 0 88 -10l72 -25q22 -9 34.5 -15.5t19 -11t9.5 -6.5l7 -6q32 -16 69 -41l27 -24l33 -27q4 -7 20 -23l35 -34q2 -2 10 -16t12 -19q16 -24 25 -33l33 -61 q21 -38 31 -76l8 -14q15 -25 22 -54q8 -21 21 -75q1 -2 3 -11t5 -20q7 -30 10 -45l4 -27v8q4 -13 8 -55q0 -4 1.5 -13.5t1.5 -13.5q4 -28 4 -53zM1221 553l4 205l-8 45q-11 40 -11 49q0 8 -4 20q-2 8 -4.5 21.5t-3.5 15.5l-12 37q-2 5 -21 39l-18 35l-13 24l-16 39 q-26 43 -47 64l-25 22l-10 9l-47 47q-41 28 -92 47h2q-3 1 -34 9.5t-48 12.5q-34 0 -74 -8h-6q-32 -11 -61 -16l4 2q-3 -1 -47 -23l-70 -39l-18 -10q-23 -13 -39 -29q-16 -10 -27 -28l-26 -27q-4 -5 -15 -16.5t-20 -21.5t-15 -19l-18 -29l-19 -31v2l-24 -51l-4 -20 q-12 -30 -23 -76q0 -11 -4 -23q-6 -22 -5.5 -50t9.5 -59t30.5 -52t58 -29t92.5 10q12 4 57 8q2 0 7.5 1.5t8.5 1.5q39 4 74 0l43 -11q8 -4 10 -4q26 -4 37 -8q54 -16 68 -33l10 -8l37 -23l57 -61l17 -27q40 -67 40 -81q3 -15 3 -41v-9q2 -19 -3 -59q-2 -9 -14 -39l-2 -14 q-9 -30 -24 -51l2 4q-18 -47 -58 -76l-10 -8q-39 -30 -90 -47l-37 -5q-9 0 -39.5 8.5t-34.5 12.5q-22 12 -33 35q-14 17 -20 49q0 65 45 90q12 6 37 7t37 7q26 13 38.5 47t-3.5 56l-9 12q-29 32 -30 35l-2 2l-9 6q-2 2 -10 8q-8 8 -35 19q-16 2 -30 4h-54q-7 -1 -21.5 -5 t-21.5 -5q-7 -2 -10.5 -5t-5.5 -4l-27 -18l-36 -45q-1 -2 -9.5 -14t-9.5 -14t-7 -11.5t-7 -14t-4.5 -14t-5 -18.5t-2.5 -21v-12v-33q0 -62 51 -135l18 -22l-2 2q16 -24 25 -33q87 -59 118 -66q17 -4 29 -6h2q17 0 33 -4q4 -2 16 -2h84l92 18h-2l33 9q27 7 51 28l7 4l6 5 l39 32l26 27q38 38 41 53q5 5 7 8.5t2 4.5t1 2l15 22l12 12l18 39l15 25l12 22q2 6 9 20.5t10 22.5q0 13 2 17l8 20v6q3 8 14 64q0 2 2 8.5t2 7.5q8 22 12 49q5 40 5 43q0 4 1 12.5t1 12.5z" />
<glyph unicode="P" horiz-adv-x="1415" d="M1305 879q0 -13 2 -19q2 -18 -7 -143q0 -4 -2 -13t-2 -12q-4 -38 -8 -55q-5 -30 -22 -80q-15 -52 -31 -80l-6 -14q-5 -8 -10.5 -17t-10.5 -19.5t-8 -14.5q-1 -1 -7 -13l-5 -9v1q-3 -4 -9 -13.5t-12.5 -18t-13.5 -17.5q-9 -9 -63 -57h2q-12 -9 -37 -25.5t-51 -32.5 t-31 -20l-68 -37l-24 -8q-21 -3 -58 -25q-8 -2 -10 -2q-20 -5 -40.5 -15t-49 -30.5t-47.5 -57t-21 -83.5v-33q0 -25 -4 -53q-2 -14 -2 -37v-66q0 -2 -1 -5t-1 -5v-2q0 -21 -17.5 -63t-49.5 -47q-20 -5 -45 -5h-13q-23 0 -51 23t-33 70q2 47 2 65v84q0 9 -1 27t-1 28 q0 40 2 54q0 9 1 25t1 24v67q-4 24 -4 45v9q-6 80 2 102v-2q11 35 38.5 50.5t56.5 15.5t68.5 1.5t62.5 8.5l8 2l39 4l30 4h-4l41 8l29 6h-2q37 13 90 52l23 16l24 16l10 4q28 19 62 62l14 18q3 3 5 5.5t4.5 6.5t4.5 7q15 24 46 121q2 14 2 40q0 2 1 7.5t1 7.5l4 18 q6 21 6 45v62l-6 30q0 13 -12 58t-31 86q-7 11 -23 33t-20 28q-9 12 -39 41.5t-43 40.5q-100 62 -144 72q-23 6 -84 6q-47 0 -63 -4l-119 -31q-14 -5 -50.5 -26.5t-47.5 -32.5q-37 -24 -66 -64l-4 -8l-22 -31l2 4q-12 -18 -23 -40q-13 -29 -20 -78q0 -3 -1 -11t-1 -10v-4 q-6 -25 -4 -37q0 -1 4 -51q1 -11 4 -22t7.5 -24t6.5 -19l8 -21v2q12 -30 54.5 -66t62.5 -45q26 -10 74 -20q18 -2 76 -2q45 10 65 18q42 21 60 45q2 2 2 5l2 6q0 6 4 10q9 20 18 61q4 18 0 31q0 15 -12 33q-16 13 -29.5 40.5t-13.5 43.5q0 43 33 72q29 26 71 26q34 0 72 -31 t55 -63v2q17 -33 27 -84q10 -39 0 -82v-8q-4 -32 -10 -57l-6 -19v2l-13 -45q-25 -50 -31 -59q-17 -21 -49.5 -48.5t-56.5 -41.5q-42 -19 -51 -21l-84 -22q-43 -13 -70 -15q-48 0 -71 2q-3 0 -54 15h-10q-71 22 -133 49q-37 19 -64 41q-10 10 -44 50.5t-40 49.5 q-11 19 -20 45q-1 7 -5.5 15.5t-4.5 9.5q-16 48 -23 102q-10 55 -10 103q0 42 8 100q6 29 14 51l7 21q10 28 28 57l-2 -2l6 12l15 25q6 19 63 96q15 18 45 39q1 2 5 4t6 4l24 23q4 2 37 24l12 8l45 31q16 8 43 19.5t72.5 26t77.5 18.5q100 8 143 8q44 -4 70 -8l65 -19l33 -8 h-2q5 -2 21.5 -8.5t23.5 -9.5l12 -9q26 -10 45 -24l19 -13q18 -17 20 -16q7 -6 19.5 -15t20.5 -15.5t12 -10.5q9 -7 65 -63q1 -2 18.5 -26t24.5 -36l14 -18l33 -66q42 -127 50 -154t8 -44z" />
<glyph unicode="Q" horiz-adv-x="1529" d="M377 -125l4 -2zM1921 -330v2q-15 -18 -39 -24l-16 -15q-87 -28 -113 -32l4 2q-45 -11 -110 -11q-49 0 -80 5q-6 2 -19 2q-33 4 -61 16q-30 9 -80 39q-16 8 -68 41l-63 47q-92 70 -186 70q-54 0 -121 -27l-58 -16h-8l-110 -21h-21q-14 0 -53 -1t-51 -1q-44 2 -160 41 q-25 7 -68 33l-8 10q-7 5 -20.5 17t-23 20t-11.5 8l-15 16l-26 31l-29 29q-36 62 -58.5 102t-26.5 49l-5 9q0 5 -10 18l-10 18l-13 23l-12 41l-6 22l-12 23q-1 3 -4 7.5t-5.5 11.5t-5.5 18l2 -4q-13 41 -16 61l2 -2l-16 64q-2 12 -2 47q0 4 -1.5 7.5t-1.5 6.5l-6 31l-4 35 q-7 63 -4 114v35v82q2 14 12 43l7 43q11 55 24 96l8 27q6 26 21 61q17 38 43 80v2q15 30 49 78q12 16 47 47l23 25l39 37q29 20 43 34l10 7l14 12q10 13 29 24l63 39l27 11l16 4q16 10 58 24h-2q48 16 59 17l18 4l-12 -2q15 3 43 8q32 4 64 0q5 0 15.5 -1t14.5 -1 q6 -2 23 -2q26 0 80 -14l61 -25q38 -16 72 -37q51 -20 72 -39q35 -28 59 -55l29 -31l20 -24l10 -15q15 -21 31 -43t22.5 -31.5t12.5 -19.5t10 -18l21 -48l10 -30v2l6 -17v5q3 -9 12 -31t10 -31q5 -12 11 -38t8 -32q0 -1 1 -4t1 -4q5 -25 6 -26q12 -32 12 -41l5 -43 q0 -9 4 -29q2 -27 2 -82q0 -59 -2 -84v-74q0 -28 -7 -59q-4 -12 -4 -16l-4 -29q-12 -78 -28 -127v2q-2 -8 -19 -47l-8 -23l-6 -26q-35 -119 -35 -160q0 -63 41 -102q20 -29 74 -66l8 -8l45 -29q26 -13 53 -22q9 -7 37 -11l10 -6l13 -6h47q4 0 28 4q3 0 7.5 1t7.5 1 q56 10 102 31q21 2 31 2q1 0 8.5 -1t9.5 -1q20 -5 39 -20l-4 2q37 -20 55 -60q8 -49 -14 -82zM1208 418l6 28q9 23 9 37q0 17 4 37q0 4 2 14t2 15q0 3 -1 7t-1 7v15q4 11 5.5 25t1.5 21.5t-1.5 28t-1.5 23.5q0 54 -2 74q-1 7 -4.5 25.5t-5.5 31.5q-9 27 -11 55l-10 37 q-4 16 -14 39q-4 13 -8 35q-11 33 -19 49q-19 33 -22 37l-13 18q-32 50 -51 74q-9 8 -20.5 21t-12.5 14q-18 15 -45 33q-32 21 -96 47q-42 13 -82 18q-43 6 -80 -2q-12 0 -18 -6q-18 -7 -37 -12v2l-23 -6l-4 -3q-7 -1 -8 -2q-6 -5 -32.5 -20t-30.5 -18l-17 -13h2 q-36 -14 -63 -37l-2 -2q-18 -15 -37 -37q-1 -2 -3.5 -4.5t-2.5 -3.5q-27 -36 -51 -63l-21 -29q-11 -11 -22 -33q-4 -6 -13 -34q-2 -5 -5 -16.5t-5 -16.5l-8 -27q-18 -48 -23 -74q-10 -57 -1.5 -94.5t25.5 -59.5t45 -30t56.5 -6.5t59.5 10.5q30 8 77 12q21 1 80 -8.5 t82 -17.5q33 -11 97 -51l12 -9l80 -90q38 -68 41 -84l4 -30v-17q14 -85 72 -93q54 -8 107 51q41 44 58 108zM852 70h-49q-8 1 -29 -4.5t-26 -8.5q-56 -8 -78 4q-26 10 -45 35q-19 30 -21 64q-3 28 11 52.5t36 35.5q15 8 46.5 14t45.5 14l2 3q8 4 11 10q10 23 12 41 q2 8 -4 26q0 16 -8 21q-6 11 -15 20.5t-18 16.5t-10 8q-10 5 -13 8q-76 33 -116 25q-3 -1 -14.5 -3t-16.5 -3h2l-16 -7l-25 -14l-16 -14q-16 -9 -47.5 -53.5t-44.5 -96.5q-8 -48 34 -143l21 -35q21 -28 43 -47l16 -16q6 -5 13.5 -13t13 -13.5t8.5 -6.5q41 -21 74 -27 q4 -2 14 -2q2 0 6 -1t6 -1q17 0 31 -4q4 -2 19 -2q27 -7 57 -3l29 5q22 5 37 8t20 3t10 1t12 4q54 32 50 52.5t-36 37t-32 9.5z" />
<glyph unicode="R" horiz-adv-x="1417" d="M1948 -309q32 -64 32 -140q0 -31 -6 -61l-10 -29v2l-16 -49q-20 -47 -45 -80l-37 -39q-18 -20 -58 -51l-4 -4q-1 -3 -9 -9.5t-11 -8.5t-31 -13l-18 -4l10 2l-16 -8l-23 -6l-14 -4l-33 -10q-33 -6 -107 2h-4q-41 0 -61 4l-33 10h2l-26 10q4 -2 -3 -2q-12 2 -45 21l-47 22 l-12 9q7 -7 -4 0q-5 2 -16 9q-14 8 -19 11q-43 30 -55 49l-25 23l-12 16l-21 21q-6 6 -11.5 13t-8.5 10.5t-6 6.5l-12 15l-9 10q-10 8 -20 24l-29 48q-2 2 -18 26q-16 20 -25 37l-26 53q-2 3 -9.5 17t-9.5 20q-2 4 -3.5 8.5t-2.5 9.5t-2 7l-14 22q-2 4 -10.5 17t-10.5 20 l-31 57l-43 107l-14 29l-22 47q-32 64 -57.5 94.5t-60.5 55t-57 46.5q-48 60 -12 135q10 21 46 35t46 11q31 -3 56 0q26 3 71 18l62 35l98 86l16 18q7 7 13 19q13 21 45 121q2 8 2.5 21.5t1.5 18.5q0 2 1 7.5t1 7.5l4 18q6 21 6 45v62l-6 30q-2 8 -6 35.5t-12 51t-27 57.5 q-15 25 -43 61q-17 26 -80 82q-100 63 -143 72q-25 6 -84 6q-50 0 -64 -4l-37 -8l4 2q-63 -12 -86 -25q-15 -5 -51.5 -26.5t-46.5 -32.5q-33 -20 -65 -64l-4 -8l-25 -31l2 4l-20 -40q-8 -17 -16.5 -56t-4.5 -53q0 -3 0.5 -9l1.5 -18t2 -22q0 -36 12 -66l9 -20v2 q11 -30 53 -66.5t63 -44.5q28 -11 72 -20q20 -2 76 -2q36 7 67 18q42 24 60 45q2 2 2 4l2 6q0 7 4 11q7 22 16 61q4 18 0 31q0 2 -1 7.5t-1 6.5t-1 3t-1 3q-2 0 -6 11l6 -9l-8 11q-16 13 -28.5 40t-12.5 44q0 45 33 71q27 27 72 27q33 0 71.5 -31.5t53.5 -62.5v2 q19 -32 26 -84q10 -39 0 -82v-8q0 -25 -8 -58l-6 -18v2l-15 -45q-18 -44 -30 -60q-14 -20 -47.5 -47.5t-59.5 -42.5q-31 -15 -49 -20l-20 -6h2q-34 -14 -70 -19q-34 -9 -66 -12q-51 0 -71 2q-7 1 -17 3.5t-21.5 6t-16.5 4.5h-9q-49 14 -135 50q-39 23 -61 41q-11 10 -45 50 t-41 50q0 1 -7.5 17.5t-11.5 27.5q-2 7 -6.5 15t-5.5 10q-15 53 -21 102q-6 33 -6 102q0 49 4 68q5 24 15 51l4 21q5 14 31 57l-2 -2l4 12l14 25q12 24 63 96q21 22 46 39q2 2 6 4t6 4l24 23q6 3 18.5 11.5t18.5 12.5l13 8l43 31q131 57 194 64q92 8 143 8q52 -5 68 -8 l66 -19l32 -8h-2q4 -2 21.5 -8.5t23.5 -9.5l15 -9q25 -11 45 -24l18 -13q17 -18 19 -16q1 1 2 0q50 -40 51 -41q33 -30 63 -63q10 -12 45 -62l15 -18l33 -66l26 -65l4 -15l-2 13q12 -37 25 -92q0 -1 1 -13t1 -26q0 -4 1 -9.5t1 -9.5q2 -33 -6 -143q0 -4 -2 -13t-2 -12 q-1 -9 -3.5 -27.5t-3.5 -27.5q-6 -36 -24 -80q-18 -60 -29 -80l-8 -14q-26 -47 -29 -51q-1 -1 -7 -13l-5 -9v1q-16 -28 -35 -49q-19 -22 -63 -57q-14 -10 -28 -24.5t-31 -39t-24.5 -58t-0.5 -69.5q1 -1 3 -7t3 -7q8 -23 18 -41l23 -64q23 -45 24 -51l21 -33l14 -30 q1 -7 19 -45t24 -47l27 -52l2 -4l-2 2l41 -59l35 -59l-2 2q14 -23 26 -35q15 -18 21 -27l6 -8l16 -10l45 -51l15 -15q26 -18 45 -28q16 -12 63 -23h-2q37 -11 43 -14l27 -6q4 -4 82 22l39 10l22 27l-2 -2l14 16l-6 -20q0 1 2 3t2 3q9 25 29 43l2 4q4 4 9.5 14t8.5 18l3 7v57 l-4 10l2 -6l-5 4l-8 13q-28 32 -22 73q4 45 41 72l16 8l6 2q31 10 62 7q42 -10 61 -39q16 -19 23 -37zM1776 -422l-7 14l5 -6zM1776 -416l-2 4v-2zM586 225v-12q0 -3 1 -11.5t1 -11.5q-2 -12 -2 -30v-203v-47v-109q0 -2 -1 -5t-1 -5v-2q0 -6 -3.5 -21t-11 -35t-22.5 -36 t-33 -19l4 3q-21 -7 -47 -7h-12q-22 0 -50.5 23t-35.5 70q2 47 2 65v84q0 9 -1 27t-1 28q0 40 2 54q0 9 1 24.5t1 24.5l2 65q-2 27 -2 37v14q0 87 8 105q15 44 35.5 60t79.5 16q16 0 20 -2q26 -13 53 -50q18 -32 13 -94z" />
<glyph unicode="S" horiz-adv-x="1419" d="M1317 379v-10q0 -1 1 -3.5t1 -3.5v3q4 -58 -10 -172l-2 -7q0 -32 -19 -96q-5 -22 -8 -31.5t-5 -12t-7.5 -10t-12.5 -20.5q-6 -17 -43 -61l-26 -29q-10 -7 -15 -14l-12 -10q-5 -7 -12 -14t-17 -16t-16 -15l-20 -15l-23 -16l-20 -16l-2 -5l-56 -38l-26 -11h2l-27 -10 l-18 -10l-19 -4l10 2l-20 -6h2q-3 -1 -23.5 -9t-31.5 -10l-41 -4q-20 -1 -27 -2q-4 0 -12 -1t-12 -1h-15q-8 -2 -30 -2q-28 -4 -52 -4h-18q-41 0 -76 14l-96 21l-29 10q-16 5 -20 8q-48 18 -73.5 32.5t-57.5 39.5l-72 55q0 2 -2 2q-9 13 -26.5 34t-24.5 32q-25 41 -37 63v-2 q-2 5 -13.5 28.5t-17.5 37.5l2 -2q-21 60 -26 82q-6 24 -13.5 81t-7.5 91q2 32 6 58.5t10.5 51t9.5 35t12 33.5t9 24l-2 -8q4 8 4 12q22 57 37 76q115 154 309 213q20 6 86 6q55 0 92 -8q32 -8 48 -12.5t17 -5.5l2 -2t3 -2h-6q4 0 8 -1l4 -1l35 -17h-2q28 -8 45 -20 q51 -32 74 -66q6 -12 10 -18l23 -35q25 -51 32 -148q0 -1 -1 -11t-1 -19q-6 -38 -22 -97q0 -14 -6 -20q-8 -20 -41 -56.5t-68 -62.5q-65 -38 -104 -43v-2h-45q-25 0 -88 19q-44 10 -86 41l-11 12q-22 21 -30 32.5t-33 57.5q-6 9 -6 18v19v8q0 7 1.5 17.5t12.5 30.5t29 30 q34 18 57 18q55 2 82 -67l37 -41q22 -11 30 -11q25 0 49 17t33 41q9 9 27 80q-11 37 -25 57q-3 6 -17 21.5t-23 21.5q-22 22 -119 33h-21q-55 -4 -125 -31q-41 -25 -45 -29q-13 -6 -34.5 -33t-36.5 -57q-31 -92 -29 -98q-8 -33 -8 -84q0 -87 24 -147q13 -28 35 -62 q3 -6 4 -6q20 -30 49 -59q6 -4 22.5 -17.5t22.5 -17.5l15 -8q42 -34 80 -50l10 -4l32 -14h-1q56 -14 90 -16q12 0 16 -2h8q1 0 7 1t8 1h12q2 0 10.5 1t11.5 1q10 -2 25 -2h18q27 5 41 10l4 2l19 6q8 0 12 2h6q4 0 7 1.5t7 4.5t7 4l74 37h-2l20 17l18 12q16 15 23 20 q63 48 89 98.5t42 143.5v76q0 32 -8 67l2 -2q-11 25 -19 43l-12 33q-31 105 -180 246q2 -2 1 -2q-10 4 -36 26q-65 52 -74 62q-39 27 -79 67q-5 5 -52 46l-8 10q-6 6 -6 10l-8 8l-13 12q-31 35 -51 68q-8 8 -8 21q-5 8 -27 79v58q2 44 27 121q21 39 72 86l12 10q44 35 76 43 h-4q52 18 98 18q71 0 162 -39l-2 2q21 -9 67 -49l9 -8q74 -77 55 -190v2l-4 -15q-1 -4 -5.5 -19t-7 -23t-10 -21t-16.5 -25l-51 -55q-34 -27 -68 -27q-23 0 -63 31q-37 56 -33 74q2 34 33 65q10 5 28 37q1 5 0.5 9.5t-1.5 10.5t-1 7l-22 16q-11 11 -41 17h-43q-26 0 -39 -21 q-18 -18 -21 -33q-4 -24 0 -63q4 -17 25 -49l10 -11l31 -34l39 -39l61 -54q40 -36 125 -102q36 -24 55 -47l15 -12q2 -8 10 -15h2l10 -12q8 -4 25 -31l27 -34q10 -10 38 -52l13 -18l6 -14l10 -19l10 -24l9 -17q15 -27 34 -91.5t23 -90.5z" />
<glyph unicode="T" horiz-adv-x="1458" d="M1745 1556l10 -24q1 -2 3 -5l1 -3q13 -23 13 -37q9 -18 0 -39l-11 -35l-8 -22l-6 -11l2 13q0 -2 -1 -5t-1 -4t-1 -3t-1 -3q0 -23 -10 -37l-31 -38l-33 -35q-42 -42 -67 -62l-52 -18l-28 -12q-29 -12 -58 -19q-146 -17 -200 -88.5t-54 -226.5q0 -7 1 -23t1 -22 q0 -3 1.5 -7t1.5 -6q0 -6 -1.5 -23.5t-1.5 -23.5v-16v-25q0 -6 1.5 -20t1.5 -17q1 -43 -3 -78t-4 -38q0 -7 1 -19.5t1 -19.5v-37l-4 -43q-2 -8 -2 -21q-6 -35 -36.5 -55t-65.5 -20q-38 0 -66 21t-32 61q-4 27 2 45q0 3 1 9t1 9q4 11 0 19q0 4 -1 14t-1 14q0 12 1 24t1 15 q2 6 2 41t2 47l2 4q2 8 2 13q-6 13 -6 69q0 63 2 88q0 9 1 20.5t1 14.5q0 49 -2 74q-6 108 -58 169.5t-147 61.5q-40 0 -95 -8.5t-87 -24.5q-40 -10 -82 -41q-59 -44 -76 -65l-25 -25l-28 -30q-53 -72 -84 -170.5t-31 -192.5q0 -40 6 -86q0 -25 10 -55l2 -12q2 -16 21 -54 l6 -12l-4 4l6 -10l10 -14l11 -17q69 -88 136 -135.5t163 -73.5l14 -4q7 -1 20.5 -4.5t22.5 -5.5q29 -2 80 -2q12 0 37 1t39 1h8q64 13 67 14q11 4 38 15.5t40 17.5l10 2q23 10 29 12h4q0 2 2 2q7 7 15 11l6 4l33 20l38 33l9 8l22 19l12 12q25 22 66 22q29 0 43 -6h-2 q18 -6 39 -39l18 -24q6 -16 6 -41q-9 -36 -30 -70q-4 -3 -12.5 -9t-12.5 -9l-20 -21l-37 -37q-58 -69 -58 -155l-2 -21l-4 -10q0 -1 -1 -7t-1 -7q-9 -31 -18 -43q-15 -19 -27 -25q-8 -4 -29.5 -8t-27.5 -4q-1 0 -4.5 1t-5.5 1q-14 0 -19 2q-16 2 -32.5 20t-20.5 21 q-11 8 -28 36.5t-41.5 44.5t-67.5 11h-54q-5 0 -14 1t-14 1q-4 0 -10 -1t-9 -1q-28 -4 -53 0q-23 0 -47 8l-22 6l2 -2q-5 1 -28.5 7.5t-37.5 9.5h2q-29 8 -98 35q-46 17 -92 51q-80 51 -93 63q-30 26 -73 80v-2q-58 70 -76 102q-4 6 -10 23q-10 13 -15 33q-11 27 -24 78v-2 q-3 18 -8 49q0 1 -5 26l-2 37l-8 62q0 71 4 102q13 87 39 195q7 44 35 98q43 89 119 172v-2q194 221 518 221q72 0 154 -10l32 -6q13 0 74 -9q8 0 21 -1t14 -1t12.5 -1t18.5 -1q25 -4 65 -4q35 0 55 2q5 0 18 -1t17 -1q15 -2 41 2q33 3 62 11l18 4q1 0 2 1t2 1q21 11 47 18 q24 6 47 23q31 26 35 32l13 17v6l10 23v6q0 2 1 5.5t1 4.5q0 23 8 33.5t25 19.5l14 17q48 25 82 18h-6q8 -4 16 -4z" />
<glyph unicode="U" horiz-adv-x="1927" d="M1796 592q-6 -65 2 -260v-27q0 -2 -1 -10.5t-2.5 -28.5t-2.5 -49q0 -10 1 -27t1 -20q0 -7 -6 -31l2 -6q0 -3 -4 -22t-9.5 -46t-7.5 -40q-7 -31 -11.5 -45.5t-6.5 -17t-6.5 -8t-9.5 -17.5q-17 -35 -37 -60q-66 -74 -150 -112.5t-170 -38.5q-187 0 -301 81l-24 19l-13 12 q-3 2 -8.5 6.5t-8.5 7t-7 7t-8 10.5q-35 30 -66 94l2 -2q-18 31 -55 53t-79 30.5t-68.5 11.5t-43.5 3q-31 5 -41 7q-20 4 -28 4q-50 4 -68 8l-29 6l-40 8l-84 33h-2l-99 47q-14 8 -43 33l-16 16l-55 45q-28 24 -54 58l-14 14q-18 7 -27 22q-11 14 -22 41q-16 16 -27 62v-2 l-4 20l-29 72l-16 78q-8 62 -8 96q-1 16 4 68q4 20 4 26q-3 21 13.5 89t34.5 128.5t18 61.5q7 16 45 78l10 16l-2 -4q87 111 239 192.5t301 81.5q60 0 117 -14q54 -17 68 -23l-2 3q80 -32 133 -78.5t78 -85.5l18 -43q18 -51 21 -80l-2 4q14 -47 16 -80q0 -5 1 -11.5t1 -11.5 q4 -32 4 -57q1 -20 -4 -160q0 -5 -0.5 -13t-1 -14t-0.5 -7q-2 -18 -2 -60v-69q4 -40 0 -76q-3 -18 -19 -47q-2 -1 -4 -3t-4 -3q-1 -1 -3.5 -4t-4.5 -5q-14 -9 -16 -10q-15 -5 -36.5 -5.5t-48 4.5t-46.5 27t-23 58v16q0 2 1 11t1 14v55l1 12q1 12 1 21q1 18 3.5 23.5 t2.5 23.5q0 8 1 25t1 28q-2 37 -2 121q0 15 -2 23q0 3 -1 10t-1 10q0 16 -8 72v-2q-15 88 -85.5 141.5t-168.5 52.5q-90 -1 -178 -47t-119 -77l-45 -46q-45 -50 -70 -141t-30 -153q0 -27 -2 -35v2q-2 -10 -2 -25q0 -4 1 -14.5t1 -15.5q10 -96 14 -107q4 -14 16 -33v2l11 -26 l-2 6l8 -19q35 -67 39 -69l49 -47h2q43 -39 82 -60q19 -11 84 -43h-2q22 -11 55 -22q6 -2 45 -8q4 0 14 -2.5t13 -2.5q10 -2 53 -2h20q53 0 82 7q52 4 80 10l12 4l44 16q2 1 8.5 6t13.5 9.5t12 7.5l41 20l41 31q4 0 6 2l9 4l8 6q8 4 12 8q2 1 10 9l4 4q5 4 27 26 q38 25 64 25q25 0 49 -12q5 -2 8 -3.5t6 -4.5t4.5 -5t4.5 -6.5l5 -7.5l6 -6q13 -19 17 -32.5t2 -41.5q-7 -33 -31 -59q-91 -68 -91 -168.5t52 -153.5l11 -8l12 -6l10 -6q3 0 9 -1t9 -1q51 -13 119 -17q56 -5 124.5 49t82.5 138q0 1 0.5 9t1 34t0.5 73q0 14 1 36.5t1 29.5 q2 48 -2 147q-4 78 -4 129q0 79 8 136q0 103 4 145v2q-2 8 -2 39v233q0 13 11 78q14 44 59 64q35 10 55 10q37 0 60 -33l8 -16q9 -9 22 -39v-21q0 -3 -0.5 -9t-3 -28t-4.5 -49q0 -3 1 -10.5t1 -11.5q0 -3 -1 -12t-1 -13q-2 -8 -2 -24v-326q0 -4 2 -14q2 -11 -2 -82z" />
<glyph unicode="V" horiz-adv-x="1705" d="M2535 1425v-16q0 -49 -6 -66q-4 -31 -16 -47q-7 -17 -21 -26l-2 -2q-11 -27 -49 -45q-17 -8 -49.5 -6.5t-44.5 20.5q-30 21 -43 55q-3 13 -2.5 25t2 19.5t7.5 19t10 17.5t14 20l2 6v16q2 44 -47.5 92t-132.5 52h-17l-72 -13q-6 0 -14 -4t-10 -4l-39 -27l-16 -14 q-13 -11 -27 -18l-20 -27l-25 -16l-35 -47l-6 -9l-6 -6l6 6l-8 -20l-6 -17l-23 -34q2 8 2 14l-4 -20q-2 -2 -2 2l-2 -9l-12 -24l-13 -25q-6 -12 -6 -14q0 -1 -1 -4t-1 -4q-8 -23 -16 -31q-11 -33 -19 -49l2 14l-2 -4q-5 -24 -19.5 -67t-23.5 -58q0 -2 -1 -5.5t-1 -4.5 q-1 -7 -5 -20t-5 -17l-10 -33l-10 -28l2 2q-8 -38 -19 -64v2l-16 -55l-37 -115l-6 -12v-6q-12 -25 -10 -27l-13 -39v8q0 -2 -1 -5.5t-1 -4.5l-4 -14q0 -1 -1 -5t-1 -5q-28 -100 -39 -131l-14 -58l-12 -53q-3 -13 -11 -35t-10 -29v3l-10 -43l-10 -46q-4 -8 -4 -16l-13 -37 l-4 -12l-6 -35v4q0 -2 -1 -7.5t-2.5 -13.5t-2.5 -14q-19 -57 -27 -75l-6 -25q0 -16 -2 -17q-1 -1 -2 -3q0 -1 -1 -5.5t-1 -5.5q0 -14 -6 -32q-5 -21 -8 -25l-9 -12q0 -2 2 -6q-2 -3 -8 -22t-12 -30q-13 -32 -49 -57l4 4q-8 -7 -30.5 -11.5t-31.5 -4.5q-45 5 -82.5 33 t-46.5 69v-2l-8 16l-8 27l-8 37v2q-10 12 -10 27q-5 33 -13 47l-4 30l-10 33q0 1 -1 4t-1 4q-3 29 -12 66q0 4 -4 8q-12 35 -13 35q0 1 -1 4.5t-1 5.5v-2l-8 39l-4 29l-6 43v-2l-10 39l-21 88q-5 13 -14 59l-13 53l3 -2l-9 29q-2 4 -6 27q-1 4 -10 22l-4 37q-6 9 -6 27 q-1 1 -19 71q-2 4 -6 30t-8 42l-14 33l-5 30q-5 27 -18 70q-2 7 -6 22l-3 10l1 -1l-6 20l-19 56q-16 59 -35 104v-2l-49 98l-22 29l-27 41q-5 14 -45 45q-20 15 -35 20l-12 11l-14 8q-105 47 -193 -8t-88 -174q0 -13 1 -22.5t5 -18.5t6.5 -14t10 -16.5t12.5 -19.5 q44 -35 88.5 -46t114.5 -11q1 0 4 -1t4 -1q47 -16 59 -27q20 -26 23 -55q2 -6 2 -22t-4 -27v4q-2 -16 -21 -39q-4 -6 -9.5 -10.5t-9.5 -7t-11 -5t-10 -3l-12 -2t-11 -1.5h-4q-36 -8 -58 -8q-16 2 -47 2l-14 4l-23 5l-41 6q-22 7 -30 12l-13 6h2q-52 22 -100 64 q-25 25 -57 73q-11 22 -33 76q-2 2 -2 6q-12 30 -14 45q-3 26 -0.5 80.5t8.5 75.5q14 53 31 92v-2q12 28 34 57l-2 -2l15 21l22 20l37 29l10 8q29 25 58 37l-7 -2q26 13 80 27q73 10 78 10q64 0 170 -27q24 -7 64 -30h-2q14 -7 59 -43l6 -5q29 -25 39 -41l10 -12l21 -18 q4 -5 12 -13t14.5 -15.5t10.5 -14.5l32 -43q20 -35 27 -49l20 -37l7 -15q13 -26 18 -41l6 -16l10 -22l7 -29q0 -2 8 -21l-2 4q13 -29 18 -55l4 -4q9 -14 13 -14q0 -2 1 -13.5t1 -13.5v-2q4 -7 16 -49l2 -12l6 -21q9 -28 14 -61q5 -15 5 -29q0 -4 4 -16l4 -23l16 -49 q3 -8 17 -72l4 -14l16 -59q0 -3 1 -10.5t1 -10.5v-4v4v-4q4 -27 8 -35l6 -35v-4v4v-4q3 -24 9 -35l12 -45l6 -34l4 -31q4 -17 19 -31t33.5 -19t38 11t30.5 53q15 62 20 78l9 31q0 18 4 26q11 26 16 54q1 8 10 34v-2l19 52q13 38 18 69q2 7 17.5 58.5t23.5 74.5q2 10 10 25v6 q4 17 11 35v-4q2 10 4 15.5t3.5 8t2.5 4.5l-2 -6q1 2 3 5.5t3 7.5v8l4 28q5 14 14 23l9 31q0 1 1 5t1 5l16 51l23 74l20 45q12 23 21 36.5t12 6.5v35q7 14 12 30q15 37 16 39q7 18 21 35l-2 -2l8 12l10 21l7 14q16 20 16 27l12 14l23 29l16 26q10 15 14 19q77 91 191 141h-2 l20 10l39 15q35 14 45 16q50 10 111 6q24 -6 49 -6l25 -8l16 -4q23 -5 35 -8h-4q9 -3 26 -15l31 -16l35 -16q23 -15 53 -50q25 -27 45 -63v2q8 -14 33 -72q18 -51 20 -82zM1921 1442q-4 -4 -4 -6l4 4v2z" />
<glyph unicode="W" horiz-adv-x="2291" d="M2138 1202q32 -29 19 -78v4q0 -1 -1.5 -4t-1.5 -4t-1 -6.5t-1 -7.5q-1 -7 -12 -43q3 4 1 -6q-1 -5 -3 -13q-17 -38 -27 -90q-2 -8 -5 -25t-5.5 -26.5t-7.5 -24t-12 -28.5q-9 -22 -21 -66l-14 -49l-14 -45q-13 -32 -15 -41l-6 -24l-10 -39l-6 -27l-13 -39l-30 -119 l-19 -57l-28 -113l-17 -43l-12 -30q-4 -20 -4 -23l-8 -31v2l-6 -26l-7 -25q0 -16 -8 -24q2 -7 0 -11q-25 -102 -117 -110q-69 -1 -97.5 26t-43.5 78l-4 13l-14 26l-13 41q0 12 -13.5 31t-33 32t-40 16t-36.5 -20t-20 -73l-8 -21q-4 -8 -4 -32l-10 -17q-2 -15 -13 -30 q-14 -28 -61 -48l-19 -14q-4 0 -12 -1l-8 -1h-2q-12 -4 -33 -4q-50 18 -81 48t-42 58q-1 4 -6 25q-11 41 -14 41l-6 12q0 5 -13 27l-12 31l-18 73q-1 5 -3.5 18.5t-3.5 18.5q-8 21 0 41q3 16 13 33l12 10q2 2 8.5 9t7.5 8q8 7 27 14q8 2 25 2h39q17 -4 32 -16q57 -40 97 62 q10 27 46 163q0 2 1 4q26 107 26 178q0 40 -6 84q2 9 -6 29q-4 24 -4 37q0 1 -1 3.5t-2.5 7l-2.5 7.5q-6 15 -6 41q0 3 -5 23l-12 47l-22 94q-2 10 -15 49q-5 8 -41 106l-10 31q-10 25 -37 84q-10 7 -10 21l-31 37l-20 24l-10 10l-35 39l-6 6l-19 11l-16 12l-2 2l-25 14 q-34 13 -61 21q-19 8 -25 8l-35 8h2q-6 1 -30 4t-39 4l-74 9q-5 2 -14 -3q-3 0 -13 1.5t-12 1.5h-4q-14 -7 -27 -7h-8q-2 0 -5.5 -1t-6.5 -1q-25 -10 -35 -12h2q-17 -6 -29 -8l-8 -2q-5 -3 -19.5 -12.5t-19.5 -12.5q-10 -7 -27 -18t-27 -17.5t-20.5 -15t-15.5 -14.5l-43 -39 h2q-66 -72 -97.5 -140t-35.5 -153q0 -15 -4 -31q-4 -24 -4 -35q0 -5 4 -63q2 -8 2 -39q0 -7 4 -27q0 -2 8 -41l9 -22v2q2 -5 28 -66v-4v2v-2v-4v4q5 -18 64 -90l24 -20q6 0 23 -19l16 -10l-2 2q27 -27 51 -39q29 -14 43 -18q25 -7 48 -17l18 -6q20 -8 41 -14 q108 -27 175.5 32.5t39.5 174.5q0 2 -1 5t-1 5l-8 29v-2l-15 53q0 6 -4 18l-10 29q-3 12 -7 37.5t-5 30.5l-2 16q-8 16 -11 31h3q-4 11 -7.5 30t-1.5 44.5t13 39.5q17 29 67 47q33 4 70 -14q37 -22 51 -57q1 -2 2 -7t2 -8t2 -4l4 -20q0 -4 6 -19l11 -45l8 -41l8 -47 q0 -4 10 -24q12 -24 17 -45q11 -49 42.5 -91t71.5 -34q21 8 48 0.5t51 -37.5q23 -38 24 -51q13 -87 -92 -138q-6 -6 -12.5 -11t-13 -9.5t-9.5 -7.5l-16 -17l-8 -2l-8 -6l-23 -12l-23 -10q-24 -13 -81 -35l-9 -4q-20 -8 -28 -10q-25 -5 -33 -5q-21 -5 -53 -10l-25 -4 q-40 -8 -70 -8q-50 -4 -73 -2q-4 0 -11 1t-10 1q-33 0 -47 2q-20 3 -43 12h2l-26 8q-41 11 -97 33l2 -2q-18 6 -90 43h2q-25 7 -55 29l-8 6l-29 25l-31 22q-67 54 -110 120.5t-76 156.5q-16 50 -20 77q-9 43 -13 101v98q3 54 10 98q11 54 25 99q5 17 18 49.5t17 44.5 q6 17 10 29q4 7 12.5 26.5t16.5 30.5q10 16 41 51l10 10q40 45 57 62l62 49h-2q9 8 24 18t37.5 24.5t36.5 24.5q83 40 111 48q95 26 215 26q180 0 272 -47h-2q27 -12 57 -27l-2 3q5 -3 14 -8.5t17 -10t16 -8.5q24 -10 72 -45l49 -51q2 -2 9 -11.5t10 -11.5l41 -49 q8 -20 28 -49l17 -37l8 -16q4 -11 14 -25l10 -23q27 -54 33 -77l27 -80l12 -51l47 -191q2 -13 6 -27t4 -16l9 -39l2 -33q1 -2 3 -12t3 -12l4 -19l4 -24l64 -262q1 -2 7 -26.5t11 -39.5q12 -39 31.5 -51t36.5 -1t29.5 28.5t13.5 31.5l16 56q10 29 20 67q9 35 21 72l8 20 q2 5 6 27q22 72 33 123q11 30 15.5 43.5t6.5 24.5t3 16v-2q9 42 20 71q1 21 13 58t24 61q7 21 25 37q24 27 53 35q38 0 59 -8h-10h6q31 -8 45 -25z" />
<glyph unicode="X" horiz-adv-x="2254" d="M2150 -82v-4q9 -16 9 -43q-9 -26 -33.5 -50t-48.5 -28q-76 -7 -115 49l-39 62q-14 10 -14 18q-19 15 -19 27l-22 41l-10 14q-9 23 -39 66q-29 56 -35 63q-4 4 -15.5 23.5t-23 34t-28.5 32.5t-36.5 24t-42 4t-49.5 -23.5t-55 -61.5l-21 -41l-12 -16l4 4l-8 -17 q-3 -10 -33 -51l-22 -51l-17 -31l-6 -14l-12 -17q-35 -52 -59 -94q-52 -67 -129 -41q-36 13 -51.5 36.5t-12.5 49.5q0 42 29 76l10 15t10 14l4 4q20 40 72 123v-2q43 73 117 227l45 84q67 102 20 238l-8 22q-10 15 -16 29l4 -6l-31 57l-129 244l-41 67l-45 64q-6 11 -18 27 t-19 28l-8 8q-8 8 -23 29q-12 6 -16 14q-16 8 -20 23q-1 1 -5.5 3t-5.5 3l-77 53l-29 16q-10 3 -37.5 13t-42.5 14l2 -2l-57 10h-29q-7 0 -17 1t-14 1q-37 -3 -61 -8l-33 -8q-29 -5 -31 -6h2q-71 -28 -116 -53q-5 -5 -12 -11t-9 -8l2 2l-24 -16q-48 -40 -62 -60l-18 -18 q-8 -8 -25 -37v-2l-10 -22l-4 -7l-12 -18l-2 2q-19 -39 -29 -88q-15 -52 -19 -102q-4 -64 -2 -99q3 -119 84 -246l19 -26l8 -14l18 -17q1 -1 9 -13t12 -16l12 -8l23 -22q32 -25 106 -68l-6 4q5 -2 17.5 -9t17.5 -9q14 -7 37 -10q11 -6 37 -15l47 -5h1h1l1 -1h2h1h1h1 q5 0 14 -1t13 -1q26 0 36 -2q68 10 103 23q49 15 102 47q2 0 16.5 10t18.5 14l6 6l19 13l53 55l16 22q4 7 19 28t23.5 35.5t13.5 29.5q12 24 16 28q14 28 45 45q42 22 82 4l-2 3q36 -12 59 -52q14 -37 4 -80q-4 -9 -30 -53q-5 -14 -9 -22l-8 -15q-92 -154 -248 -252 q-70 -45 -178 -71q-74 -16 -127 -19h-67q-104 10 -176 41h2q-99 37 -158 84q-76 57 -133 119q-59 65 -101 150q-72 138 -75 303q-3 82 10 176q17 91 53 172q45 91 100 155q64 70 136 119q20 14 65 41l17 8q30 14 90 35h-2q115 37 198 39q74 2 185 -24q90 -22 170 -72 q79 -50 141 -115l39 -49l2 -4l6 -10q13 -15 21 -22q3 -4 11 -16q12 -20 25 -40q11 -19 42.5 -71.5t47.5 -80.5q12 -25 37 -63q8 -12 24.5 -29.5t47 -37t61 -25t67.5 16.5t67 77l22 49l29 41l14 29l47 92l27 51q13 32 35.5 57t54.5 29q29 2 62.5 -10.5t43.5 -30.5 q11 -24 11 -46t-3.5 -32t-15.5 -37q-11 -19 -18 -39l-15 -30q-11 -20 -20 -43l-35 -70l-31 -70l-6 -10l-26 -51l-6 -12l-13 -21q-22 -35 -33 -55q-8 -17 -18 -31q-9 -14 -31 -61l-12 -23q-18 -37 -18 -108q0 -54 18.5 -110.5t77.5 -168.5l27 -49l8 -14q10 -19 22 -39v-4 l8 -13l19 -30l-4 4l10 -15q13 -27 27 -43l32 -55v2l17 -26l49 -72q0 -2 4 -6z" />
<glyph unicode="Y" horiz-adv-x="2224" d="M2103 1331l2 -6q10 -35 7 -52t-17 -50l-18 -43l-15 -33l-20 -47l-19 -39l-10 -17q-24 -43 -39 -77l-30 -64l2 2q-2 -6 -10 -18t-9 -15l-8 -18q-3 -14 -18 -41q-60 -107 -72 -127q-39 -71 -61 -180.5t-25 -169.5q0 -2 -1 -6.5t-1 -5.5v-27l-4 -186v-13q2 -8 2 -39v-10 q0 -3 0.5 -19.5t0.5 -41t-1 -56.5q-12 -88 -90 -100q-69 -13 -103 49q0 1 -1 8.5t-1 8.5l4 -17q-1 2 -3.5 8t-3.5 9t-3 8.5t-2.5 10t-1 10.5t0 12.5t1.5 13.5v37l-2 209v55q0 1 -1 22t-1 48l-2 94v-2q-4 126 -60 248l-16 38l-8 21v-2q-5 11 -15 30.5t-12 22.5l-121 246l-2 4 l-6 12l-14 21l-11 24q0 2 -2 5l-3 6l-39 57q-20 37 -43 63l-35 45l-4 7l-17 14l-12 14l-84 58l-27 14q-49 23 -75 29q-24 7 -56 10q-40 4 -59 4q-29 0 -64 -6l-63 -12h2q-63 -19 -123 -54l4 2l-43 -28q-54 -46 -65 -60l4 4l-15 -16q-20 -20 -34 -47l2 2l-8 -14l-19 -29 l-2 -2q-32 -70 -37 -94q-12 -61 -14 -92q-6 -49 -6 -97q0 -124 75 -250v2l25 -38l10 -13q24 -32 29 -37l12 -10q1 -1 8.5 -9.5t12.5 -12.5q39 -31 104 -72l-6 4l33 -16h-2l45 -17q24 -10 31 -12l-3 2l58 -8l61 -6q80 7 109 16q4 1 59 25h2q52 25 88 61l19 14q30 30 67 33 q43 0 74 -31q28 -23 35 -67q0 -49 -31 -76q-5 -6 -45 -41l-33 -24l-57 -37q-12 -9 -35 -17q-10 -8 -14 -8q-61 -27 -119 -39q-62 -12 -127 -12q-45 0 -68 2q-85 12 -174 45q-77 30 -155 90q-83 65 -129 123q-50 61 -94 154q-68 152 -68 303q0 97 14 174q19 97 60 172 q51 93 102 149q59 70 139 119q11 7 24.5 14.5t30.5 16t27 14.5q44 19 94 33h-2q109 33 201 33q90 0 182 -29h-2q80 -23 170 -76q72 -49 138 -121q3 -4 15.5 -22.5t18.5 -24.5v2l35 -49q5 -9 14 -24.5t13 -22.5q48 -69 90 -153q0 -11 35 -68q29 -46 61.5 -67.5t60 -20.5 t54 15.5t45 34t31.5 40.5l22 43l23 45l14 29l43 90l23 51q13 31 39.5 61.5t54.5 34.5q29 3 63 -12.5t45 -34.5zM1823 1116l-2 -4z" />
<glyph unicode="Z" horiz-adv-x="1118" d="M2200 -172q46 -10 67 -47q23 -33 10 -84v2q-4 -14 -14 -26t-17 -17t-22 -14l-16 -9l-54 -30l-69 -33l-88 -23q-2 0 -6 -1t-6 -1h6l-80 -16l2 2l-27 -6q-24 -8 -47 -8h-59q-2 0 -7 1t-6 1q-25 0 -57 4q-4 0 -11 1t-11 1l-41 4q-24 0 -48 4q-21 2 -55 16q2 -1 0 -1 q-1 0 -9 1q-9 2 -11 2l-74 13l-41 14l-37 10l-26 6q-33 7 -50 15l-34 10h2l-35 10q-8 4 -28.5 11t-22.5 8h2l-35 12l-37 14l-35 17h2q-23 4 -47 16l-37 19l4 -2q-9 5 -26 8l-37 8h2l-21 6h2l-36 10l-33 11l-39 8l-31 6q-5 0 -18 2t-17 2q-32 4 -53 4q-5 0 -16.5 1t-16.5 1 q-27 2 -84 2h-82q-15 -2 -76.5 -10.5t-102.5 -17.5t-83 -25q-28 -6 -60.5 -1t-60 22t-39 46.5t2.5 71.5q8 29 12 33q2 5 72 106q17 25 42 62t42.5 62t21.5 32l6 10q22 31 35 58l25 37q4 6 12 17t12 17l-2 -2l21 37q18 29 51.5 89.5t38.5 68.5q18 25 22 39v-2q0 -2 7 8 q8 14 16 29l55 84h-2l51 81q11 19 27.5 48.5t26.5 47t14 21.5q32 57 32 101t-22.5 69.5t-63.5 42t-83 22t-90 5.5q-10 0 -21.5 -1t-15.5 -1h-37q-10 0 -21.5 1t-15.5 1h-35q-10 0 -17.5 -1t-11.5 -1q-10 -2 -45 -2t-75 30q-25 39 -25 74v12q0 15 10 33l11 17l4 6 q31 39 77 39q11 0 41 -6l-2 2q25 -5 29 -5q10 0 22 1.5t15 1.5h49q9 0 21 -1.5t16 -1.5h41q41 -2 280 -2q23 0 33 2q25 5 49 5q11 0 25 -1t18 -1h39q11 0 28 -1.5t21 -1.5q10 -2 33 -2q61 0 90 -51h-2q16 -24 13 -55q-5 -27 -22 -62l-5 -7v1v-2q-3 -7 -13 -23t-16 -30 l-12 -16l2 4l-12 -25l-23 -43l-18 -26q-22 -44 -27 -52l-4 -12q-12 -24 -22 -39l-41 -65q-11 -18 -28.5 -46.5t-30 -49t-19.5 -31.5q-1 -2 -19 -33q-10 -20 -26 -43q-17 -24 -52 -84q-14 -21 -24 -41q-3 -6 -11.5 -17.5t-11.5 -17.5l-61 -104q-25 -54 -38.5 -94t-17 -84 t12 -74.5t57.5 -55t111 -34.5q148 -17 217.5 -31t181.5 -57l29 -15q40 -22 47 -24l47 -21l27 -8l45 -16l37 -11q26 -4 55 -16h-2l24 -8l37 -10q7 -1 19.5 -4.5t19.5 -4.5q13 -3 51 -8q4 0 14.5 -2t14.5 -2q9 -4 39 -8l37 -8l49 -4l61 -9h-2q20 -1 86 7q4 0 13 1t12 1h-2 q52 6 86 16q10 3 39.5 13.5t44.5 15.5l-2 -2l29 12l16 6q3 2 18 10t19 11q39 31 74 18z" />
<glyph unicode="[" horiz-adv-x="673" d="M500 1188q0 -32 -28 -60.5t-54 -33.5q-6 -5 -10 -10.5t-6 -17t-3 -23t-0.5 -35.5t1 -47.5t1 -66.5t0.5 -85q0 -13 -6 -43v-25q6 -111 6 -166q0 -27 -4 -43q-2 -4 -2 -24v-137q0 -11 1 -22t1 -13v-260q0 -3 1 -14.5t1 -20.5v-35q0 -52 25 -63q35 -15 52.5 -35t17.5 -55 v-13q0 -36 -21.5 -61t-54.5 -25h-62q-5 0 -8.5 -0.5t-5 -0.5t-2.5 -0.5t-2 -0.5h-14q-52 0 -95.5 44.5t-42.5 117.5v88q0 3 1 14t1 21v69q0 15 1 73.5t1 88.5v64q0 9 -1 32.5t-1 36.5v70q0 9 -1 17t-1 12q-2 10 -2 41q0 35 2 43q0 3 1 10.5t1 15.5q0 5 1 41t1 58v71 q0 10 -1 18t-1 11q-2 10 -2 41q0 54 2 74q0 13 1 33.5t1 31.5q0 18 -4 58q-2 18 -2 63q0 35 2 43q0 3 1 11t1 16q0 32 40.5 71t66.5 39h24q2 0 11 -1t16 -1h33q7 0 13 -1t7 -1h19q18 0 32.5 -9.5t21.5 -19.5t22 -36q6 -12 6 -33z" />
<glyph unicode="\" horiz-adv-x="985" d="M164 1217l6 6q24 23 58.5 26.5t64.5 -12.5q40 -28 53 -76l6 -12q8 -17 10 -25l25 -61q23 -61 29 -68l2 -10q5 -10 6 -14l8 -17l25 -62q11 -27 16 -40l39 -100q1 -6 3 -11t3 -8q8 -12 12 -35q1 0 4.5 -5t6.5 -9v-6q8 -16 8 -21q1 -2 1.5 -6.5t1.5 -8t3 -5.5q1 -4 3.5 -8.5 t4 -8.5t2.5 -8q12 -28 35.5 -81t32.5 -78l-2 2q26 -64 28 -66q5 -26 11 -35l10 -28q-3 -10 30.5 -84t43.5 -90q9 -49 28 -82q-2 0 -2 2q10 -15 13 -29q8 -21 12 -27l2 -20q0 -1 2 -3t2 -3q18 -38 6 -66q0 -11 -10 -28l2 6q-18 -45 -66 -56q-26 -3 -61 7q-10 5 -25 10 q-20 16 -32 41v2l-2 6v-2q-6 11 -11.5 25.5t-7.5 19.5l-14 35v-2l-4 18l-6 21l-2 2q-18 32 -27 57l-6 16q-2 12 -10 31.5t-15.5 35t-7.5 17.5q-10 13 -12 33l-15 33l-2 8q-3 5 -8 18.5t-12 32t-12 29.5q-30 83 -41 94l-7 27q-10 32 -30 69v7l-8 14l-9 29q-10 30 -10 32 q-44 94 -47 111q-7 22 -14 33l-15 37v-2q-3 9 -9 26l-15 39q0 8 -2 12q-18 18 -23 52q-2 4 -2 14q-4 14 -16 31l-6 16l-11 23q0 8 -6 14l-10 20l-10 35q-13 32 -13 33l-4 14q-8 34 -4 49q7 30 25 48z" />
<glyph unicode="]" horiz-adv-x="698" d="M178 -147q0 29 10 48.5t24.5 29.5l29 20t24.5 28.5t10 45.5v206q7 59 7 68q-7 130 -7 166q0 23 5 43q0 1 1 8.5t1 15.5v138q0 10 -1 22t-1 13v260q0 3 -1 14t-1 20q0 10 -1.5 20t-1.5 13q-7 30 -30.5 59t-42.5 52.5t-19 44.5v12q0 36 21.5 61t54.5 25h62q5 0 8.5 0.5t5 1 t2.5 0.5h16q52 0 95.5 -44.5t42.5 -117.5v-53q0 -9 -1.5 -20.5t-1.5 -14.5v-104q0 -15 -1 -73.5t-1 -88.5v-133q0 -11 1 -35t1 -35q0 -20 3 -32q0 -4 1 -15.5t1 -21.5q0 -9 -1 -24.5t-1 -18.5q-3 -12 -3 -27q0 -6 -1 -41t-1 -57v-72q0 -27 2 -33q0 -4 1.5 -16t1.5 -21 q0 -13 -1.5 -37.5t-1.5 -35.5q-2 -25 -2 -66q0 -37 2 -57q5 -45 5 -64q0 -10 -1 -25t-1 -18q-3 -15 -3 -26q0 -32 -40 -71.5t-66 -39.5h-25q-2 0 -10.5 1t-15.5 1h-53q-1 0 -7 1t-12 1q-31 0 -51 20t-25 54q-6 6 -6 25z" />
<glyph unicode="^" horiz-adv-x="905" d="M303 1837q33 48 105 61q47 7 59 5q3 0 11 -1t14 -1q30 0 62.5 -23.5t49.5 -50.5l17 -27l26 -33q2 -5 15 -18q22 -22 30 -35l17 -26q0 -4 10 -19q27 -32 9.5 -80.5t-60.5 -48.5h-33q-31 0 -61 17.5t-44 41.5l-18 25q-16 19 -33 29.5t-40.5 6t-43.5 -31.5l-16 -26 q-50 -71 -117 -62q-5 0 -6 2q-7 0 -27 6q-35 7 -45.5 50.5t11.5 78.5l12 15l12 18l19 29q2 2 3.5 6t5 10.5t7.5 13.5l27 35z" />
<glyph unicode="_" horiz-adv-x="1163" d="M469 -59l166 -2q21 0 57 1t51 1h45q29 0 41 2q24 4 52 4q44 0 81 -20t37 -52q0 -23 -12 -43l-2 -8q0 -31 -30.5 -52.5t-73.5 -21.5h-93q-77 0 -108 -2q-10 0 -25.5 -1t-19.5 -1q-46 0 -89.5 1t-76.5 1q-13 0 -27.5 -1t-19.5 -1h-115q-39 0 -51 2q-4 0 -17 1t-24 1 q-42 0 -68 21.5t-26 52.5q0 6 -1 11.5t-1 6.5v21q0 35 26.5 56.5t69.5 21.5q15 0 33 6q1 0 15 2t38 2z" />
<glyph unicode="`" horiz-adv-x="933" d="M643 1673l2 -2q26 -37 3.5 -73.5t-68.5 -36.5q-3 0 -6.5 -1t-6.5 -1q-57 0 -110 57l-17 14q-1 0 -1.5 1t-4 5.5t-8.5 10.5l-23 20q-13 17 -33 33t-24 20l-53 54q-28 32 -11.5 76t60.5 44q17 0 23 2q1 0 12 1t18 1h27q31 0 62 -17.5t48 -45.5q8 -11 17 -20q11 -9 31 -39 l36 -64l19 -22z" />
<glyph unicode="a" horiz-adv-x="991" d="M909 47l2 2q-8 -18 -35 -32t-61 -15q-27 0 -54 11.5t-38 31.5q-15 40 -23 57q0 13 -4 21l-12 35q-16 31 -38.5 54.5t-42.5 36.5t-46.5 22.5t-41.5 12.5t-36.5 6t-23.5 3q-41 7 -73.5 0t-54.5 -28.5t-36.5 -45t-28.5 -57.5q-27 -104 -45 -125q-20 -35 -76 -35 q-32 0 -84 23l-12 22q-5 11 -7 24.5t-0.5 25.5t5 25t7 21t6.5 15l3 8q2 0 2 10q4 6 13.5 37t11.5 45l84 270q9 17 18 48t19 51l22 63q6 22 25.5 77.5t26.5 78.5v-2l8 28v2q9 11 12 23l-2 -4l10 33l6 14q9 20 15 32.5t19 34.5t26.5 35t33.5 23t42 10h14q4 0 15.5 1t20.5 0.5 t19 -5.5q24 -12 33 -22.5t18 -30.5q0 -3 7 -10l49 -93l-2 3q16 -22 20 -35l4 -9l13 -24q1 -1 1.5 -3.5t2.5 -7.5t6 -12l80 -217q8 -15 30 -78q10 -25 47 -144t41 -134q13 -52 25 -70q14 -26 16 -32q21 -51 -2 -105zM567 535q-24 57 -49 139q-19 43 -42 46.5t-40 -34.5 q-5 -17 -16 -46.5t-18 -52.5t-7 -40q0 -24 13 -43t32 -27l66 -24l24 -7q24 -6 35 5.5t10 27t-4.5 35.5t-3.5 21z" />
<glyph unicode="b" horiz-adv-x="993" d="M918 459q9 -28 12 -88q0 -7 1 -23.5t0.5 -28t-3.5 -20.5l-6 -23v5q-4 -12 -4 -17q-2 -28 -33 -98l-17 -16q-2 -2 -22 -24.5t-35 -34.5t-33 -17l-6 -6l-53 -23q-126 -57 -328 -39h-86h-119q-23 0 -55 12l2 -2q-66 14 -90 72q-3 8 -4 15.5t-1 12t0.5 11.5t0.5 12 q0 19 -2 29v39q0 25 -2 31l6 63q2 18 2 61q0 4 1 12.5t1 12.5q0 18 6 41v21v34q0 3 1 9t1 8q2 8 2 39q-4 28 -4 102q0 43 2 61q0 52 -2 54v18q0 33 2 53q0 2 1 8.5t1 8.5q2 12 2 24v23q0 28 1.5 44t9.5 40.5t24 38.5t48 26t77 15h59q7 0 17 2q36 0 65 2q58 4 64 4 q1 0 3.5 -1t4.5 -1q15 0 19 -2h22q8 -2 16 -2q6 -2 19 -2l22 -6q21 -5 30.5 -11.5t16.5 -7.5l27 -18q66 -45 87 -69.5t50 -90.5q24 -56 -6 -125q-10 -27 1.5 -49.5t37.5 -42t54 -39.5t54 -52.5t35 -72.5q0 -9 3 -12zM242 756q0 -2 -1 -10t-1 -11q-1 -28 13 -45t39.5 -20.5 t52 -0.5t56.5 11q7 2 15.5 6t14.5 6t11 2q47 26 56 35l14 19q22 27 22.5 49.5t-17 41.5t-34 29.5t-28.5 14.5q-20 10 -105 2q-44 -1 -75 -33.5t-33 -73.5v-22zM727 332q4 36 -9.5 65.5t-41.5 67.5q-21 19 -68 33t-96 14q-54 0 -76 -12q-74 -28 -125 -41q-31 -17 -55.5 -56 t-22.5 -51v-14q0 -2 1.5 -6t1.5 -6l2 -23q9 -58 61.5 -91.5t134.5 -41.5q40 -4 53 -4q16 0 52 8l90 23q15 10 20 10q2 1 3.5 3t4.5 3q11 4 35 23q20 11 26.5 29t8.5 52v2v13z" />
<glyph unicode="c" horiz-adv-x="954" d="M872 174v2q-3 -13 -10 -20l-8 -13q-26 -38 -115 -102v2q-67 -46 -164 -51l11 2q-25 -2 -33 -2h-35q-16 -4 -41 -4q-27 2 -78 22l-34 13q-4 2 -20.5 8.5t-27.5 12t-22 13.5q-61 37 -100.5 77.5t-73 113.5t-55.5 182l2 -2q-7 23 -7 49v82q11 141 64 236q6 17 29 45l2 2 q48 98 174 170q82 47 96 49q41 14 106 14q57 0 123 -16q26 -9 69.5 -32t70.5 -44q77 -80 77 -197q0 -46 -14 -81q-21 -44 -56.5 -68.5t-70.5 -24.5q-43 0 -69.5 27.5t-20.5 73.5q3 16 39 57q4 10 -4 32.5t-19 33.5q-40 43 -118 43q-52 3 -108.5 -28t-84.5 -71 q-37 -52 -43 -71q-44 -100 -41 -207q4 -58 18 -106.5t38 -84t39 -53t40 -41.5q6 -3 15 -12q39 -25 80 -25q13 0 63 4l31 4q27 11 45 21l-10 -8l10 6l26 22l11 7l4 6q4 3 10 9l9.5 9.5t4.5 3.5q0 2 5.5 10t9.5 11q19 22 65 22q22 0 43 -12q34 -12 52 -51.5t1 -69.5z" />
<glyph unicode="d" horiz-adv-x="921" d="M825 678q25 -42 23 -74q10 -36 10 -80q0 -36 -8 -98q0 -2 -1 -8t-1 -8v-23q-2 -6 -2 -16q0 -15 -4 -43q0 -4 -1 -10t-1 -7q-4 -8 -4 -10q-10 -60 -33 -104q-3 -4 -11.5 -14.5t-16.5 -20.5t-15 -17q-18 -18 -21 -20l-34 -31q-70 -44 -74 -47l-43 -24q-42 -23 -72 -29 q-2 0 -10 -4l-31 -2q-41 -13 -69 -13h-13l-43 7q-6 2 -18 2q-15 0 -35 4q-7 0 -26.5 1t-26.5 1h-68q-3 0 -8 -1t-8 -1q-4 0 -12 1t-11 1q-51 5 -67 15q-18 13 -29 42q-10 29 -10 109q0 16 1 42.5t1 34.5v29q9 61 6 131q0 52 2 64q6 24 6 84v22q4 28 4 45v13q0 1 0.5 15.5 t0.5 32t-1 33.5v11q4 41 0 59v33q-3 38 4 95.5t23 88.5q39 53 123 53h82q26 0 36 -2h-6q2 -2 6 -2q7 0 27 -4h6q35 -5 64 -16q15 -6 39 -12q10 -5 18 -5l35 -12q1 -1 24 -10q4 -2 32 -15.5t40 -21.5q2 -4 4 -4q16 -8 33 -25l6 -4l8 -8l-2 4q32 -22 64 -57q25 -28 45 -66v2 l12 -16q12 -20 33 -61l14 -21q0 4 4 0v-8zM625 303l-2 -4q1 7 5.5 29t7 37t5 39t2.5 45q0 119 -63 253l-11 17l-10 10q-28 32 -84 68l-20 10h-6q-36 16 -68 16q-45 0 -76.5 -32.5t-42.5 -70t-10 -69.5v-35q0 -3 -1 -8.5t-1 -7.5l-4 -131q0 -8 -1 -33.5t-1 -40.5 q-4 -90 -4 -102q2 -50 33 -89.5t83 -43.5h17q19 0 33 -4q3 -3 12 2q4 2 15 5l11 3q29 8 74 33.5t60 38.5q16 13 30 34q4 5 17 31z" />
<glyph unicode="e" horiz-adv-x="880" d="M721 207l6 -2q74 -25 74 -96q-1 -50 -36.5 -76.5t-64.5 -26.5h-28q-7 0 -28.5 1t-35.5 1q-79 0 -110 2h-107q-28 0 -76 -8q-17 -2 -86 2h-8q-27 1 -44 3t-46 13.5t-45.5 31.5t-28.5 61t-10 98v86q4 10 4 31v20q-5 76 -2 105v4q0 3 1 10.5t1 11.5v21q0 21 -2 37 q0 43 -2 51v28q0 8 1 23t1 16q0 31 6 78q-1 13 -0.5 65t-1.5 66q0 63 44 111.5t91 48.5h183q59 0 90 -2q35 -2 139 -2h80l29 -2q11 0 22.5 -2t16.5 -4l6 -2q32 -15 48.5 -56.5t-1.5 -87.5q-16 -27 -43 -39t-45 -8h-54q-106 4 -151 4h-68q-23 0 -39.5 -1t-40.5 -4.5t-41 -11 t-34 -20t-27.5 -32.5t-13.5 -47q-6 -51 33.5 -75t107.5 -24h82q43 0 65.5 -26.5t22.5 -67.5q0 -40 -23.5 -71t-60.5 -31q-2 0 -12 -2q-9 -1 -34 -5t-46 -4q-47 0 -88 -33.5t-41 -78.5q4 -78 162 -78h80q33 0 51 -2q9 0 26 -2t27 -2q46 4 82 4q33 0 43 -2z" />
<glyph unicode="f" horiz-adv-x="874" d="M735 1014h-2q33 -14 57.5 -59.5t4.5 -88.5q-13 -23 -39 -34t-45 -11h-9h-2q-28 2 -174 2h-90q-19 0 -74 -2q-46 0 -80 -25t-34 -81q0 -38 19.5 -71t54.5 -40q6 -2 63 -2q54 0 74 2h22q39 -1 61.5 -30t22.5 -68q0 -35 -19 -65t-54 -40q-1 0 -144 -10q-28 -1 -48.5 -18 t-30 -42t-14 -44t-5.5 -35q-5 -14 -2 -33v-18q0 -43 4 -68q3 -43 -2 -76q-7 -42 -61 -62.5t-93 -4.5q-47 21 -51 76q-1 11 -1 23t0.5 26t0.5 20v119q0 27 4 41h-2q2 8 2 33v102q0 3 1 11t1 12v20q0 21 -2 35q-6 44 -2 80q0 7 1 19t1 20q0 33 2 45v6q0 3 1 10.5t1 11.5 q0 64 -4 93q0 35 2 45q0 6 1 15t1 11q0 63 43.5 111.5t89.5 48.5h330q78 0 137 2l33 -2q12 0 24 -2.5t18 -5.5z" />
<glyph unicode="g" horiz-adv-x="1048" d="M803 631q19 -2 32 -5t36.5 -11t44 -24.5t36.5 -41.5l13 -32v1q4 -18 4 -86q0 -80 -6 -117q-2 -20 -10.5 -46.5t-26 -61.5t-52 -73.5t-79.5 -70.5l6 5q-2 -2 -12.5 -9.5t-29.5 -19t-36 -16.5q-34 -15 -83 -26t-85 -11q-108 0 -158 20h-2q-14 8 -65 35q-9 6 -13 8 q-20 10 -75 47q-9 13 -11 15l-6 4q-65 60 -92 106q-37 50 -45 123v4q0 6 -2 16t-2 19q-1 3 -3.5 21.5t-4.5 27.5q-7 28 -10 82t4 82q0 4 1 7l1 3q0 1 1 4t1 4q1 4 4 18l2 12v-1q0 3 2 10.5t2 10.5q3 27 29 77q9 18 26.5 54t28.5 57.5t16 26.5q23 32 111.5 87t146.5 74l82 19 q2 0 10 1t9 1q72 0 100 -4l19 -10q21 -7 36 -13q1 0 5 -1t6 -1q17 -3 28 -10q47 -16 119 -88l4 -6l21 -19h2q18 -15 24 -26q1 -1 3.5 -5t4.5 -6l5 -9v-1q7 -8 12.5 -28.5t4 -46.5t-14.5 -42l2 3q-57 -69 -129 -31q-40 18 -74 69q-14 19 -41 33q-16 7 -21 12q-17 10 -67 19h2 q-4 0 -12 2t-9 2h-12q-26 0 -31 -2l-24 -4q-92 -24 -129 -68q-45 -40 -62 -75q-5 -16 -9 -23.5t-8 -12.5t-5 -7l-14 -60q0 -2 -3 -9t-4 -11q0 -1 -1 -4.5t-1 -4.5q-2 -10 -2 -28v-21q0 -2 1 -6t1 -8q2 -10 2 -33q-3 -22 4 -55q0 -1 1.5 -6.5t1.5 -7.5q1 -6 6 -31.5t8.5 -40 t7.5 -17.5q2 -3 7.5 -9.5t8.5 -10.5q14 -10 27 -29q6 -8 25 -20l-2 2q8 -8 104 -66q19 -9 37 -12h-2q17 0 33 -4q4 -2 12 -2h10q37 0 82.5 22t73.5 56q37 49 33 94t-35 76t-68 28q-40 -3 -74 29q-11 15 -13.5 41t4 52.5t29.5 46.5t58 22q118 0 152 -4z" />
<glyph unicode="h" horiz-adv-x="980" d="M872 911l-4 -20q-1 -2 -1.5 -11.5t0 -20t1 -20t0.5 -10.5l2 -124v-11v-98q0 -7 1 -19t1 -18v-131q0 -5 1 -43.5t1 -71.5q2 -21 0 -39q0 -91 -4 -102q0 -6 2 -10q0 -41 -2 -53q4 -49 -2 -72q-13 -32 -43.5 -46t-58.5 -14q-32 0 -60.5 13t-41.5 37q-4 20 -4 43t2 50.5 t2 41.5v67q0 90 -123 148q-24 12 -60 22q-20 7 -43 16.5t-37 14.5q-50 19 -90.5 -16.5t-40.5 -100.5q2 -17 -2 -112v-60v-43q-11 -100 -92 -100h-8h-10.5h-12t-12 0.5t-12.5 1.5t-11.5 3t-12.5 5.5t-10.5 8t-10.5 10.5q-22 33 -19 88v43q0 3 1 8t1 8v8q-2 16 -2 103v10 q0 6 0.5 25.5t1.5 68t2 113.5v12l2 21q1 6 2 14.5t2 14.5t1 11q0 3 1 11t1 12v16q2 23 2 64q0 27 2 37v-2q3 16 0 26q-4 16 0 41v13q-2 10 -2 32v43q0 7 -0.5 26.5t0 29t1.5 24.5t3.5 25.5t7.5 19.5v-2q18 41 102 41q30 0 59.5 -22.5t35.5 -59.5q1 0 2 -2v-35q0 -45 -2 -104 v-21q4 -48 22.5 -83.5t35.5 -49.5t36 -22q107 -43 131 -49q66 -28 111 -0.5t45 90.5q2 22 2 96q0 10 1 27t1 18q1 10 0.5 20t-1.5 22.5t-1 14.5q0 9 -2 25q-2 14 -1.5 41t3.5 41q0 14 14 33l-4 -4q12 19 37.5 30t54.5 11q65 0 90 -45q16 -33 16 -93z" />
<glyph unicode="i" horiz-adv-x="331" d="M51 117v4q4 16 0 24v19q1 5 3 19l3 18q-4 16 -4 37v24q0 4 -1 8l-1 4q7 19 4 37v117q0 8 1 23t1 22v45q-4 17 -4 174q0 178 6 193v24q0 36 2 45q-4 47 29 80q14 9 42 14t60.5 0.5t49.5 -22.5q19 -21 24 -63q4 -32 0 -60q0 -6 -1 -14.5t-1 -9.5v-136q-1 -4 -3.5 -53.5 t-2.5 -66.5q0 -40 2 -60v-39q3 -43 -1.5 -164.5t-6.5 -142.5q-2 -12 -1 -31.5t3 -37.5l2 -19q7 -59 -16 -92l2 2q-27 -43 -86 -43q-47 0 -88 29q-13 18 -17.5 46t0.5 46z" />
<glyph unicode="j" horiz-adv-x="819" d="M731 938v-92q-4 -28 -4 -47q-3 -16 0 -33q0 -5 1 -15.5t1 -15.5q0 -15 -2 -20l-2 -13q8 -26 4 -75q0 -10 -2 -31t-2 -31q0 -11 -1 -30t-1 -27q0 -31 4 -109q0 -8 -1 -32t-1 -33q0 -2 -1 -7.5t-1 -7.5q-8 -50 -6 -59q0 -47 -17 -74q-2 -2 -2 -12q0 -1 -1 -4t-1 -4l-18 -41 l-16 -43q-18 -25 -41 -45l-11 -10q-19 -19 -51 -39q-26 -16 -59 -23l-31 -6l-2 -2q-6 -4 -43 -8q-10 -2 -55 -2q-5 0 -16.5 -1t-16.5 -1h-6q-39 2 -101.5 21.5t-91.5 41.5q-32 32 -65 80t-33 84q3 36 25 62.5t57 33.5q45 0 67 -14q21 -13 39 -47l-2 2q29 -48 54 -59 q27 -17 83 -17q61 0 97 25q1 1 5.5 6t6.5 6.5t2 -0.5l16 27q2 5 6 11t5 7q10 30 10 41l6 29q6 47 6 178v33q0 4 1 17t1 22v73q2 15 -2 60q-3 31 4 120q0 6 0.5 18.5t0.5 20.5t-1 18.5t-4 18.5q2 50 2 60v32q0 33 25 58q24 29 64 30.5t81 -20.5q13 -8 24 -38t13 -48z" />
<glyph unicode="k" horiz-adv-x="970" d="M829 -12q-26 -17 -72 -4.5t-81 47.5l-23 32q3 3 -26.5 43.5t-36.5 43.5q-37 59 -39 61q-30 46 -50 76.5t-25 39t-7 11.5q-28 40 -71 49.5t-79.5 -18.5t-46.5 -88q-2 -12 -2 -80v-99q0 -79 -37 -114q-50 -19 -80 -17.5t-49 11.5q-33 25 -38 81v41q0 3 -1.5 19.5t-1.5 30.5 q0 6 1.5 15.5t1.5 14.5q0 35 2 49v19q0 4 1 12t1 12q0 34 4 80q0 5 1 12t1 11v65q0 1 0.5 10t1 22t0.5 24v47v69q5 140 0 140v82v24v27v35q0 39 22 75q12 15 35 27t47 12q39 0 72 -26h2h-2q18 -12 24 -52.5t1 -56.5q2 -4 2 -10v-2q4 -20 2 -33q3 -73 44.5 -102.5t86.5 -1.5 l26 22q2 5 13 10q4 3 6 5l14 16l14 14q2 3 9.5 12.5t9.5 12.5l129 129l6 10l-4 -6q19 33 45 41q21 10 50 11t61 -11q27 -15 39 -38t10.5 -41t-8.5 -34q-2 -21 -25 -37l2 2q-13 -9 -23 -22l-34 -35q-12 -12 -21 -27l-14 -16q-10 -18 -31 -33q-22 -15 -35 -34q-17 -29 -24 -35 q-37 -34 -37 -99q0 -17 2.5 -34t5.5 -25l2 -8l-2 6l8 -14l13 -23l-3 2l13 -18q2 -3 14 -19l4 -8q14 -14 15 -16q36 -63 41 -68q11 -23 24.5 -41.5t21.5 -27t9 -11.5l2 -4l10 -16l29 -35l14 -18q4 -5 14 -18t17.5 -23.5t9.5 -14.5q1 -2 4.5 -8t5.5 -8q9 -13 10.5 -38 t-10.5 -53.5t-37 -41.5z" />
<glyph unicode="l" horiz-adv-x="917" d="M811 119q5 -24 -3.5 -60.5t-27.5 -52.5q-26 -18 -67 -18h-29l-154 4q-18 2 -67 2q-60 0 -113 -2q-57 -2 -108 -2q-58 0 -72 2q-35 7 -57 22.5t-30 39.5t-9.5 38.5t-1.5 40.5v25q-2 27 -2 110q6 39 6 195v16q0 5 -1 11.5t-1 11.5q-2 10 -2 41q0 47 4 65q0 37 4 103 q0 10 -2 45q0 3 -1 11t-1 11q-5 38 4 58v49q2 10 2 24q2 16 2 27q0 23 2 35q2 26 22.5 57.5t53.5 34.5h8q108 2 119 -86l-2 2q6 -42 6 -70v-69q0 -4 -1 -14t-1 -15v-39q0 -68 -6 -121q-9 -82 -9 -123q0 -15 2.5 -37t2.5 -30q0 -64 26.5 -123.5t83 -101.5t129.5 -43h176 l33 -3q41 -11 59.5 -24t22.5 -47z" />
<glyph unicode="m" horiz-adv-x="1177" d="M844 969q13 23 35 40t56 23.5t73 -10.5q27 -8 40 -39.5t11 -48.5q-1 -7 -0.5 -25t2.5 -26v-15q0 -96 2 -102v-4q0 -2 -1 -8t-1 -9q-2 -8 -2 -18v-229q0 -203 -4 -228q2 -17 -2 -47q0 -21 -4 -49v-8q0 -8 1 -16t1 -11q3 -23 0 -49q-3 -24 -17 -51q-20 -31 -66.5 -40 t-74.5 5q-23 8 -34.5 28.5t-13 35.5t-1.5 41v135q-1 8 -1 28t0.5 42.5t0.5 25.5q4 16 4 39v8q-2 21 2 55q0 2 1 7t1 10q3 34 -18.5 58t-56.5 16.5t-62 -54.5q-18 -24 -41 -47l-10 -12q-30 -34 -97 -28t-88 40q-7 11 -57 51q-18 23 -39 30.5t-39.5 -1.5t-33.5 -28t-23 -49.5 t-6 -65.5q-2 -23 -2 -62v-76q-3 -21 -3 -63q7 -48 0 -100q-6 -41 -61 -60.5t-94 -3.5q-20 9 -34.5 32t-14.5 48q0 10 1 27t1 24t0.5 18.5t0.5 22t-1 21.5v200q-8 47 0 113v43q2 8 2 27v47q0 10 -1 27.5t-1 27.5q-2 20 -2 68q0 36 4 47v108v10q4 59 30 89q34 34 93.5 25 t95.5 -60q21 -21 39 -62v-2l8 -12q4 -5 47.5 -65.5t56.5 -75.5q133 -133 252 14q2 2 14.5 17.5t35.5 46.5t53 75q6 0 22 33l11 16l12 21z" />
<glyph unicode="n" horiz-adv-x="1060" d="M950 915q2 -30 -2 -84q-2 -20 -2 -53v-47q0 -9 -2 -46t-2 -75v-157v-62q8 -42 0 -98q0 -8 -1 -20t-1 -15v-35q0 -33 2 -49q0 -12 1 -39t1 -43q0 -20 -10 -53q-14 -32 -50.5 -43.5t-68 -8t-43.5 12.5q-7 5 -12 10t-9 10.5t-7 9.5t-4.5 10t-2.5 9t-1.5 10t-0.5 9v9.5v8.5 v10q-2 51 -26 107t-59.5 103t-54 68.5t-32.5 35.5l-37 32q-79 75 -134.5 66t-85.5 -75t-30 -169v-65v-27q0 -6 -1 -17t-1 -14q0 -25 2 -45q0 -19 -10 -49.5t-30 -38.5q-52 -18 -89 -15t-53 19q-7 7 -12 15t-7.5 14t-3.5 16t-1 14v14.5v12.5q4 132 4 168q0 16 4 78 q0 5 -1 13.5t-1 13.5q-2 12 -2 43v63q-2 25 -2 98q0 11 2 21l2 51q0 32 4 82q3 30 0 84v105q2 10 2 16q0 35 14 53l-2 -2q6 14 47 45q4 3 33 8h27q1 0 6 -1t10 -1q19 0 31 -6l8 -2l41 -43q15 -17 42 -52t40 -50l51 -60q7 -11 21 -20l14 -17q12 -18 51 -57l12 -10 q51 -51 100.5 -67t81 11t29.5 95q0 35 2 47q2 6 2 10q0 7 -1 20.5t-1 20.5v39q0 60 11 96q9 32 37.5 50t62.5 18t60 -18t32 -50q4 -14 4 -37q0 -5 1 -14.5t1 -13.5v-11z" />
<glyph unicode="o" horiz-adv-x="1146" d="M76 553q-2 34 10.5 78.5t23 67t31.5 65.5l4 4q3 24 17 41q7 14 16 22q4 3 16 17.5t19 21.5l18 23l-2 -2q14 19 20.5 26.5t21.5 19t34 19.5l10 5l11 8l26 14q16 5 56 29h6q4 1 10 3.5t11 4t9 2.5l86 14h-2q67 10 115 0q29 -3 68 -20q24 -7 41 -17l22 -14h2q33 -16 68 -51 l18 -19l6 -8l11 -14l36 -35l7.5 -7.5t11.5 -16.5q20 -13 31 -43l22 -56q4 -4 16.5 -48.5t12.5 -47.5v-4q4 -10 4 -29l4 -14q10 -17 10 -53q-6 -179 -61 -279q0 -12 -15 -20q0 -1 -1 -2t-1 -2q-2 -3 -6 -12.5t-6 -13.5t-5.5 -12t-7 -12.5t-8 -10.5t-9.5 -10.5t-11 -8.5 q-37 -26 -65 -68q-19 -8 -25 -14l2 4l-14 -12l-17 -13q-23 -18 -82 -41l-36 -12h2q-20 -12 -39 -12h-25q-2 0 -4.5 -1t-5.5 -1h-16q-6 -2 -19 -2h-57q-52 0 -72 2h-12q-86 12 -170 96q-1 2 -4 4.5t-9 8t-12 11.5l-35 31l-10 8q-43 43 -51 74q-2 17 -14 41q-7 10 -7 16 q-5 11 -18 66l-2 4q-8 80 -8 113zM274 526v-47q0 -21 5.5 -71t13.5 -70q8 -14 12 -25q2 -2 2 -4l8 -12l11 -12q36 -42 75 -64q52 -36 84 -41q35 -7 74 -2q208 21 272 254q2 19 -4.5 90.5t-13.5 100.5q-13 47 -31 84q-13 25 -88 94q-71 31 -96 35q-10 2 -33 -2h4 q-35 -5 -45 -5q-44 -4 -61 -16l-33 -16q-18 -8 -30.5 -19.5t-27.5 -29.5t-24 -27q-11 -10 -59 -129q-15 -43 -15 -66z" />
<glyph unicode="p" horiz-adv-x="909" d="M817 821v-14q0 -88 -14.5 -157.5t-57.5 -129.5l3 2l-17 -20q-14 -21 -43.5 -45.5t-60.5 -38.5l-146 -88q-75 -24 -142.5 -90.5t-70.5 -149.5q0 -1 1 -12t-0.5 -19t-6.5 -16q-2 -10 -6 -16q-25 -31 -84.5 -34t-85.5 32q-12 14 -12 38q3 6 0 21q0 3 -1 10.5t-1 11.5 q-4 28 0 60q0 4 1 13.5t1 13.5q6 47 6 98q0 14 -1 43.5t-1 46.5q-2 41 -2 154v100q0 70 -2 113v22q0 6 1 18t1 15v65q2 6 2 33q0 59 12 82l4 8q2 3 8.5 13.5t10 15t11.5 12t17 12.5q21 12 49 19h15l4 2h29q39 4 61 2q15 5 35 -2v2q36 -4 86 -4q88 0 123 -2q98 -16 162 -49 q43 -27 76 -82.5t36 -108.5zM606 694q10 27 13.5 58t-7 63.5t-39.5 44.5q-13 7 -39.5 15t-37.5 8h-21q-32 0 -63 -4q-17 -2 -35 -7t-43.5 -17t-42.5 -35.5t-19 -55.5v-139q13 -74 54 -95.5t106 0.5q6 2 14 7.5t11 7.5q23 9 69 39q26 16 43 37t37 73z" />
<glyph unicode="q" horiz-adv-x="1150" d="M1069 -158l-57 -22q-8 0 -18 -1t-13 -1q-27 -4 -43 -2q-44 10 -97.5 39t-76.5 61q-20 27 -46 40t-42 14.5t-51 -1t-45 -2.5h-7q-33 0 -79 8l-35 13l-16.5 5.5t-22.5 6.5l-35 12l-8 4q-4 2 -12 5.5t-13 5.5t-6 4h-2q-55 34 -94 84l-21 22l-20 19l-39 41l-27 30 q-23 27 -41 76l-4 12q-8 5 -8 27q0 5 -9 57t-9 74q0 68 14 148q3 17 18 51q7 10 9 22l12 25v-2l27 55l53 86q7 10 15 19t19 18.5t18 15t21.5 16t18.5 13.5l49 37q37 30 70 37q3 2 13 6t13 6q19 9 45 14q47 13 82 13q57 0 115 -21l49 -20q3 -1 12.5 -7t14.5 -8q4 -1 15 -7 t13 -7l9 -6l14 -10l53 -39l25 -23l6 -6q22 -22 66 -78q20 -44 36 -65q2 -9 2 -13l13 -32l2 -33q0 -31 22 -86v-14q0 -6 1 -23.5t1 -32t-2 -22.5q0 -11 -4 -21l2 6q-15 -39 -20 -75l-2 -11l-25 -110q-8 -26 -37 -66l-6 -4q-71 -66 -44.5 -128.5t126.5 -70.5q39 -3 64 -34.5 t20.5 -73.5t-41.5 -70zM831 492l-8 -39q-9 -30 -18 -52.5t-20 -38t-19 -26t-22 -15t-22 -7t-26.5 0t-28.5 4.5t-34 8t-37 9q-32 8 -53 8q-2 0 -4.5 1t-3.5 1q-5 0 -9 -1l-4 -1h-8q-25 0 -49 -6h2q-89 -14 -137 26t-56 121q-2 20 13 91t28 96q43 76 52 86q13 17 46.5 44.5 t55.5 37.5q104 65 240 -25l-2 2q54 -45 93.5 -118t39.5 -146q1 -5 -4 -37q-5 -10 -5 -24z" />
<glyph unicode="r" horiz-adv-x="880" d="M795 123l2 -4l2 -4q6 -15 7.5 -20.5t4.5 -17t1.5 -20t-5.5 -16.5q-10 -31 -35.5 -48.5t-56.5 -17.5q-30 0 -56.5 16.5t-37.5 47.5v-4q-15 25 -39 80q-8 29 -52 100q-16 35 -63 61.5t-80 12.5q-11 -3 -28 -12t-41.5 -31.5t-36.5 -50.5v2q-13 -38 -13 -93q0 -4 1.5 -12.5 t1.5 -17t-3 -17.5q-6 -18 -10 -22l2 4q-24 -57 -88 -57q-34 0 -63.5 21.5t-32.5 47.5l2 -6q-2 19 -2 31v39q-2 10 -2 65v13q-2 14 -2 61v41q0 30 2 57q8 85 4 140v32q0 3 1 10.5t1 10.5v43v45q2 27 2 84q0 10 -1 23.5t-1 17.5v37q-3 32 -1 80.5t5 58.5q0 1 1 5.5t1 6.5 q0 1 1 7.5t1 7.5q0 24 23 51h-2q20 30 63.5 44.5t71.5 14.5h51q90 4 111 -2q33 0 45 -2q67 0 127 -15t115 -55.5t79 -103.5q33 -123 27 -209q-5 -50 -19 -95t-25 -66t-32 -54q-33 -49 -33 -80q0 -15 12 -61q14 -36 32.5 -77.5t21.5 -49.5zM424 514q61 -3 115.5 61t54.5 142 t-64 133q-24 17 -49 20l-26 9q-8 0 -30.5 1t-29.5 1q-70 6 -96.5 -38.5t-26.5 -125.5q0 -20 3 -56.5t4 -48.5q3 -35 25.5 -57t50.5 -30t69 -11z" />
<glyph unicode="s" horiz-adv-x="1034" d="M891 473q17 -33 30.5 -86.5t8.5 -103.5q-14 -71 -35 -120.5t-36.5 -69t-39.5 -42.5l2 4q-4 -6 -14 -16l-33 -29l-51 -35l-16 -8l2 2q-16 -13 -31 -18q-23 -12 -51 -14l-39 -9l-109 -6h-20q-22 0 -41 8l8 -2l-4 2q-97 24 -125 33q-10 8 -14 12l-41 23l-25 20l-20 15l-4 6 q-29 22 -54 49q-1 1 -2.5 3.5l-4.5 7.5t-7 10l-4 6q-7 10 -10 20l-7 8v2q4 -4 -2 7q-2 4 -6 13q-3 5 -4 7q-15 20 -16 25q-4 6 -4 24q0 1 -1 3t-1 3v17v6q-1 6 -1.5 21t-0.5 38q0 47 8 99q0 19 14 41q1 3 9.5 22t11 25t11.5 21.5t15.5 23t17.5 17.5t23 17q70 54 117 74 q18 4 43 4q82 0 102 -65q8 -12 2 -49.5t-32 -57.5l-21 -10h-4l-27 -16l-20 -11q-26 -8 -39 -22q-2 -4 -12 -14h2q-25 -25 -25 -99q0 -19 8 -51l-2 4q9 -41 55.5 -84.5t90.5 -54.5l22 -4q2 0 4.5 -1t3.5 -1q4 -2 11 -2h20q1 0 3.5 -1t4.5 -1h25v-2q94 10 145 51v2l17 16 l14 17q8 4 8 8q29 51 29 114q0 22 -12 62q-6 15 -18.5 32.5t-32.5 38.5t-37 38t-45.5 41.5t-43.5 37l-45 37.5t-38 31q-57 41 -74 63q-16 16 -35.5 46.5t-22.5 44.5q-12 42 -12 65q0 106 66 172q78 72 182 72q3 0 7.5 -1t6.5 -1h15q1 0 4.5 -1t5.5 -1h16l43 -13q1 0 6.5 -1 t6.5 -1q28 -10 59 -40.5t47 -57.5l12 -27q11 -41 5.5 -89.5t-21.5 -73.5q-24 -28 -41 -37q-37 -22 -90 0h4q-59 15 -59 75q0 20 12 50l-2 -9q4 8 4 13q1 11 -12.5 17.5t-30.5 6.5q-31 0 -43 -22q-7 -7 -2 -35q4 -18 25.5 -41.5t43.5 -41t66 -48.5q45 -33 71 -53.5t64 -54 t65.5 -68t47.5 -72.5z" />
<glyph unicode="t" horiz-adv-x="1071" d="M600 549v-74v-65q0 -6 -1 -17.5t-1 -17.5q0 -12 -4 -62q-4 -54 -2 -57l-4 -55q0 -15 1 -36.5t1 -25.5v-28v-22.5t-1 -18t-1.5 -12.5t-2.5 -10.5t-2.5 -7.5t-3.5 -8.5t-4 -8.5v-3q-12 -20 -38.5 -32.5t-53.5 -12.5q-32 0 -58 17.5t-34 52.5q-2 20 -2 45v14q0 2 -1 19.5 t-1 26.5v26q4 25 4 72t2 65q0 68 2 105v37q6 34 6 100q-2 8 -2 25q0 3 -1 9t-1 9q0 6 -1 22t-1 25q0 24 -8.5 52.5t-28 61.5t-61.5 53t-100 17q-37 -4 -70 5q-28 8 -45 49.5t-12 68.5q3 33 37 60t63 24h51q22 3 51 0q16 0 65 -2t75 -2q37 0 51 2q35 2 145 2h119q23 0 35 -2 h-4q40 -4 80 -4q9 1 30.5 -2t26.5 -6q64 -28 59 -98q-6 -45 -12 -56q-30 -43 -80 -43q-17 0 -37 4q-60 4 -82 2q-44 0 -74.5 -18.5t-44 -48.5t-21 -67.5t-5.5 -75.5t2 -72z" />
<glyph unicode="u" horiz-adv-x="1019" d="M80 625v2q-2 25 2 75q0 4 1 16.5t1 16.5q4 17 2 21q0 3 -1 11t-1 11v115q0 17 4 25q0 4 -1 17.5t1 14.5q0 3 1 9.5t1 9.5q2 15 18 37.5t33 29.5h-2q10 5 27 9t46.5 1t51.5 -20q14 -10 23.5 -30t9.5 -35v-27q0 -5 0.5 -11.5t1 -10.5t0.5 -5q-2 -8 -2 -20q0 -3 -1 -9.5 t-1 -9.5q2 -32 -2 -106q0 -12 -1 -36.5t-1 -43.5t2 -33q-7 -39 -4 -71q4 -67 0 -105q5 -43 19 -98.5t24 -65.5q3 -6 21 -33t30 -40q30 -24 70.5 -40t74.5 -16q50 0 86 29q25 21 41 61.5t20.5 83.5t6.5 89.5t0 80.5v51q3 2 8 152q0 17 1 38l1 21v60q-6 37 -6 72q0 59 25 90 q19 24 55 33.5t55 7.5q23 -4 43.5 -23t30.5 -41q0 -4 1 -16.5t1 -16.5q0 -18 2 -32v2q4 -25 0 -74v-39q2 -23 2 -78q0 -7 -4 -53q-9 -73 -4 -88q5 -35 -4 -74q0 -21 -2 -29q0 -3 -1 -9.5t-1 -8.5q0 -21 2 -33q0 -6 1 -21t1 -20v-30q-15 -139 -72 -226l-8 -10l-8 -16 q-87 -87 -223 -133q-4 0 -7 -3l-4 -4q-105 -11 -188 19q-77 28 -137 80l-9 8h3q-33 15 -48 51v-2q-2 6 -12 16q-19 23 -24 37l-13 27v1v-3q-51 139 -55 213q-2 14 -2 72q0 57 2 71q0 39 -4 62z" />
<glyph unicode="v" horiz-adv-x="1040" d="M922 895q-7 -21 -7 -23q-22 -43 -30 -81q-2 -11 -38 -131.5t-48 -153.5q-6 -12 -8 -14l-5 -17v-6q-3 -9 -21.5 -59.5t-41 -115.5t-37.5 -116l-6 -22v2l-6 -19v2l-2 -10q-10 -25 -10 -27q-19 -42 -56.5 -71t-64.5 -37q-20 -7 -60 -8t-71 6q-30 9 -54 32.5t-32 37.5t-13 26 q-12 31 -14 51q-3 3 -4.5 7t-1.5 7v3l-4 12q-16 41 -56 219q-2 4 -2 19q0 1 -1 4t-1 4q-1 2 -9 28t-19 54q-4 12 -4 18q-12 45 -39.5 157t-28.5 124q-5 32 -25 73q-5 11 -8 27q-6 15 -10 37q-4 27 10.5 59t46.5 43q12 8 47 8q36 0 62 -22q15 -11 39 -64q7 -15 4 -28l16 -64 q84 -311 94 -336v-2q9 -34 29 -62.5t45 -42t54 4t51 70.5q0 4 2 6l4 14q1 9 37 113t47 131q0 9 2 12l22 53q0 2 1 13.5t1 13.5l11 20v-2l4 21v4q7 17 17 45t14 39t12 24t18 19q13 8 27 8q19 5 45 2h-2q36 -3 57 -22.5t25 -44t2.5 -44t-6.5 -28.5z" />
<glyph unicode="w" horiz-adv-x="1159" d="M279 55q-10 -20 -32 -36t-55.5 -22t-72.5 11q-27 8 -40 39t-11 49q1 6 0.5 24.5t-2.5 24.5v17v141q0 22 2 27v202q0 203 4 226q-2 19 2 49q0 35 2 49v6q0 9 -1 17.5t-1 11.5v47q3 27 18 51q20 33 67.5 42t76.5 -7l-3 2q32 -12 41 -38.5t9 -65.5v-140q1 -13 0.5 -48 t-2.5 -46q-2 -16 -2 -37v-8q0 -9 -1.5 -29t-1.5 -26q-1 -58 15.5 -85t42.5 -23.5t52.5 19.5t49.5 42l15 14l-5 -2q20 24 58.5 33.5t80 -2.5t64.5 -45l-2 2q19 -28 51 -54q36 -36 71 -25q62 21 77 200q2 20 2 61v76q2 12 2 61q-9 55 0 101q6 40 60 60t94 5q22 -10 36.5 -33.5 t14.5 -46.5q0 -11 -1 -28t-1 -23q0 -7 -0.5 -18.5t-0.5 -22.5t1 -23v-200q8 -46 0 -111v-45q-2 -6 -2 -26v-46q0 -37 2 -57q0 -12 1 -33.5t1 -31.5q0 -37 -4 -48q-2 -20 -2 -108v-10q-3 -48 -17 -70q-6 -9 -14 -18q-34 -34 -93 -26t-94 60q-13 13 -40 62q-33 47 -66 70 q-80 77 -164 77q-81 0 -149 -77q-8 -10 -58 -60q-59 -55 -75 -78z" />
<glyph unicode="x" horiz-adv-x="1007" d="M856 0q-50 -40 -96 -25q-37 9 -72.5 47.5t-40.5 55.5q-3 6 -9 14t-9 14q-11 11 -11 13l-16 37l-4 8q-30 53 -69.5 68t-74.5 -3t-64 -51t-46 -74l-22 -34l-11 -15q-30 -41 -53 -57q-40 -25 -80.5 -22.5t-64.5 24.5q-24 24 -8.5 86.5t45.5 83.5q6 4 32.5 44t34.5 56 q11 24 33 70.5t29.5 64.5t18 54t9 61.5t-8.5 62.5t-24 79q-8 12 -20 24l-53 94l-13 15q0 8 -4 16q0 2 -4 9.5t-10.5 19t-9.5 18.5l-29 55v-2l-18 29q-14 41 3 79.5t74 43.5h-2q35 0 60 -8q40 -16 71 -74q0 -9 7 -16l32 -56q3 -5 17 -22q0 -7 6 -13q30 -47 59 -68.5t49.5 -22 t41 14.5t32 30.5t24.5 37.5t15 25l4 6q2 2 5 7t5 7l33 58l4 8q34 56 70 76q20 8 55 8q86 -5 86 -80q0 -42 -30 -90l-21 -35l-20 -41l-11 -18l-14 -29q-19 -27 -45 -72l-25 -34q-105 -174 54 -386l8 -10l-2 2q10 -19 38 -59t33 -43q7 -7 19 -25q6 -6 18 -24q18 -19 16 -57 t-26 -60z" />
<glyph unicode="y" horiz-adv-x="1069" d="M915 918v2q-28 -32 -55 -103l-14 -20q-5 -9 -135 -226q-18 -30 -33 -66t-23.5 -65t-16.5 -67.5t-11 -58.5t-7.5 -54.5t-5.5 -40.5v2q-2 -14 -1.5 -47.5t3.5 -44.5q0 -1 0.5 -11.5t0.5 -19.5t-2 -23.5t-6 -25.5t-12.5 -22.5t-21.5 -18.5q-42 -21 -79 -18t-58 26 q-5 6 -8.5 12.5t-6.5 13.5t-5 12.5t-3 13t-1.5 12t-1 12.5t-0.5 11v11v9v31v16q0 2 1 7.5t1 8.5q2 39 2 71t-2.5 62.5t-3.5 51.5t-8.5 47.5t-11 41t-16.5 41.5t-19.5 39.5t-25.5 43.5t-28.5 45t-34.5 53l-8 20q-17 30 -32 54t-25.5 39.5t-14.5 21.5q-4 13 -51 92l-4 9 q-11 15 -17 34.5t-5.5 42.5t21 43.5t60.5 32.5q30 8 51 -1t42 -30q25 -25 47 -69q4 -7 11.5 -18t12 -19t6.5 -14q3 -7 26.5 -51t31.5 -62q33 -56 82 -61t93 34t66 103l15 26q1 0 2 1q3 5 10 12q5 15 35 55q1 1 5 8t6.5 11t8 12.5t10 13t12 12.5t14 11.5t16.5 10t19 7 t21.5 3.5t24.5 -1q24 -4 42.5 -17t25.5 -24l6 -12q6 -13 1.5 -42.5t-18.5 -51.5z" />
<glyph unicode="z" horiz-adv-x="1093" d="M942 117l-4 6q12 -15 13.5 -32.5t-2 -27t-11.5 -28.5q-34 -49 -113 -45l4 2q-6 -2 -24 -2h-19q-6 2 -12 2q-4 0 -10 -1t-10 -1q-20 -4 -39 0l-2 -2h-33q-8 4 -95 7t-100 1q-3 0 -12 1t-12 1q-50 5 -58 4q-33 -5 -108 -2q-27 2 -76 2q-40 0 -68 25.5t-28 64.5q0 43 41 92 q16 8 31 33q5 10 22 27l25 26l14 25q0 4 6 10l6 12v-2q3 12 29 43q8 2 18 17l52 78l8 14v4l12 10l6 13l23 30q15 15 24 33q9 19 15 21q10 20 16 26q11 9 21 39q22 23 40 55q22 32 17 56.5t-21 40.5t-46.5 26t-60.5 15t-63 6h-90q-43 0 -68.5 3.5t-46 19.5t-24.5 46 q-6 27 4 54v-2q3 17 13 29t17.5 17.5t25.5 9t22 4t22 1.5q27 2 33 2h13l104 2q8 -4 86 -8t90 -2q5 0 17 -1t16 -1q31 -4 43 -2q37 8 106 4q6 0 23.5 -1t23.5 -1q39 0 72.5 -23t44 -63t-23.5 -94l-35 -48l-27 -34q-21 -36 -145 -199q-2 -4 -6 -8l-6.5 -6.5t-6.5 -8.5 q-51 -85 -53 -86q-9 -13 -18.5 -31t-19.5 -46t-13.5 -54.5t3.5 -54t26.5 -48t61.5 -33t103 -11.5h64q69 0 98 -16q23 -12 35 -35z" />
<glyph unicode="{" horiz-adv-x="518" d="M330 -47q-7 1 -32.5 5t-39 7t-31 11t-26.5 20q-19 19 -29 45q-16 32 -16 49q-6 15 -6 55q0 18 -3 52v55q0 33 -2 51v14q5 59 -3.5 93.5t-39.5 78.5q-8 6 -18 29v-2q-11 36 -4 59q3 35 33 62l2 2l12 14q6 13 13 43.5t7 40.5v154q-2 22 3 61v13q0 26 2 36q0 9 2 13 q1 2 1.5 8t2 12.5t4.5 12.5l-2 -7q4 8 4 13q12 31 22 43l9 12q12 12 20 16l14 13q7 0 9 2q24 8 41 8q8 0 14 2q20 4 39 4q91 0 110 -59q6 -32 2 -66q-1 -13 -12.5 -24t-22 -16t-31.5 -14q-5 -2 -7 -3q-12 -5 -18.5 -17.5t-8.5 -31.5t-2 -34.5t1 -37t1 -29.5v-4q7 -55 0 -110 v-25q0 -5 -1 -15t-1 -16q0 -25 -8 -41q-18 -50 -18 -87t24 -91q2 -10 4 -22q2 -37 2 -60v-49q-4 -4 0 -8v-29q-2 -6 -2 -14q2 -25 2 -35q1 -32 19 -50.5t39.5 -25t39 -25t17.5 -51.5v-12q0 -2 -1 -7.5t-1 -8.5q0 -42 -20 -63t-47 -20t-54 1h-8z" />
<glyph unicode="|" horiz-adv-x="477" d="M127 74v575q4 12 0 25v207q-4 27 -4 80q0 47 2 67q2 25 2 68v80q-7 55 0 85t29 56q5 9 24.5 17t52 5t60.5 -26q13 -11 19 -30.5t6.5 -34.5t0.5 -52q-6 -32 -2 -96q0 -7 1 -22t1 -21q0 -41 -6 -84q-2 -4 -2 -19q8 -39 8 -88v-78q0 -69 -8 -114q0 -90 8 -156q0 -80 -8 -137 q0 -39 8 -86v-162q-8 -30 0 -74v-172l-4 -26q-3 -46 -20 -67.5t-41 -21.5t-53 1q-28 1 -45.5 17t-20.5 40l-3 10l-5 15q-4 20 -4 73q0 47 2 70q2 25 2 76z" />
<glyph unicode="}" horiz-adv-x="542" d="M215 1143l61 -10q9 -5 30.5 -16t29.5 -16t19.5 -17t17.5 -27q1 -2 8 -22t8 -29q6 -15 6 -56q0 -28 2 -51v-55q0 -33 2 -49v-17q-2 -25 -2 -76q2 -9 4 -22t3 -19t4 -15t8.5 -16.5t13.5 -15.5l25 -28q18 -31 10 -66q-2 -5 -6 -15.5t-6.5 -16.5t-8 -14t-12.5 -15l-2 -2 q-23 -23 -28 -65t-5 -187q2 -23 -2 -62v-12q0 -27 -2 -37q0 -6 -2 -10q-3 -9 -5 -16.5t-3.5 -11t-2 -6t-1 -3.5t-0.5 -2q-6 -22 -21 -45l-10 -12q-11 -11 -20 -17l-15 -12q-6 0 -8 -2q-20 -8 -39 -8q-8 0 -14 -2q-6 0 -18 -1t-21 -1q-93 0 -113 57q-2 12 -2 66q13 27 30 40 t29.5 14.5t23.5 11.5t14 32q5 28 2 39v28q2 14 2 41v5q-7 55 0 110v25q0 5 1 15.5t1 16.5q0 25 8 39q37 87 0 156l-6 23q-2 10 -4 24v29q-2 8 -2 28v52q4 4 0 8v29q3 7 0 10q1 36 -10 60t-28 36.5t-34 23t-29 27t-12 41.5v15q0 2 1 7t1 7q0 42 20 63t46.5 20t52.5 -1h10z " />
<glyph unicode="~" horiz-adv-x="956" d="M745 1425q38 0 66 -33t16 -73l-30 -66q-7 -11 -47 -55q-24 -30 -66 -55q-43 -17 -76 -17q-34 0 -84 15l-71 24q-55 18 -96 13t-60.5 -18.5t-46 -27.5t-53.5 -14q-40 0 -59.5 30t-8.5 71q4 16 8.5 24t10 13t6.5 6q19 40 55 81q33 33 63 46q42 20 78 20q13 0 43 -10l27 -8 l74 -21q13 -7 30 -10q21 -8 44.5 -12t54 3t47.5 29q16 19 22 25t20.5 13t32.5 7z" />
<glyph unicode="&#xa2;" horiz-adv-x="790" d="M440 1071q38 0 62 -28.5t24 -65.5q0 -10 2 -16q10 -31 27 -35q4 -2 16 -2q13 -3 41 -13q28 -13 47.5 -43t24.5 -61q2 -24 -2 -41q0 -2 -1 -9.5t-1 -8.5q-6 -38 -50 -57.5t-87 3.5h-2l-31 13l-29 10q4 -2 0 -2q-8 4 -12 4h-16q-35 0 -62 -12q-33 -15 -47 -33 q-23 -23 -35 -58v2q-14 -40 -14 -65q0 -33 14 -68q4 -16 27 -53q10 -8 55 -31q21 -8 62 -8q39 0 57 10q47 35 86 35q40 0 64 -29.5t24 -82.5v-21q0 -30 -21 -61t-51 -45q-24 -6 -28 -6q-3 -1 -11 -3q-43 -17 -43 -32q0 -4 1 -10t1 -7v-14q0 -37 -29.5 -64.5t-70.5 -27.5 q-1 0 -2.5 1t-3.5 1q-37 0 -63.5 26.5t-26.5 63.5v31q-4 31 -51 47l-19 10l6 -4q-7 3 -15.5 8.5t-21.5 16t-16 12.5h-2q-33 24 -57 61q-32 45 -37 58l2 -2l-10 14q-13 19 -23 45q-6 15 -10 51q0 2 -4 14l-2 13l-2 10l2 -10q-8 21 -8 53t10 61l-2 -6q4 8 4 11q57 214 235 286 q9 3 15 16t6 27v13q0 1 1 5t1 9q0 36 29 65t69 29h4z" />
<glyph unicode="&#xa3;" horiz-adv-x="931" d="M315 659v3q20 -52 91 -79.5t120 -27.5q37 0 61.5 -27t24.5 -71q0 -37 -25 -64.5t-61 -27.5h-43q-17 1 -27 -14t-12 -27t-2 -21q0 -27 9.5 -65t33.5 -48l95 -36h-2q20 -6 48.5 6.5t49.5 34.5l4 6q14 25 67 34.5t82 -8.5t40 -40.5t3 -49t-20 -47t-33 -49.5q-14 -18 -43 -43 q-33 -23 -76 -39q-38 -12 -79 -12q-30 0 -54 6h4q-2 0 -6.5 1t-5.5 1q-7 7 -39 12q-3 0 -11 2t-11 2l-33 9l-33 10l-26 10l-48 18h4q-43 11 -71 11q-33 0 -45 -21q-19 -32 -54 -43t-69 4q-60 26 -60 84q0 41 31 80q14 18 39 43q29 26 64 41q28 10 35.5 31.5t7.5 66.5 q0 22 -16 37t-40 15h-12q-13 -5 -41 -5q-39 0 -65.5 25.5t-26.5 63.5v12q2 30 15 47.5t28 23t28.5 16t16 25.5t-9.5 52l2 -2q-14 28 -17 47q-6 27 -6 65q0 43 10 74l-2 -2q5 31 23 68q8 19 39 63l-2 -2q25 33 47 53q14 14 61 47l2 2l15 9q20 13 47 26q39 13 59 15q11 0 17 2 q46 4 71 4q54 0 74 -2q45 -9 70 -19q29 -13 65 -37v2q31 -22 58 -49q33 -38 45 -65q24 -49 32 -74v4q11 -40 11 -53q0 -9 4 -25v2q7 -32 -12 -66t-50 -48q-48 -19 -89 1t-44 68q-2 21 -8 37v8q-4 13 -16 32t-23 30q-36 36 -65 47q-18 6 -56 6q-29 0 -59 -10l2 2 q-36 -15 -78 -51l-4 -5q-25 -28 -31 -45q-6 -14 -6 -61q0 -29 12 -66z" />
<glyph unicode="&#xa4;" horiz-adv-x="1093" d="M905 702l-2 3q4 -2 4 -7q-2 0 -2 4zM84 115q-13 3 -27 20q-21 26 -19 63.5t28 63.5q21 21 24 23l14 14q43 43 43 70q0 17 -22 69l-8 21l-4 16l-9 28v-3q-6 20 -6 67q0 37 8 70v-2l5 20l10 41q9 29 14 33v-2q12 19 6.5 42.5t-41.5 66.5l-39 38q-25 28 -24 66.5t26 63.5 q30 33 74 37t70 -23q5 -6 12 -16.5t12 -16.5l17 -14q32 -21 69 -21q25 0 62 11l70 16q27 8 67 8q38 0 68 -6l59 -16q54 -13 82 -13q30 0 59 29v-2l13 12q3 4 24 29q29 27 67 25.5t64 -27.5l13 -17q25 -28 25.5 -61.5t-25.5 -60.5l-15 -17q-4 -6 -22 -24q-7 -7 -15 -13 t-10 -8l-6 -6l-12 -12q-13 -20 -4 -41v2q11 -22 22 -53v2q0 -5 2 -5q0 -4 2 -4q9 -21 13 -43l4 -20q10 -38 10 -64q0 -23 -10 -71l-4 -19q-1 -6 -6.5 -19t-6.5 -18q-7 -29 -12 -34q-1 -3 -3.5 -9.5t-4 -9t-3.5 -8.5t-2.5 -9t-1 -8t-0.5 -8.5t1.5 -7.5t3.5 -8q2 -1 6 -7t6 -7 q16 -12 31 -27l14 -14l27 -25q27 -29 26 -66.5t-26 -66.5l-11 -10q-26 -26 -63.5 -25t-65.5 29l-38 39q-13 12 -23 20t-20.5 11.5l-16.5 5.5t-17.5 0t-16.5 -3.5t-20 -7.5t-22 -8l-8 -2q-23 -12 -61 -20q-33 -7 -108.5 2.5t-98.5 17.5l-29 12q-19 6 -32 7t-25 -4.5 t-21 -12.5t-24 -22q-23 -23 -29 -27l-14 -14q-26 -23 -61 -23.5t-60 21.5zM707 504l6 123q-12 47 -45 88q-24 17 -78.5 35t-73.5 18q-35 0 -55 -6q-21 -3 -43 -21q-43 -21 -78 -77q-11 -22 -18 -43q0 -2 -3.5 -24t-3.5 -34q0 -42 29 -98q5 -9 14.5 -19.5t12.5 -15.5l10 -10 q26 -21 33 -25h2q35 -22 47 -22q14 -4 53 -4q61 0 94 22l-4 -4l15 10q25 17 34 27q39 39 52 80z" />
<glyph unicode="&#xa5;" horiz-adv-x="1097" d="M877 842l-3 -4q-7 -14 -16 -23q-14 -27 -80 -137q-5 -6 -5.5 -13t1.5 -10.5t4 -3.5h60q50 -6 73 -36t18 -63.5t-30 -61.5t-61 -31h-60q-14 0 -34.5 1t-26.5 1q-5 0 -9 0.5t-6 0.5t-3.5 0.5t-2.5 0.5h-16q-41 -5 -42.5 -21.5t44.5 -19.5h96q21 0 29 2q3 0 14 1t17 1 q38 0 66 -27.5t28 -64.5q0 -13 -4 -21q-3 -33 -29.5 -56.5t-60.5 -23.5h-64q-18 0 -39 3q-2 0 -11 1t-15 1h-35q-75 0 -51 -107q13 -94 -41 -123q-42 -21 -80.5 -17.5t-59.5 27.5q-5 6 -9 12.5t-7 13.5t-5 12t-3.5 13t-2 12t-1 12.5t-0.5 11v11v9.5q2 3 2 12t-2 13 q-1 56 -28 69.5t-122 13.5q-9 0 -19.5 1.5t-13.5 1.5h-30q-35 -4 -63.5 20.5t-31.5 50.5q0 50 27 82.5t66 32.5q9 0 18 1t12 1h29q9 0 19 1t12 1h30q33 -5 65 12q24 14 2 20q-16 5 -54 3q-8 0 -25 -1t-22 -1h-86q-38 0 -65 33t-25 77q1 34 28 58t62 24h57q4 0 8.5 5t6.5 16 t-7 28l-8 17q-41 74 -72 110l-51 103l-4 8q-11 16 -17.5 35.5t-6 43t21.5 44.5t61 33q54 14 95 -31q8 -8 19 -25t29.5 -48t30.5 -50q2 -4 17 -20q0 -1 8.5 -21.5t19 -44t15.5 -29.5l47 -71q21 -33 55 -33q39 0 56 27q31 59 88 153l14 27q1 1 1.5 2t3 4t7.5 8q11 25 37 55 q11 19 17 28t24 30t43 29.5t55 5.5q24 -4 43 -18.5t26 -27.5l7 -12q6 -12 2 -42.5t-18 -51.5v2q-26 -39 -53 -98z" />
<glyph unicode="&#xad;" horiz-adv-x="952" d="M655 432h-53q-28 0 -62 1t-44 1q-45 3 -109 0h-141q-51 4 -82 31q-19 24 -19 76q10 64 64 82l27 4q35 -2 62 -1t124.5 4t191.5 3q40 0 50 -2q12 0 18 2q47 10 90 -17q28 -25 33 -53v2q3 -7 3 -28t-3 -29q-9 -39 -45 -59q-34 -15 -60 -15q-31 0 -45 -2z" />
<glyph unicode="&#xb4;" horiz-adv-x="944" d="M313 1774l39 61q4 6 9.5 14t10 14t9.5 11q13 13 18 20v-2q15 27 47 45.5t62 18.5h29q5 0 16 -1t14 -1h21q46 0 62 -44.5t-13 -78.5l-29 -29l-49 -49h-2q-15 -17 -31 -29l-20 -20q-7 -6 -17 -16l-16 -15q-55 -55 -154 -55q5 2 23 2q-42 5 -60.5 39.5t5.5 71.5q4 4 5.5 7 t1.5 5.5t1 3.5z" />
<glyph unicode="&#xc0;" d="M1651 1673l2 -2q26 -37 3 -73.5t-69 -36.5q-3 0 -5.5 -1t-4.5 -1q-29 0 -59.5 17t-51.5 40l-16 14q-1 0 -2 1t-4.5 5.5t-9.5 10.5l-21 20q-12 5 -31 29h13q-18 0 -39 24l-53 54q-29 32 -12.5 76t61.5 44q14 0 20 2q2 0 14 1t17 1h29q30 0 61.5 -18t48.5 -45v2 q5 -10 17 -22q12 -10 28 -39l39 -64l19 -22zM2435 -518v-2v2q25 -100 -65 -236q-18 -29 -83 -80t-106 -65q-39 -12 -135 -23q-58 0 -86 9q-11 0 -23 8l11 -2q-2 2 -9 2q-70 21 -210 108q-15 11 -23 27l-8 8q-10 8 -19 25l-6 4l-16 24l-47 68l-25 51l-4 15l-16 43q-3 3 -6 12 q-7 14 -7 22q-21 69 -26 109l-2 12q-9 16 -13 41v17q0 2 -1 5.5t-1 4.5v-4q-5 29 -10 155q-2 6 -2 27v272q0 99 -6 146q-2 38 -25 77t-53 48q-6 0 -51 10q-32 4 -45 10q-5 0 -12 1t-9 1q-8 2 -14 2q-35 7 -85.5 -24.5t-86.5 -92.5q-9 -13 -23 -45q-5 -10 -8.5 -15.5 t-11.5 -18.5t-20 -33l2 2q-11 -22 -11 -27q-20 -61 -38 -80q-4 -3 -7 -6q-14 -18 -20 -35l-6 -12l-9 -16l-12 -15q-14 -29 -96 -131q-33 -24 -51 -49l-15 -12q-8 -12 -22 -23l-29 -30q-37 -29 -55 -41q-60 -20 -64 -21l-6 -4l-24 -10l-17 -2h11l-17 -4q-21 -7 -63 -19 q-38 -6 -99 -6h-30q-12 0 -29.5 5.5t-38.5 13t-31 10.5l-16 6q-11 5 -37 19.5t-39 19.5l2 -2q-10 5 -16 10q-13 6 -17 12q-19 11 -41 33q-11 14 -45 75t-43 83q0 8 -2 12q-13 48 -16 88q-2 13 2 43l10 60q0 1 1 3t1 3q0 12 4 20q0 2 1 8t1 7q5 5 5 12q7 34 22 63l-2 -4 q21 37 43 62q3 6 16 16q32 35 70 62q69 42 115 51q37 12 108 12q2 0 7 -1t8 -1h24q29 0 37 -2q19 -2 62 -12q34 -6 55 -41q11 -11 14 -43q3 -21 -11 -54.5t-28 -46.5q-27 -16 -73 -16q-27 0 -48 8q-3 1 -7 2.5t-6 2.5t-3 1h-14q-4 0 -13 1t-16 1h-16q-24 0 -56 -14l-57 -33 l-8 -12l-23 -25l-10 -18v-12q0 -2 -1 -9.5t-1 -9.5l-6 -31v-16q-2 -29 5.5 -53t37.5 -80l24 -23q21 -21 64 -39t74 -18q52 0 84 4q6 0 6 4l41 17l96 65q26 21 80 86l-2 -2l10 17l16 20l19 27q13 14 33 45l53 96q2 2 14 41v-2q12 34 29 65v-2l4 13l4 6q55 90 82 182q0 3 2 14 l2 11l8 10l6 8v2l9 21l-2 -7l10 19l14 35l17 43l12 22q41 85 61 139v-6q7 26 45 113l-2 -2q17 41 37.5 85.5t50 104t41.5 84.5l64 125l22 41v-2q21 37 54 60q65 26 118 26q58 0 113 -33q0 -2 2 -4l18 -14q5 -6 13 -17t12.5 -17t8.5 -14t5 -15l7 -60q8 -87 6 -149 q-4 -28 -4 -35q0 -3 -5 -43q-7 -43 -4 -86q-2 -12 -2 -19q0 -38 -2 -108v-98q3 -7 2.5 -18.5t-2.5 -32t-2 -25.5q-2 -10 2 -49q2 -25 2 -82q0 -58 -10 -140q0 -44 -4 -114v-11l-2 -40q0 -13 -4 -29l2 4q-4 -23 -2 -33l-2 -69v-37q0 -72 8 -236q0 -6 1 -17.5t1 -17.5 q2 -14 2 -55q0 -29 2 -47v2l6 -37q10 -123 56 -209q29 -60 32 -63l19 -21l-2 2q22 -33 71 -80q9 -13 17 -12l33 -20q17 0 26 -6q35 -7 37 -7h29l35 -2q11 0 53 19l26 12q2 4 10 9l9 5q8 5 26 23q28 28 31 98q-8 38 10 70l-2 -2q10 21 30.5 34t35.5 16l16 3q2 0 8 2 q35 -4 62 -22q37 -24 49 -74zM1518 1110q-2 60 -27 55q-25 -4 -53 -62q-2 -4 -4 -9q-7 -20 -25 -59.5t-23 -53.5l-18 -39l-41 -102l-6 -25l-10 -33l-4 -10q-7 -14 -9 -24q-9 -28 4 -70t54 -45q9 -1 29 -4.5t32 -5.5t28.5 0.5t27 11t19.5 27.5t13 49q6 31 6 94v65q-3 40 0 80 q0 10 5 27q2 16 2 133z" />
<glyph unicode="&#xc1;" d="M1473 1755l38 60q18 27 31 38q1 1 6 7.5t11 15.5v-2q15 27 47 45t63 18h27q7 0 17.5 -1t12.5 -1q6 -2 23 -2q45 0 60.5 -44.5t-13.5 -78.5q-4 -5 -16 -16l-13 -12l-47 -47h-2q-19 -21 -32 -31l-21 -18q-5 -5 -8 -8.5t-4.5 -5.5t-2 -3t-1.5 -2l-15 -12 q-45 -42 -97.5 -52.5t-81 18.5t-9.5 89q4 4 6 7.5t2.5 5t0.5 3.5t1 3zM2435 -518v-2v2q25 -100 -65 -236q-18 -29 -83 -80t-106 -65q-39 -12 -135 -23q-58 0 -86 9q-11 0 -23 8l11 -2q-2 2 -9 2q-70 21 -210 108q-15 11 -23 27l-8 8q-10 8 -19 25l-6 4l-16 24l-47 68l-25 51 l-4 15l-16 43q-3 3 -6 12q-7 14 -7 22q-21 69 -26 109l-2 12q-9 16 -13 41v17q0 2 -1 5.5t-1 4.5v-4q-5 29 -10 155q-2 6 -2 27v272q0 99 -6 146q-2 38 -25 77t-53 48q-6 0 -51 10q-32 4 -45 10q-5 0 -12 1t-9 1q-8 2 -14 2q-35 7 -85.5 -24.5t-86.5 -92.5q-9 -13 -23 -45 q-5 -10 -8.5 -15.5t-11.5 -18.5t-20 -33l2 2q-11 -22 -11 -27q-20 -61 -38 -80q-4 -3 -7 -6q-14 -18 -20 -35l-6 -12l-9 -16l-12 -15q-14 -29 -96 -131q-33 -24 -51 -49l-15 -12q-8 -12 -22 -23l-29 -30q-37 -29 -55 -41q-60 -20 -64 -21l-6 -4l-24 -10l-17 -2h11l-17 -4 q-21 -7 -63 -19q-38 -6 -99 -6h-30q-12 0 -29.5 5.5t-38.5 13t-31 10.5l-16 6q-11 5 -37 19.5t-39 19.5l2 -2q-10 5 -16 10q-13 6 -17 12q-19 11 -41 33q-11 14 -45 75t-43 83q0 8 -2 12q-13 48 -16 88q-2 13 2 43l10 60q0 1 1 3t1 3q0 12 4 20q0 2 1 8t1 7q5 5 5 12 q7 34 22 63l-2 -4q21 37 43 62q3 6 16 16q32 35 70 62q69 42 115 51q37 12 108 12q2 0 7 -1t8 -1h24q29 0 37 -2q19 -2 62 -12q34 -6 55 -41q11 -11 14 -43q3 -21 -11 -54.5t-28 -46.5q-27 -16 -73 -16q-27 0 -48 8q-3 1 -7 2.5t-6 2.5t-3 1h-14q-4 0 -13 1t-16 1h-16 q-24 0 -56 -14l-57 -33l-8 -12l-23 -25l-10 -18v-12q0 -2 -1 -9.5t-1 -9.5l-6 -31v-16q-2 -29 5.5 -53t37.5 -80l24 -23q21 -21 64 -39t74 -18q52 0 84 4q6 0 6 4l41 17l96 65q26 21 80 86l-2 -2l10 17l16 20l19 27q13 14 33 45l53 96q2 2 14 41v-2q12 34 29 65v-2l4 13l4 6 q55 90 82 182q0 3 2 14l2 11l8 10l6 8v2l9 21l-2 -7l10 19l14 35l17 43l12 22q41 85 61 139v-6q7 26 45 113l-2 -2q17 41 37.5 85.5t50 104t41.5 84.5l64 125l22 41v-2q21 37 54 60q65 26 118 26q58 0 113 -33q0 -2 2 -4l18 -14q5 -6 13 -17t12.5 -17t8.5 -14t5 -15l7 -60 q8 -87 6 -149q-4 -28 -4 -35q0 -3 -5 -43q-7 -43 -4 -86q-2 -12 -2 -19q0 -38 -2 -108v-98q3 -7 2.5 -18.5t-2.5 -32t-2 -25.5q-2 -10 2 -49q2 -25 2 -82q0 -58 -10 -140q0 -44 -4 -114v-11l-2 -40q0 -13 -4 -29l2 4q-4 -23 -2 -33l-2 -69v-37q0 -72 8 -236q0 -6 1 -17.5 t1 -17.5q2 -14 2 -55q0 -29 2 -47v2l6 -37q10 -123 56 -209q29 -60 32 -63l19 -21l-2 2q22 -33 71 -80q9 -13 17 -12l33 -20q17 0 26 -6q35 -7 37 -7h29l35 -2q11 0 53 19l26 12q2 4 10 9l9 5q8 5 26 23q28 28 31 98q-8 38 10 70l-2 -2q10 21 30.5 34t35.5 16l16 3q2 0 8 2 q35 -4 62 -22q37 -24 49 -74zM1518 1110q-2 60 -27 55q-25 -4 -53 -62q-2 -4 -4 -9q-7 -20 -25 -59.5t-23 -53.5l-18 -39l-41 -102l-6 -25l-10 -33l-4 -10q-7 -14 -9 -24q-9 -28 4 -70t54 -45q9 -1 29 -4.5t32 -5.5t28.5 0.5t27 11t19.5 27.5t13 49q6 31 6 94v65q-3 40 0 80 q0 10 5 27q2 16 2 133z" />
<glyph unicode="&#xc2;" d="M1409 1837q37 48 104 61l-2 -2q48 9 64 7q1 0 8.5 -1t13.5 -1q30 0 63 -23.5t50 -50.5l16 -27l27 -33q3 -7 14 -18q24 -24 31 -35l17 -26q0 -5 12 -19q26 -32 8 -80.5t-61 -48.5h-33q-31 0 -61 18t-46 44l2 -3l-18 25l-16 25q-24 30 -48 30q-16 0 -38 -28l-15 -23 l-16 -26q-50 -71 -117 -62l-6 2q-7 0 -27 6q-34 7 -45.5 50.5t10.5 78.5l13 15l14 18v-2l16 31q2 2 7 11.5t12 18.5l24 35zM2435 -518v-2v2q25 -100 -65 -236q-18 -29 -83 -80t-106 -65q-39 -12 -135 -23q-58 0 -86 9q-11 0 -23 8l11 -2q-2 2 -9 2q-70 21 -210 108 q-15 11 -23 27l-8 8q-10 8 -19 25l-6 4l-16 24l-47 68l-25 51l-4 15l-16 43q-3 3 -6 12q-7 14 -7 22q-21 69 -26 109l-2 12q-9 16 -13 41v17q0 2 -1 5.5t-1 4.5v-4q-5 29 -10 155q-2 6 -2 27v272q0 99 -6 146q-2 38 -25 77t-53 48q-6 0 -51 10q-32 4 -45 10q-5 0 -12 1t-9 1 q-8 2 -14 2q-35 7 -85.5 -24.5t-86.5 -92.5q-9 -13 -23 -45q-5 -10 -8.5 -15.5t-11.5 -18.5t-20 -33l2 2q-11 -22 -11 -27q-20 -61 -38 -80q-4 -3 -7 -6q-14 -18 -20 -35l-6 -12l-9 -16l-12 -15q-14 -29 -96 -131q-33 -24 -51 -49l-15 -12q-8 -12 -22 -23l-29 -30 q-37 -29 -55 -41q-60 -20 -64 -21l-6 -4l-24 -10l-17 -2h11l-17 -4q-21 -7 -63 -19q-38 -6 -99 -6h-30q-12 0 -29.5 5.5t-38.5 13t-31 10.5l-16 6q-11 5 -37 19.5t-39 19.5l2 -2q-10 5 -16 10q-13 6 -17 12q-19 11 -41 33q-11 14 -45 75t-43 83q0 8 -2 12q-13 48 -16 88 q-2 13 2 43l10 60q0 1 1 3t1 3q0 12 4 20q0 2 1 8t1 7q5 5 5 12q7 34 22 63l-2 -4q21 37 43 62q3 6 16 16q32 35 70 62q69 42 115 51q37 12 108 12q2 0 7 -1t8 -1h24q29 0 37 -2q19 -2 62 -12q34 -6 55 -41q11 -11 14 -43q3 -21 -11 -54.5t-28 -46.5q-27 -16 -73 -16 q-27 0 -48 8q-3 1 -7 2.5t-6 2.5t-3 1h-14q-4 0 -13 1t-16 1h-16q-24 0 -56 -14l-57 -33l-8 -12l-23 -25l-10 -18v-12q0 -2 -1 -9.5t-1 -9.5l-6 -31v-16q-2 -29 5.5 -53t37.5 -80l24 -23q21 -21 64 -39t74 -18q52 0 84 4q6 0 6 4l41 17l96 65q26 21 80 86l-2 -2l10 17l16 20 l19 27q13 14 33 45l53 96q2 2 14 41v-2q12 34 29 65v-2l4 13l4 6q55 90 82 182q0 3 2 14l2 11l8 10l6 8v2l9 21l-2 -7l10 19l14 35l17 43l12 22q41 85 61 139v-6q7 26 45 113l-2 -2q17 41 37.5 85.5t50 104t41.5 84.5l64 125l22 41v-2q21 37 54 60q65 26 118 26 q58 0 113 -33q0 -2 2 -4l18 -14q5 -6 13 -17t12.5 -17t8.5 -14t5 -15l7 -60q8 -87 6 -149q-4 -28 -4 -35q0 -3 -5 -43q-7 -43 -4 -86q-2 -12 -2 -19q0 -38 -2 -108v-98q3 -7 2.5 -18.5t-2.5 -32t-2 -25.5q-2 -10 2 -49q2 -25 2 -82q0 -58 -10 -140q0 -44 -4 -114v-11l-2 -40 q0 -13 -4 -29l2 4q-4 -23 -2 -33l-2 -69v-37q0 -72 8 -236q0 -6 1 -17.5t1 -17.5q2 -14 2 -55q0 -29 2 -47v2l6 -37q10 -123 56 -209q29 -60 32 -63l19 -21l-2 2q22 -33 71 -80q9 -13 17 -12l33 -20q17 0 26 -6q35 -7 37 -7h29l35 -2q11 0 53 19l26 12q2 4 10 9l9 5 q8 5 26 23q28 28 31 98q-8 38 10 70l-2 -2q10 21 30.5 34t35.5 16l16 3q2 0 8 2q35 -4 62 -22q37 -24 49 -74zM1518 1110q-2 60 -27 55q-25 -4 -53 -62q-2 -4 -4 -9q-7 -20 -25 -59.5t-23 -53.5l-18 -39l-41 -102l-6 -25l-10 -33l-4 -10q-7 -14 -9 -24q-9 -28 4 -70t54 -45 q9 -1 29 -4.5t32 -5.5t28.5 0.5t27 11t19.5 27.5t13 49q6 31 6 94v65q-3 40 0 80q0 10 5 27q2 16 2 133z" />
<glyph unicode="&#xc3;" d="M1823 1888q37 0 65 -33.5t15 -72.5q-7 -28 -23 -49l4 8l-12 -25q-13 -19 -45 -55q-24 -31 -68 -55q-39 -17 -73 -17q-22 0 -84 15l-72 24l-66 25h2q-32 8 -43 8q-25 0 -32 -10q-18 -27 -53 -48.5t-64 -21.5q-41 0 -60.5 30.5t-7.5 69.5q3 12 7 20.5t6 11t5.5 6t4.5 5.5 q15 14 16 17v2q13 31 41 63q25 28 64 45l-2 -2q41 23 79 23q13 0 43 -10l27 -9l49 -12h-4l29 -8q9 -6 31 -10l38 -11h-4q8 -1 21 -4t21.5 -4.5t13.5 -1.5q22 0 43 27l12 14q17 24 33 34.5t43 10.5zM2435 -518v-2v2q25 -100 -65 -236q-18 -29 -83 -80t-106 -65 q-39 -12 -135 -23q-58 0 -86 9q-11 0 -23 8l11 -2q-2 2 -9 2q-70 21 -210 108q-15 11 -23 27l-8 8q-10 8 -19 25l-6 4l-16 24l-47 68l-25 51l-4 15l-16 43q-3 3 -6 12q-7 14 -7 22q-21 69 -26 109l-2 12q-9 16 -13 41v17q0 2 -1 5.5t-1 4.5v-4q-5 29 -10 155q-2 6 -2 27v272 q0 99 -6 146q-2 38 -25 77t-53 48q-6 0 -51 10q-32 4 -45 10q-5 0 -12 1t-9 1q-8 2 -14 2q-35 7 -85.5 -24.5t-86.5 -92.5q-9 -13 -23 -45q-5 -10 -8.5 -15.5t-11.5 -18.5t-20 -33l2 2q-11 -22 -11 -27q-20 -61 -38 -80q-4 -3 -7 -6q-14 -18 -20 -35l-6 -12l-9 -16l-12 -15 q-14 -29 -96 -131q-33 -24 -51 -49l-15 -12q-8 -12 -22 -23l-29 -30q-37 -29 -55 -41q-60 -20 -64 -21l-6 -4l-24 -10l-17 -2h11l-17 -4q-21 -7 -63 -19q-38 -6 -99 -6h-30q-12 0 -29.5 5.5t-38.5 13t-31 10.5l-16 6q-11 5 -37 19.5t-39 19.5l2 -2q-10 5 -16 10 q-13 6 -17 12q-19 11 -41 33q-11 14 -45 75t-43 83q0 8 -2 12q-13 48 -16 88q-2 13 2 43l10 60q0 1 1 3t1 3q0 12 4 20q0 2 1 8t1 7q5 5 5 12q7 34 22 63l-2 -4q21 37 43 62q3 6 16 16q32 35 70 62q69 42 115 51q37 12 108 12q2 0 7 -1t8 -1h24q29 0 37 -2q19 -2 62 -12 q34 -6 55 -41q11 -11 14 -43q3 -21 -11 -54.5t-28 -46.5q-27 -16 -73 -16q-27 0 -48 8q-3 1 -7 2.5t-6 2.5t-3 1h-14q-4 0 -13 1t-16 1h-16q-24 0 -56 -14l-57 -33l-8 -12l-23 -25l-10 -18v-12q0 -2 -1 -9.5t-1 -9.5l-6 -31v-16q-2 -29 5.5 -53t37.5 -80l24 -23 q21 -21 64 -39t74 -18q52 0 84 4q6 0 6 4l41 17l96 65q26 21 80 86l-2 -2l10 17l16 20l19 27q13 14 33 45l53 96q2 2 14 41v-2q12 34 29 65v-2l4 13l4 6q55 90 82 182q0 3 2 14l2 11l8 10l6 8v2l9 21l-2 -7l10 19l14 35l17 43l12 22q41 85 61 139v-6q7 26 45 113l-2 -2 q17 41 37.5 85.5t50 104t41.5 84.5l64 125l22 41v-2q21 37 54 60q65 26 118 26q58 0 113 -33q0 -2 2 -4l18 -14q5 -6 13 -17t12.5 -17t8.5 -14t5 -15l7 -60q8 -87 6 -149q-4 -28 -4 -35q0 -3 -5 -43q-7 -43 -4 -86q-2 -12 -2 -19q0 -38 -2 -108v-98q3 -7 2.5 -18.5t-2.5 -32 t-2 -25.5q-2 -10 2 -49q2 -25 2 -82q0 -58 -10 -140q0 -44 -4 -114v-11l-2 -40q0 -13 -4 -29l2 4q-4 -23 -2 -33l-2 -69v-37q0 -72 8 -236q0 -6 1 -17.5t1 -17.5q2 -14 2 -55q0 -29 2 -47v2l6 -37q10 -123 56 -209q29 -60 32 -63l19 -21l-2 2q22 -33 71 -80q9 -13 17 -12 l33 -20q17 0 26 -6q35 -7 37 -7h29l35 -2q11 0 53 19l26 12q2 4 10 9l9 5q8 5 26 23q28 28 31 98q-8 38 10 70l-2 -2q10 21 30.5 34t35.5 16l16 3q2 0 8 2q35 -4 62 -22q37 -24 49 -74zM1518 1110q-2 60 -27 55q-25 -4 -53 -62q-2 -4 -4 -9q-7 -20 -25 -59.5t-23 -53.5 l-18 -39l-41 -102l-6 -25l-10 -33l-4 -10q-7 -14 -9 -24q-9 -28 4 -70t54 -45q9 -1 29 -4.5t32 -5.5t28.5 0.5t27 11t19.5 27.5t13 49q6 31 6 94v65q-3 40 0 80q0 10 5 27q2 16 2 133z" />
<glyph unicode="&#xc4;" d="M1272 1737q0 32 35 67t69 35q8 0 13 -0.5t7 -0.5l3 -1h20q35 0 67 -36t32 -70q0 -23 2 -25q6 -24 6 -43q0 -35 -36 -69.5t-71 -34.5h-20l-3 1q-2 0 -7 0.5t-13 0.5q-35 0 -69.5 36t-36.5 70q-1 11 -1 18.5t1 12.5v4q0 1 0.5 5t1 12t0.5 18zM1579 1735q0 32 31.5 67 t66.5 35h49q34 0 71.5 -35.5t37.5 -66.5v-39q0 -2 1 -13t1 -24q0 -35 -33.5 -67.5t-68.5 -32.5h-39q-40 0 -78.5 35.5t-40.5 70.5v37l1 4q0 3 0.5 11t0.5 18zM2435 -518v-2v2q25 -100 -65 -236q-18 -29 -83 -80t-106 -65q-39 -12 -135 -23q-58 0 -86 9q-11 0 -23 8l11 -2 q-2 2 -9 2q-70 21 -210 108q-15 11 -23 27l-8 8q-10 8 -19 25l-6 4l-16 24l-47 68l-25 51l-4 15l-16 43q-3 3 -6 12q-7 14 -7 22q-21 69 -26 109l-2 12q-9 16 -13 41v17q0 2 -1 5.5t-1 4.5v-4q-5 29 -10 155q-2 6 -2 27v272q0 99 -6 146q-2 38 -25 77t-53 48q-6 0 -51 10 q-32 4 -45 10q-5 0 -12 1t-9 1q-8 2 -14 2q-35 7 -85.5 -24.5t-86.5 -92.5q-9 -13 -23 -45q-5 -10 -8.5 -15.5t-11.5 -18.5t-20 -33l2 2q-11 -22 -11 -27q-20 -61 -38 -80q-4 -3 -7 -6q-14 -18 -20 -35l-6 -12l-9 -16l-12 -15q-14 -29 -96 -131q-33 -24 -51 -49l-15 -12 q-8 -12 -22 -23l-29 -30q-37 -29 -55 -41q-60 -20 -64 -21l-6 -4l-24 -10l-17 -2h11l-17 -4q-21 -7 -63 -19q-38 -6 -99 -6h-30q-12 0 -29.5 5.5t-38.5 13t-31 10.5l-16 6q-11 5 -37 19.5t-39 19.5l2 -2q-10 5 -16 10q-13 6 -17 12q-19 11 -41 33q-11 14 -45 75t-43 83 q0 8 -2 12q-13 48 -16 88q-2 13 2 43l10 60q0 1 1 3t1 3q0 12 4 20q0 2 1 8t1 7q5 5 5 12q7 34 22 63l-2 -4q21 37 43 62q3 6 16 16q32 35 70 62q69 42 115 51q37 12 108 12q2 0 7 -1t8 -1h24q29 0 37 -2q19 -2 62 -12q34 -6 55 -41q11 -11 14 -43q3 -21 -11 -54.5 t-28 -46.5q-27 -16 -73 -16q-27 0 -48 8q-3 1 -7 2.5t-6 2.5t-3 1h-14q-4 0 -13 1t-16 1h-16q-24 0 -56 -14l-57 -33l-8 -12l-23 -25l-10 -18v-12q0 -2 -1 -9.5t-1 -9.5l-6 -31v-16q-2 -29 5.5 -53t37.5 -80l24 -23q21 -21 64 -39t74 -18q52 0 84 4q6 0 6 4l41 17l96 65 q26 21 80 86l-2 -2l10 17l16 20l19 27q13 14 33 45l53 96q2 2 14 41v-2q12 34 29 65v-2l4 13l4 6q55 90 82 182q0 3 2 14l2 11l8 10l6 8v2l9 21l-2 -7l10 19l14 35l17 43l12 22q41 85 61 139v-6q7 26 45 113l-2 -2q17 41 37.5 85.5t50 104t41.5 84.5l64 125l22 41v-2 q21 37 54 60q65 26 118 26q58 0 113 -33q0 -2 2 -4l18 -14q5 -6 13 -17t12.5 -17t8.5 -14t5 -15l7 -60q8 -87 6 -149q-4 -28 -4 -35q0 -3 -5 -43q-7 -43 -4 -86q-2 -12 -2 -19q0 -38 -2 -108v-98q3 -7 2.5 -18.5t-2.5 -32t-2 -25.5q-2 -10 2 -49q2 -25 2 -82q0 -58 -10 -140 q0 -44 -4 -114v-11l-2 -40q0 -13 -4 -29l2 4q-4 -23 -2 -33l-2 -69v-37q0 -72 8 -236q0 -6 1 -17.5t1 -17.5q2 -14 2 -55q0 -29 2 -47v2l6 -37q10 -123 56 -209q29 -60 32 -63l19 -21l-2 2q22 -33 71 -80q9 -13 17 -12l33 -20q17 0 26 -6q35 -7 37 -7h29l35 -2q11 0 53 19 l26 12q2 4 10 9l9 5q8 5 26 23q28 28 31 98q-8 38 10 70l-2 -2q10 21 30.5 34t35.5 16l16 3q2 0 8 2q35 -4 62 -22q37 -24 49 -74zM1518 1110q-2 60 -27 55q-25 -4 -53 -62q-2 -4 -4 -9q-7 -20 -25 -59.5t-23 -53.5l-18 -39l-41 -102l-6 -25l-10 -33l-4 -10q-7 -14 -9 -24 q-9 -28 4 -70t54 -45q9 -1 29 -4.5t32 -5.5t28.5 0.5t27 11t19.5 27.5t13 49q6 31 6 94v65q-3 40 0 80q0 10 5 27q2 16 2 133z" />
<glyph unicode="&#xc5;" d="M1536 1999q15 0 80 -17q26 -10 70 -49q27 -27 45 -71q20 -54 20 -80q0 -42 -16 -82q-15 -38 -49 -72q-29 -29 -72 -47q-25 -8 -68 -8h-10q-52 0 -82 12q-33 13 -65 45q-29 23 -50 72q-20 42 -20 80q12 44 19 68q1 4 1 5q23 57 45 76q15 16 56 37l16 8q58 23 80 23z M1536 1737q8 0 20 4q16 8 21 18q0 1 3 9.5t3 13.5q0 22 -29 39q-4 4 -18 4q-18 0 -20 -2q-4 -2 -9.5 -5.5t-9 -5.5t-6.5 -4q-2 -6 -2 -26q0 -14 8 -25q5 -12 14 -18q2 -2 19 -2h6zM2435 -518v-2v2q25 -100 -65 -236q-18 -29 -83 -80t-106 -65q-39 -12 -135 -23q-58 0 -86 9 q-11 0 -23 8l11 -2q-2 2 -9 2q-70 21 -210 108q-15 11 -23 27l-8 8q-10 8 -19 25l-6 4l-16 24l-47 68l-25 51l-4 15l-16 43q-3 3 -6 12q-7 14 -7 22q-21 69 -26 109l-2 12q-9 16 -13 41v17q0 2 -1 5.5t-1 4.5v-4q-5 29 -10 155q-2 6 -2 27v272q0 99 -6 146q-2 38 -25 77 t-53 48q-6 0 -51 10q-32 4 -45 10q-5 0 -12 1t-9 1q-8 2 -14 2q-35 7 -85.5 -24.5t-86.5 -92.5q-9 -13 -23 -45q-5 -10 -8.5 -15.5t-11.5 -18.5t-20 -33l2 2q-11 -22 -11 -27q-20 -61 -38 -80q-4 -3 -7 -6q-14 -18 -20 -35l-6 -12l-9 -16l-12 -15q-14 -29 -96 -131 q-33 -24 -51 -49l-15 -12q-8 -12 -22 -23l-29 -30q-37 -29 -55 -41q-60 -20 -64 -21l-6 -4l-24 -10l-17 -2h11l-17 -4q-21 -7 -63 -19q-38 -6 -99 -6h-30q-12 0 -29.5 5.5t-38.5 13t-31 10.5l-16 6q-11 5 -37 19.5t-39 19.5l2 -2q-10 5 -16 10q-13 6 -17 12q-19 11 -41 33 q-11 14 -45 75t-43 83q0 8 -2 12q-13 48 -16 88q-2 13 2 43l10 60q0 1 1 3t1 3q0 12 4 20q0 2 1 8t1 7q5 5 5 12q7 34 22 63l-2 -4q21 37 43 62q3 6 16 16q32 35 70 62q69 42 115 51q37 12 108 12q2 0 7 -1t8 -1h24q29 0 37 -2q19 -2 62 -12q34 -6 55 -41q11 -11 14 -43 q3 -21 -11 -54.5t-28 -46.5q-27 -16 -73 -16q-27 0 -48 8q-3 1 -7 2.5t-6 2.5t-3 1h-14q-4 0 -13 1t-16 1h-16q-24 0 -56 -14l-57 -33l-8 -12l-23 -25l-10 -18v-12q0 -2 -1 -9.5t-1 -9.5l-6 -31v-16q-2 -29 5.5 -53t37.5 -80l24 -23q21 -21 64 -39t74 -18q52 0 84 4q6 0 6 4 l41 17l96 65q26 21 80 86l-2 -2l10 17l16 20l19 27q13 14 33 45l53 96q2 2 14 41v-2q12 34 29 65v-2l4 13l4 6q55 90 82 182q0 3 2 14l2 11l8 10l6 8v2l9 21l-2 -7l10 19l14 35l17 43l12 22q41 85 61 139v-6q7 26 45 113l-2 -2q17 41 37.5 85.5t50 104t41.5 84.5l64 125 l22 41v-2q21 37 54 60q65 26 118 26q58 0 113 -33q0 -2 2 -4l18 -14q5 -6 13 -17t12.5 -17t8.5 -14t5 -15l7 -60q8 -87 6 -149q-4 -28 -4 -35q0 -3 -5 -43q-7 -43 -4 -86q-2 -12 -2 -19q0 -38 -2 -108v-98q3 -7 2.5 -18.5t-2.5 -32t-2 -25.5q-2 -10 2 -49q2 -25 2 -82 q0 -58 -10 -140q0 -44 -4 -114v-11l-2 -40q0 -13 -4 -29l2 4q-4 -23 -2 -33l-2 -69v-37q0 -72 8 -236q0 -6 1 -17.5t1 -17.5q2 -14 2 -55q0 -29 2 -47v2l6 -37q10 -123 56 -209q29 -60 32 -63l19 -21l-2 2q22 -33 71 -80q9 -13 17 -12l33 -20q17 0 26 -6q35 -7 37 -7h29 l35 -2q11 0 53 19l26 12q2 4 10 9l9 5q8 5 26 23q28 28 31 98q-8 38 10 70l-2 -2q10 21 30.5 34t35.5 16l16 3q2 0 8 2q35 -4 62 -22q37 -24 49 -74zM1518 1110q-2 60 -27 55q-25 -4 -53 -62q-2 -4 -4 -9q-7 -20 -25 -59.5t-23 -53.5l-18 -39l-41 -102l-6 -25l-10 -33 l-4 -10q-7 -14 -9 -24q-9 -28 4 -70t54 -45q9 -1 29 -4.5t32 -5.5t28.5 0.5t27 11t19.5 27.5t13 49q6 31 6 94v65q-3 40 0 80q0 10 5 27q2 16 2 133z" />
<glyph unicode="&#xc7;" horiz-adv-x="1429" d="M1348 983v4q4 -19 0 -41q-7 -21 -7 -33q-3 -23 -10 -41v2l-8 -26q-11 -44 -23 -71.5t-19.5 -36t-18 -18.5t-15.5 -17q-9 -12 -49 -52q-13 -12 -82 -63l-100 -33h-2l-23 -6l-45 -12q-46 -4 -67 -4q-26 0 -72 8q-1 0 -70 18l-18 6q-30 7 -47 17q-5 4 -25.5 18t-30 21 t-25.5 20.5t-28 26.5q-23 37 -31 55q-6 10 -20 55q-10 31 -14 72q-7 47 -4 86q5 25 26 76q4 10 12 21t12.5 16t16.5 16.5t14 13.5q4 4 37 23q13 8 25 8q8 3 19 0.5t15 -4t13.5 -7t15.5 -7.5q41 -44 41 -82q0 -55 -26 -74l-4 -4l-11 -19q0 -1 -1 -4t-1 -4q0 -27 2 -39 q5 -31 17 -57v2l8 -16l4 -11q27 -23 59 -36q34 -7 52 -9q4 0 7 -1l3 -1q3 0 11 -1t11 -1q29 -3 54 0q18 3 59 21h-2l10 6l29 8l16 6l19 25l16 18l12 10q8 4 15 11q15 24 28 58.5t11 43.5q0 2 1 6t1 6q2 8 2 21q0 14 -6.5 65t-14.5 62v-2l-14 22l-14 19q-6 5 -10 11l-5 5h2 q-4 5 -15 19t-17 20q-39 34 -56 43q-17 10 -39 19q-17 3 -30 10q-29 6 -29 8q-2 0 -6.5 1t-5.5 1q-24 4 -35 4h-72q-16 0 -22 2l-45 -8q-66 -12 -131 -39q-15 -4 -27 -14.5t-24 -26t-21 -22.5l-12 -11l-19 -16q-12 -23 -31 -35q-6 -8 -26 -41q-3 -12 -15 -24l-6 -11l-14 -22 q-4 -8 -18 -26l-3 -5q-5 -11 -26 -72l-19 -55l-6 -29l-4 -34v-2q0 -1 -1 -7t-2.5 -14.5t-2.5 -13.5q0 -19 -4 -35l-4 -14q-7 -20 -12 -50v-12q0 -3 1 -7.5t1 -6.5v-29q0 -23 4 -59q4 -28 4 -47q4 -28 4 -47q6 -54 6 -58l4 -28l6 -9l8 -37l15 -53q17 -54 33 -80l30 -45 l17 -24l-2 2q6 -13 13.5 -24.5t17 -24t12.5 -17.5l30 -28l13 -15q22 -11 39 -28l20 -15l41 -24q34 -19 59 -25q16 -7 76 -16h62l53 10l14 4q36 8 80 29l29 12l22 16q5 5 17 25q5 3 22 20q11 11 15 33v-2l8 17l-2 -5q4 12 4 15q8 36 8 47q0 29 -4 45v14q-6 6 -6 13l-6 6 l-9 16q-10 7 -10 12l-2 2l-16 9v2l8 -2q-2 0 -5.5 2t-4.5 2q-47 16 -66 41q-26 33 -22 82q11 36 49 65q38 24 78 17q70 -18 114 -52q28 -31 58 -78l6 -8q31 -49 39 -75q8 -39 8 -97v-14q0 -47 -8 -80h2q-3 -15 -14.5 -39.5t-14.5 -34.5l-6 -14q-26 -53 -47 -80 q-13 -18 -72 -65l2 2q-5 -4 -16.5 -13.5t-18 -14.5t-17.5 -12t-22 -12h5l-21 -12q-2 -1 -3 -3t-4.5 -4t-12.5 -5q-16 -8 -41 -8h-7q-13 -5 -81 -27q-53 -19 -29 -76q10 -27 10 -53q0 -32 -14 -63q-9 -16 -39 -46q-16 -16 -35 -20q-2 -1 -6.5 -2t-5.5 -2l-13 -6l3 2 q-10 -8 -43 -19q-28 -8 -52 -8h-12q-2 0 -11 -2.5t-11.5 -2t-14.5 2.5q-29 0 -43 14l8 -4q-3 1 -6 4.5t-6 4.5q-31 7 -46.5 35t-6.5 57q10 26 39 36t57 -1h4q20 -5 35 -5q16 0 31 11v8v2q-9 12 -19 12h-6q-1 0 -2 -1t-2 -1q-22 -7 -45.5 0t-36.5 21q-12 15 -11 39.5t15 46.5 q7 52 -69 80l-70 38l-59 50l-52 53l-16 16q-20 20 -35 41q-12 12 -22 35l2 -2l-17 31l2 -4l-16 22q-26 37 -29 43v-2q-9 15 -32 68q-7 31 -13 51l-4 26v-4l-10 25q-8 15 -14 47l-19 74q-2 10 -2 43q0 19 -2 31l-6 34q-4 24 -4 45q0 6 -1 18t-1 17v37q4 65 8 82v31q0 31 2 45 l12 71q9 27 13 41l12 39l6 23q1 6 12 49l-2 -4q11 33 23 57v4l14 31v-2q3 7 12.5 22.5t12.5 22.5q6 9 10 23l10 20l-4 -6q9 15 18 22l9 15l8 14l12 21q14 6 47 61q16 22 35 33l25 22q8 6 28 31l13 12q8 8 22 15v-2q17 17 33 20l14 10q25 17 47 25l-2 -2q17 7 34 11.5t37 8 t26 4.5l16 3q15 5 28 8t32.5 5.5t37.5 6.5h19q5 0 15.5 1t16.5 1q30 0 80 -4q23 -4 45 -6l52 -10q36 -4 67 -19q25 -10 35 -18l25 -21l77 -55l31 -37v-2l23 -23l18 -16l27 -27q1 -5 9 -18.5t11 -19.5l-2 2q9 -10 16 -25l-4 4q28 -62 39 -106q4 -8 4 -29q0 -13 2 -21 q0 -1 5 -36q0 -3 1 -13t1 -12zM436 1397q-1 0 -2 -1t-2 -1q2 0 4 2z" />
<glyph unicode="&#xc8;" horiz-adv-x="1640" d="M809 -377q-154 0 -285.5 58.5t-214.5 140.5q-127 114 -191.5 270t-64.5 340q0 44 2 64q14 122 68 264q20 49 87 141.5t157 153.5q129 85 335 108q-11 41 -8 88q2 44 21 115q6 27 39 72l6 8l-4 -4q5 6 17.5 20.5t17.5 20.5q43 41 105.5 73.5t125.5 36.5q18 2 59 2 q67 0 104.5 -16t96.5 -61q12 -14 53 -66l13 -14l-2 2q43 -80 40 -156q0 -50 -32 -78t-70 -28q-21 0 -35 8q-36 18 -47.5 45t-15.5 76l2 -4q-10 47 -37 63q-12 15 -33 25q-10 0 -16 4q-2 0 -11.5 2.5t-15.5 3.5q-76 0 -112 -21h2l-9 -6q-43 -43 -65 -86v2v-39v-10l2 -27 q4 -17 33 -55q16 -20 24.5 -33t15 -34t3.5 -43q-6 -52 -72 -86h-2q-27 -9 -41 -9h-51q-71 2 -123 -5.5t-125 -33.5q-127 -56 -209 -202t-82 -303q0 -76 21 -162v2q5 -16 15 -38t33 -63t51.5 -80t73 -82t95 -75t120.5 -53.5t146 -22.5q60 -2 169 31t159 82q86 96 123.5 165.5 t56.5 186.5q3 17 -12 131l-6 17q-7 27 -54 100q-4 12 -16 24q-21 26 -22 27q-73 68 -213 66q-71 0 -138.5 -56.5t-89.5 -132.5q-10 -27 -10 -61q0 -40 8 -76q10 -12 10 -35q7 -32 -4 -61q-31 -45 -90 -45q-36 0 -82 37q-17 23 -29 78.5t-12 95.5q-2 59 12.5 113t33 90 t52.5 75.5t53 57.5t54 47q96 75 246 75q101 0 199 -38.5t161 -106.5q58 -64 99 -154l22 -53l4 -16l-2 14q29 -80 29 -121v-78q0 -52 -14.5 -119t-54 -154t-98.5 -163.5t-159.5 -141.5t-226.5 -93l2 2q-91 -23 -170 -23zM1196 1733l2 -2q26 -38 3.5 -74.5t-68.5 -36.5 q-3 0 -6.5 -1t-6.5 -1q-29 0 -59 16.5t-51 38.5l-15 15l-1 2l-5.5 5.5t-9.5 8.5l-21 20q-14 8 -32 29h12q-14 0 -39 25l-51 53q-29 34 -13.5 78.5t60.5 44.5h23q2 0 12.5 1t17.5 1h27q31 0 63 -18.5t47 -45.5v2q3 -4 19 -20q4 -5 8.5 -11l10.5 -14t10 -14l38 -63l17 -25z " />
<glyph unicode="&#xc9;" horiz-adv-x="1640" d="M809 -377q-154 0 -285.5 58.5t-214.5 140.5q-127 114 -191.5 270t-64.5 340q0 44 2 64q14 122 68 264q20 49 87 141.5t157 153.5q129 85 335 108q-11 41 -8 88q2 44 21 115q6 27 39 72l6 8l-4 -4q5 6 17.5 20.5t17.5 20.5q43 41 105.5 73.5t125.5 36.5q18 2 59 2 q67 0 104.5 -16t96.5 -61q12 -14 53 -66l13 -14l-2 2q43 -80 40 -156q0 -50 -32 -78t-70 -28q-21 0 -35 8q-36 18 -47.5 45t-15.5 76l2 -4q-10 47 -37 63q-12 15 -33 25q-10 0 -16 4q-2 0 -11.5 2.5t-15.5 3.5q-76 0 -112 -21h2l-9 -6q-43 -43 -65 -86v2v-39v-10l2 -27 q4 -17 33 -55q16 -20 24.5 -33t15 -34t3.5 -43q-6 -52 -72 -86h-2q-27 -9 -41 -9h-51q-71 2 -123 -5.5t-125 -33.5q-127 -56 -209 -202t-82 -303q0 -76 21 -162v2q5 -16 15 -38t33 -63t51.5 -80t73 -82t95 -75t120.5 -53.5t146 -22.5q60 -2 169 31t159 82q86 96 123.5 165.5 t56.5 186.5q3 17 -12 131l-6 17q-7 27 -54 100q-4 12 -16 24q-21 26 -22 27q-73 68 -213 66q-71 0 -138.5 -56.5t-89.5 -132.5q-10 -27 -10 -61q0 -40 8 -76q10 -12 10 -35q7 -32 -4 -61q-31 -45 -90 -45q-36 0 -82 37q-17 23 -29 78.5t-12 95.5q-2 59 12.5 113t33 90 t52.5 75.5t53 57.5t54 47q96 75 246 75q101 0 199 -38.5t161 -106.5q58 -64 99 -154l22 -53l4 -16l-2 14q29 -80 29 -121v-78q0 -52 -14.5 -119t-54 -154t-98.5 -163.5t-159.5 -141.5t-226.5 -93l2 2q-91 -23 -170 -23zM961 1774l36 61q24 32 31 39q6 6 16 20v-2 q17 28 48.5 46t62.5 18h27q7 0 18 -1t12 -1h23q45 0 61.5 -44.5t-12.5 -78.5q-5 -6 -17.5 -17t-13.5 -12l-47 -49h-2q-9 -9 -18.5 -18t-11.5 -11l-23 -20q-5 -5 -8 -8.5t-4 -5t-2 -2.5l-17 -15q-55 -55 -155 -55q4 2 24 2q-43 5 -62 39.5t5 71.5q5 4 7 7t2.5 5.5t0.5 3.5z " />
<glyph unicode="&#xca;" horiz-adv-x="1640" d="M809 -377q-154 0 -285.5 58.5t-214.5 140.5q-127 114 -191.5 270t-64.5 340q0 44 2 64q14 122 68 264q20 49 87 141.5t157 153.5q129 85 335 108q-11 41 -8 88q2 44 21 115q6 27 39 72l6 8l-4 -4q5 6 17.5 20.5t17.5 20.5q43 41 105.5 73.5t125.5 36.5q18 2 59 2 q67 0 104.5 -16t96.5 -61q12 -14 53 -66l13 -14l-2 2q43 -80 40 -156q0 -50 -32 -78t-70 -28q-21 0 -35 8q-36 18 -47.5 45t-15.5 76l2 -4q-10 47 -37 63q-12 15 -33 25q-10 0 -16 4q-2 0 -11.5 2.5t-15.5 3.5q-76 0 -112 -21h2l-9 -6q-43 -43 -65 -86v2v-39v-10l2 -27 q4 -17 33 -55q16 -20 24.5 -33t15 -34t3.5 -43q-6 -52 -72 -86h-2q-27 -9 -41 -9h-51q-71 2 -123 -5.5t-125 -33.5q-127 -56 -209 -202t-82 -303q0 -76 21 -162v2q5 -16 15 -38t33 -63t51.5 -80t73 -82t95 -75t120.5 -53.5t146 -22.5q60 -2 169 31t159 82q86 96 123.5 165.5 t56.5 186.5q3 17 -12 131l-6 17q-7 27 -54 100q-4 12 -16 24q-21 26 -22 27q-73 68 -213 66q-71 0 -138.5 -56.5t-89.5 -132.5q-10 -27 -10 -61q0 -40 8 -76q10 -12 10 -35q7 -32 -4 -61q-31 -45 -90 -45q-36 0 -82 37q-17 23 -29 78.5t-12 95.5q-2 59 12.5 113t33 90 t52.5 75.5t53 57.5t54 47q96 75 246 75q101 0 199 -38.5t161 -106.5q58 -64 99 -154l22 -53l4 -16l-2 14q29 -80 29 -121v-78q0 -52 -14.5 -119t-54 -154t-98.5 -163.5t-159.5 -141.5t-226.5 -93l2 2q-91 -23 -170 -23zM928 1892q40 53 106 62h-2q46 6 62 4q2 0 9 -1t13 -1 q31 0 64.5 -23.5t48.5 -50.5l18 -27l25 -32q3 -6 8 -10.5t6 -6.5q27 -27 33 -34l14 -29q0 -1 13 -17q26 -34 8 -82.5t-62 -48.5h-32q-30 0 -59 18.5t-48 45.5l2 -2l-16 22l-19 25q-26 33 -47 33q-17 0 -39 -31l-14 -23l-16 -24q-50 -71 -115 -64q-5 0 -6 2q-6 0 -29 7 q-34 9 -45.5 52.5t10.5 78.5l12 12l15 20v-2l16 29l3.5 7t6.5 11.5t9 12.5l24 35z" />
<glyph unicode="&#xcb;" horiz-adv-x="1640" d="M809 -377q-154 0 -285.5 58.5t-214.5 140.5q-127 114 -191.5 270t-64.5 340q0 44 2 64q14 122 68 264q20 49 87 141.5t157 153.5q129 85 335 108q-11 41 -8 88q2 44 21 115q6 27 39 72l6 8l-4 -4q5 6 17.5 20.5t17.5 20.5q43 41 105.5 73.5t125.5 36.5q18 2 59 2 q67 0 104.5 -16t96.5 -61q12 -14 53 -66l13 -14l-2 2q43 -80 40 -156q0 -50 -32 -78t-70 -28q-21 0 -35 8q-36 18 -47.5 45t-15.5 76l2 -4q-10 47 -37 63q-12 15 -33 25q-10 0 -16 4q-2 0 -11.5 2.5t-15.5 3.5q-76 0 -112 -21h2l-9 -6q-43 -43 -65 -86v2v-39v-10l2 -27 q4 -17 33 -55q16 -20 24.5 -33t15 -34t3.5 -43q-6 -52 -72 -86h-2q-27 -9 -41 -9h-51q-71 2 -123 -5.5t-125 -33.5q-127 -56 -209 -202t-82 -303q0 -76 21 -162v2q5 -16 15 -38t33 -63t51.5 -80t73 -82t95 -75t120.5 -53.5t146 -22.5q60 -2 169 31t159 82q86 96 123.5 165.5 t56.5 186.5q3 17 -12 131l-6 17q-7 27 -54 100q-4 12 -16 24q-21 26 -22 27q-73 68 -213 66q-71 0 -138.5 -56.5t-89.5 -132.5q-10 -27 -10 -61q0 -40 8 -76q10 -12 10 -35q7 -32 -4 -61q-31 -45 -90 -45q-36 0 -82 37q-17 23 -29 78.5t-12 95.5q-2 59 12.5 113t33 90 t52.5 75.5t53 57.5t54 47q96 75 246 75q101 0 199 -38.5t161 -106.5q58 -64 99 -154l22 -53l4 -16l-2 14q29 -80 29 -121v-78q0 -52 -14.5 -119t-54 -154t-98.5 -163.5t-159.5 -141.5t-226.5 -93l2 2q-91 -23 -170 -23zM786 1815q0 32 35.5 67t69.5 35h22h21q35 0 67.5 -37 t32.5 -70v-24q6 -30 6 -45q0 -34 -35.5 -68.5t-70.5 -34.5h-21h-2q-2 1 -7 1.5t-13 0.5q-33 0 -69 36t-38 69v37l1 10q1 11 1 23zM1096 1812q0 34 30.5 69.5t65.5 35.5h51q33 0 71 -36.5t38 -68.5v-38q0 -1 1 -11t1 -24q0 -35 -35 -69t-70 -34h-37q-41 0 -78.5 36.5 t-39.5 70.5q-1 12 -1 19.5t0.5 12t0.5 5.5l1 10q1 10 1 22z" />
<glyph unicode="&#xcc;" horiz-adv-x="1439" d="M1165 1567v-2q27 -37 5 -74t-70 -37q-3 0 -5.5 -1t-4.5 -1q-29 0 -59.5 17t-51.5 40l-16 15q-1 0 -15 16l-22 19q-14 9 -31 30h12q-17 0 -39 25l-53 53q-29 32 -12.5 76.5t61.5 44.5q15 0 21 2q3 0 14 1t16 1h29q31 0 62.5 -17.5t48.5 -45.5v2q7 -14 16 -23 q14 -11 29 -39l39 -63l18 -23zM1346 315l4 -4q18 -22 23.5 -43.5t-1.5 -41.5t-12.5 -29t-16.5 -25q-14 -14 -26 -22l6 6l-12 -11l-29 -20q-12 -7 -29 -31q-25 -23 -36 -28q-14 -14 -27.5 -44t-9.5 -49v-8q0 -12 2 -18v-19l-1 -11q-1 -11 -1 -17q-2 -12 -2 -23 q-5 -48 -38 -67t-73 -19q-18 0 -44 11.5t-38 25.5t-19.5 36t-13.5 34.5t-33 23.5t-77 15h-13q-28 0 -38 2h-13q-3 0 -8 1t-8 1q-15 0 -23 -2h-24q-21 0 -33 4h-18q-34 0 -52 4h2q-27 2 -147 49h2q-3 1 -9 5t-9 5q-28 13 -93 47l-53 33l-18 10l-37 29q-51 41 -84 82 q-30 36 -45 65l-17 21l-20 33l-18 49q-7 16 -21 71l-12 62l-4 24q-7 33 -11 105q0 73 2 106q6 34 9 45q0 2 2 11t2 10q3 8 8 35l6 35q2 32 14 71q3 11 8 23t12.5 27t10.5 22h2v2q32 53 56 100q47 64 61 78l51 45l23 21h2q32 20 49 37q15 15 50.5 38t59.5 31q23 9 98.5 31.5 t104.5 26.5q6 2 25 2q24 0 98 8h25q6 0 34 4q22 0 68 -4q3 0 6.5 -1t5.5 -1h9q63 0 105.5 -3.5t73 -14.5t46.5 -24t25.5 -40t11.5 -54t2 -73q2 -13 4 -23q0 -20 2 -88q0 -1 -1 -16t-1.5 -38t0.5 -77v-76q0 -17 -4 -41q-2 -10 -2 -26l6 -64v-47q0 -3 1 -7.5t1 -6.5v-41 q3 -37 2 -53q-2 -25 -2 -74q0 -31 4 -47q4 -24 4 -43q0 -5 -1 -11t-2.5 -13t-2.5 -11q-10 -34 -35.5 -51t-58.5 -17q-39 0 -74 27.5t-39 63.5q-4 25 0 38v9q3 12 0 26v76q2 10 2 35v55q0 4 1 12t1 15v18q0 23 -2 33q-2 8 -2 72q2 2 2 57v88q0 14 1 39t1 37q0 61 -15.5 95.5 t-60 53.5t-127.5 19q-32 0 -69 -6q-2 0 -9.5 -1t-9.5 -1h-12q-20 -4 -29 -4q-13 -1 -36.5 -5.5t-34.5 -5.5q-18 -9 -62 -22q-2 0 2 2q-56 -28 -86 -51l-2 -2l-18 -15l-66 -61v2q-12 -12 -51 -70q-7 -7 -18 -39l-6 -10q-22 -50 -29 -78q-13 -53 -17 -82v-4q0 -2 -1 -4.5 t-1 -3.5v-20q-6 -42 -4 -111l2 -10q0 -8 4 -66l3 -22q0 -13 6 -43l-2 2q16 -54 22 -66l10 -12v-4l13 -10l2 -17l26 -35q3 -5 60 -67q17 -17 110 -74l99 -39q86 -28 96 -29q20 -2 49 -2h61q8 -2 23 -2q13 0 33 4q17 1 36 6.5t23 6.5q1 0 2 0.5t3.5 1.5t4.5 2q11 3 30 10.5 t26 9.5h2l12 4l12 7q12 4 31 4h2l10 6q11 11 23 14q2 0 4 2l8 8q10 7 21 13l10 6l4 2l10 10q5 5 47 33l35 33q24 24 68 24q7 0 24 -4t19 -4l12 -6q16 -12 23 -19z" />
<glyph unicode="&#xcd;" horiz-adv-x="1439" d="M950 1632l37 62q24 32 31 39q6 6 16 20v-2q17 28 48.5 46t62.5 18h26q7 0 18.5 -1.5t12.5 -1.5q6 -2 23 -2q45 0 60.5 -43t-11.5 -77q-5 -6 -17.5 -17t-13.5 -12l-47 -49h-2q-9 -9 -19 -18t-12 -11l-22 -20q-5 -5 -8.5 -9t-4.5 -5.5t-2 -2.5l-16 -14q-55 -55 -156 -55 q5 2 25 2q-44 5 -62.5 39t5.5 71q5 4 7 7.5t2 6t1 3.5zM1346 315l4 -4q18 -22 23.5 -43.5t-1.5 -41.5t-12.5 -29t-16.5 -25q-14 -14 -26 -22l6 6l-12 -11l-29 -20q-12 -7 -29 -31q-25 -23 -36 -28q-14 -14 -27.5 -44t-9.5 -49v-8q0 -12 2 -18v-19l-1 -11q-1 -11 -1 -17 q-2 -12 -2 -23q-5 -48 -38 -67t-73 -19q-18 0 -44 11.5t-38 25.5t-19.5 36t-13.5 34.5t-33 23.5t-77 15h-13q-28 0 -38 2h-13q-3 0 -8 1t-8 1q-15 0 -23 -2h-24q-21 0 -33 4h-18q-34 0 -52 4h2q-27 2 -147 49h2q-3 1 -9 5t-9 5q-28 13 -93 47l-53 33l-18 10l-37 29 q-51 41 -84 82q-30 36 -45 65l-17 21l-20 33l-18 49q-7 16 -21 71l-12 62l-4 24q-7 33 -11 105q0 73 2 106q6 34 9 45q0 2 2 11t2 10q3 8 8 35l6 35q2 32 14 71q3 11 8 23t12.5 27t10.5 22h2v2q32 53 56 100q47 64 61 78l51 45l23 21h2q32 20 49 37q15 15 50.5 38t59.5 31 q23 9 98.5 31.5t104.5 26.5q6 2 25 2q24 0 98 8h25q6 0 34 4q22 0 68 -4q3 0 6.5 -1t5.5 -1h9q63 0 105.5 -3.5t73 -14.5t46.5 -24t25.5 -40t11.5 -54t2 -73q2 -13 4 -23q0 -20 2 -88q0 -1 -1 -16t-1.5 -38t0.5 -77v-76q0 -17 -4 -41q-2 -10 -2 -26l6 -64v-47q0 -3 1 -7.5 t1 -6.5v-41q3 -37 2 -53q-2 -25 -2 -74q0 -31 4 -47q4 -24 4 -43q0 -5 -1 -11t-2.5 -13t-2.5 -11q-10 -34 -35.5 -51t-58.5 -17q-39 0 -74 27.5t-39 63.5q-4 25 0 38v9q3 12 0 26v76q2 10 2 35v55q0 4 1 12t1 15v18q0 23 -2 33q-2 8 -2 72q2 2 2 57v88q0 14 1 39t1 37 q0 61 -15.5 95.5t-60 53.5t-127.5 19q-32 0 -69 -6q-2 0 -9.5 -1t-9.5 -1h-12q-20 -4 -29 -4q-13 -1 -36.5 -5.5t-34.5 -5.5q-18 -9 -62 -22q-2 0 2 2q-56 -28 -86 -51l-2 -2l-18 -15l-66 -61v2q-12 -12 -51 -70q-7 -7 -18 -39l-6 -10q-22 -50 -29 -78q-13 -53 -17 -82v-4 q0 -2 -1 -4.5t-1 -3.5v-20q-6 -42 -4 -111l2 -10q0 -8 4 -66l3 -22q0 -13 6 -43l-2 2q16 -54 22 -66l10 -12v-4l13 -10l2 -17l26 -35q3 -5 60 -67q17 -17 110 -74l99 -39q86 -28 96 -29q20 -2 49 -2h61q8 -2 23 -2q13 0 33 4q17 1 36 6.5t23 6.5q1 0 2 0.5t3.5 1.5t4.5 2 q11 3 30 10.5t26 9.5h2l12 4l12 7q12 4 31 4h2l10 6q11 11 23 14q2 0 4 2l8 8q10 7 21 13l10 6l4 2l10 10q5 5 47 33l35 33q24 24 68 24q7 0 24 -4t19 -4l12 -6q16 -12 23 -19z" />
<glyph unicode="&#xce;" horiz-adv-x="1439" d="M858 1780q35 50 105 63l-2 -2q47 6 61 4h25q30 0 62.5 -23.5t49.5 -49.5l17 -29l26 -33q1 -2 15 -16q17 -17 30 -35l17 -29q0 -1 10 -16q27 -34 9.5 -81.5t-60.5 -47.5h-33q-31 0 -61.5 17.5t-45.5 43.5l2 -2l-18 23l-16 26q-31 31 -47 31t-39 -29l-15 -24l-16 -25 q-49 -71 -117 -61q-5 0 -6 2q-7 0 -27 4q-35 9 -45.5 52.5t11.5 78.5l12 12l12 21v-2l19 28q1 2 5.5 12.5t10.5 18.5l27 35zM1346 315l4 -4q18 -22 23.5 -43.5t-1.5 -41.5t-12.5 -29t-16.5 -25q-14 -14 -26 -22l6 6l-12 -11l-29 -20q-12 -7 -29 -31q-25 -23 -36 -28 q-14 -14 -27.5 -44t-9.5 -49v-8q0 -12 2 -18v-19l-1 -11q-1 -11 -1 -17q-2 -12 -2 -23q-5 -48 -38 -67t-73 -19q-18 0 -44 11.5t-38 25.5t-19.5 36t-13.5 34.5t-33 23.5t-77 15h-13q-28 0 -38 2h-13q-3 0 -8 1t-8 1q-15 0 -23 -2h-24q-21 0 -33 4h-18q-34 0 -52 4h2 q-27 2 -147 49h2q-3 1 -9 5t-9 5q-28 13 -93 47l-53 33l-18 10l-37 29q-51 41 -84 82q-30 36 -45 65l-17 21l-20 33l-18 49q-7 16 -21 71l-12 62l-4 24q-7 33 -11 105q0 73 2 106q6 34 9 45q0 2 2 11t2 10q3 8 8 35l6 35q2 32 14 71q3 11 8 23t12.5 27t10.5 22h2v2 q32 53 56 100q47 64 61 78l51 45l23 21h2q32 20 49 37q15 15 50.5 38t59.5 31q23 9 98.5 31.5t104.5 26.5q6 2 25 2q24 0 98 8h25q6 0 34 4q22 0 68 -4q3 0 6.5 -1t5.5 -1h9q63 0 105.5 -3.5t73 -14.5t46.5 -24t25.5 -40t11.5 -54t2 -73q2 -13 4 -23q0 -20 2 -88 q0 -1 -1 -16t-1.5 -38t0.5 -77v-76q0 -17 -4 -41q-2 -10 -2 -26l6 -64v-47q0 -3 1 -7.5t1 -6.5v-41q3 -37 2 -53q-2 -25 -2 -74q0 -31 4 -47q4 -24 4 -43q0 -5 -1 -11t-2.5 -13t-2.5 -11q-10 -34 -35.5 -51t-58.5 -17q-39 0 -74 27.5t-39 63.5q-4 25 0 38v9q3 12 0 26v76 q2 10 2 35v55q0 4 1 12t1 15v18q0 23 -2 33q-2 8 -2 72q2 2 2 57v88q0 14 1 39t1 37q0 61 -15.5 95.5t-60 53.5t-127.5 19q-32 0 -69 -6q-2 0 -9.5 -1t-9.5 -1h-12q-20 -4 -29 -4q-13 -1 -36.5 -5.5t-34.5 -5.5q-18 -9 -62 -22q-2 0 2 2q-56 -28 -86 -51l-2 -2l-18 -15 l-66 -61v2q-12 -12 -51 -70q-7 -7 -18 -39l-6 -10q-22 -50 -29 -78q-13 -53 -17 -82v-4q0 -2 -1 -4.5t-1 -3.5v-20q-6 -42 -4 -111l2 -10q0 -8 4 -66l3 -22q0 -13 6 -43l-2 2q16 -54 22 -66l10 -12v-4l13 -10l2 -17l26 -35q3 -5 60 -67q17 -17 110 -74l99 -39q86 -28 96 -29 q20 -2 49 -2h61q8 -2 23 -2q13 0 33 4q17 1 36 6.5t23 6.5q1 0 2 0.5t3.5 1.5t4.5 2q11 3 30 10.5t26 9.5h2l12 4l12 7q12 4 31 4h2l10 6q11 11 23 14q2 0 4 2l8 8q10 7 21 13l10 6l4 2l10 10q5 5 47 33l35 33q24 24 68 24q7 0 24 -4t19 -4l12 -6q16 -12 23 -19z" />
<glyph unicode="&#xcf;" horiz-adv-x="1439" d="M739 1675q0 32 35.5 67.5t69.5 35.5q6 0 10.5 -0.5t6.5 -0.5t3 -1h2h21q35 0 67.5 -36.5t32.5 -70.5v-22q6 -30 6 -45q0 -34 -35.5 -68.5t-70.5 -34.5h-21l-2 1q-2 0 -7 0.5t-13 0.5q-34 0 -69.5 35.5t-37.5 69.5v36l1 10q1 11 1 23zM1049 1673q0 34 30.5 68.5t65.5 34.5 h51q33 0 71 -35.5t38 -67.5v-39q0 -1 1 -11.5t1 -25.5q0 -34 -35 -67t-70 -33h-37q-41 0 -78.5 36t-39.5 71v36l1 10q1 11 1 23zM1346 315l4 -4q18 -22 23.5 -43.5t-1.5 -41.5t-12.5 -29t-16.5 -25q-14 -14 -26 -22l6 6l-12 -11l-29 -20q-12 -7 -29 -31q-25 -23 -36 -28 q-14 -14 -27.5 -44t-9.5 -49v-8q0 -12 2 -18v-19l-1 -11q-1 -11 -1 -17q-2 -12 -2 -23q-5 -48 -38 -67t-73 -19q-18 0 -44 11.5t-38 25.5t-19.5 36t-13.5 34.5t-33 23.5t-77 15h-13q-28 0 -38 2h-13q-3 0 -8 1t-8 1q-15 0 -23 -2h-24q-21 0 -33 4h-18q-34 0 -52 4h2 q-27 2 -147 49h2q-3 1 -9 5t-9 5q-28 13 -93 47l-53 33l-18 10l-37 29q-51 41 -84 82q-30 36 -45 65l-17 21l-20 33l-18 49q-7 16 -21 71l-12 62l-4 24q-7 33 -11 105q0 73 2 106q6 34 9 45q0 2 2 11t2 10q3 8 8 35l6 35q2 32 14 71q3 11 8 23t12.5 27t10.5 22h2v2 q32 53 56 100q47 64 61 78l51 45l23 21h2q32 20 49 37q15 15 50.5 38t59.5 31q23 9 98.5 31.5t104.5 26.5q6 2 25 2q24 0 98 8h25q6 0 34 4q22 0 68 -4q3 0 6.5 -1t5.5 -1h9q63 0 105.5 -3.5t73 -14.5t46.5 -24t25.5 -40t11.5 -54t2 -73q2 -13 4 -23q0 -20 2 -88 q0 -1 -1 -16t-1.5 -38t0.5 -77v-76q0 -17 -4 -41q-2 -10 -2 -26l6 -64v-47q0 -3 1 -7.5t1 -6.5v-41q3 -37 2 -53q-2 -25 -2 -74q0 -31 4 -47q4 -24 4 -43q0 -5 -1 -11t-2.5 -13t-2.5 -11q-10 -34 -35.5 -51t-58.5 -17q-39 0 -74 27.5t-39 63.5q-4 25 0 38v9q3 12 0 26v76 q2 10 2 35v55q0 4 1 12t1 15v18q0 23 -2 33q-2 8 -2 72q2 2 2 57v88q0 14 1 39t1 37q0 61 -15.5 95.5t-60 53.5t-127.5 19q-32 0 -69 -6q-2 0 -9.5 -1t-9.5 -1h-12q-20 -4 -29 -4q-13 -1 -36.5 -5.5t-34.5 -5.5q-18 -9 -62 -22q-2 0 2 2q-56 -28 -86 -51l-2 -2l-18 -15 l-66 -61v2q-12 -12 -51 -70q-7 -7 -18 -39l-6 -10q-22 -50 -29 -78q-13 -53 -17 -82v-4q0 -2 -1 -4.5t-1 -3.5v-20q-6 -42 -4 -111l2 -10q0 -8 4 -66l3 -22q0 -13 6 -43l-2 2q16 -54 22 -66l10 -12v-4l13 -10l2 -17l26 -35q3 -5 60 -67q17 -17 110 -74l99 -39q86 -28 96 -29 q20 -2 49 -2h61q8 -2 23 -2q13 0 33 4q17 1 36 6.5t23 6.5q1 0 2 0.5t3.5 1.5t4.5 2q11 3 30 10.5t26 9.5h2l12 4l12 7q12 4 31 4h2l10 6q11 11 23 14q2 0 4 2l8 8q10 7 21 13l10 6l4 2l10 10q5 5 47 33l35 33q24 24 68 24q7 0 24 -4t19 -4l12 -6q16 -12 23 -19z" />
<glyph unicode="&#xd1;" horiz-adv-x="2084" d="M1790 1620q37 0 65.5 -34.5t16.5 -72.5q-8 -26 -25 -51l4 11l-12 -25q-3 -5 -9.5 -14t-17.5 -22t-18 -21q-33 -37 -65 -54q-45 -18 -76 -18t-84 16l-72 23l-65 24h2q-36 9 -43 9q-26 0 -33 -11q-18 -27 -53 -48t-64 -21q-41 0 -60 30.5t-7 71.5q3 10 5.5 17t5 11t4 6t4 4 t3.5 3q13 13 16 19v2q15 35 41 61q19 23 64 47l-2 -2q37 21 80 21q8 0 24 -4.5t19 -4.5l26 -8l49 -14h-2l27 -8q14 -6 31 -9l39 -10h-4q46 -12 55 -12q19 0 43 27l12 14q18 24 33.5 35.5t42.5 11.5zM1968 1237v-31l-6 -114q0 -9 1 -27.5t1 -28.5q0 -8 -1 -27.5t-1 -27.5 q-2 -18 -2 -47v-76q0 -6 -1 -35.5t-1 -48.5q-8 -107 2 -178q2 -12 2 -35q0 -43 -2 -82q-4 -78 -4 -92v-74q2 -20 2 -77q0 -74 -2 -109q-2 -31 -2 -84v-47q0 -7 1 -24t1 -25v-86q0 -1 -1 -9t-1 -12q0 -22 -6 -37q-20 -42 -62 -59q-23 -10 -55 -10q-39 0 -66 35q-2 8 -14 20 q-6 24 -6 37q0 1 -1 4t-1 4v12q0 52 -6 82q0 4 -1 15.5t-1 15.5q0 11 -4 39v-2q-13 48 -15 53q-6 10 -18 45q-8 24 -17 33l2 -2l-20 35q-18 26 -33 55l-47 68q-15 31 -35 51l2 -2l-22 26l-37 54l-27 32q-20 36 -70 77t-100 53.5t-71 -44.5q-2 -10 -2 -26v-72q0 -20 -15 -46 t-35 -34q-13 -7 -39.5 -4t-53 10.5t-46.5 35t-20 69.5q4 16 4 26v15q0 3 1 14t1 19v47q-5 24 -2 43v-2l8 73v19q0 7 1 41.5t1 52.5v37q0 41 -8 88v-2q-13 70 -43 125l2 -2l-16 22q-22 37 -41 56l-13 12q-19 19 -47 31q-69 43 -164 39h-20q-2 0 -12.5 0.5t-14.5 -0.5 q-28 -9 -53 -13q-55 -28 -77.5 -40t-49 -30.5t-51.5 -43.5l-15 -15q-11 -9 -41 -46t-30 -44q-16 -19 -29 -49l-8 -16l-27 -82q-8 -49 -12 -72q0 -3 -1 -8.5t-1 -7.5q-4 -32 -4 -45q0 -3 -1 -11t-1 -12v-68q0 -15 8 -73l6 -31l12 -37l7 -24l10 -43q13 -30 22.5 -49t23 -35 t18 -20.5t26 -21.5t29.5 -24q12 -13 74.5 -52t88.5 -50q11 -5 52 -17l4 -2q0 1 17.5 -2t33.5 -6q8 0 20 -1t15 -1q48 -10 78 -10l135 16l41 12q5 -1 42 13t46 20q12 5 49 25t41 24l82 74q25 25 74 25q29 0 51 -13q29 -14 37 -24q24 -34 20 -78q-1 -17 -12.5 -37.5 t-26.5 -34.5q-31 -31 -43 -41l-41 -39q-29 -29 -49 -80.5t-20 -66.5q0 -20 -5 -35v-22v-19q0 -3 -0.5 -12t-1 -12.5t-2.5 -11.5t-4.5 -13t-7.5 -11.5t-12 -13.5q-28 -22 -60 -28q-44 0 -53 2q-45 18 -57 43q-17 65 -71 92t-154 27q-26 0 -50 4q-4 0 -12 1t-12 1 q-15 1 -38.5 4t-33.5 4l-45 14q-12 2 -20 4q-61 19 -119 45l-86 45h-2q-20 10 -41 31l-23 19q-16 12 -59 52.5t-55 53.5l-35 45q-18 21 -29 43q-22 27 -37 78l-2 4q-7 15 -10.5 26t-5 20t-2.5 13l-4 11l-21 98l-4 14q-6 35 -6 84q-5 76 0 109q4 65 12 102q6 34 25 115 q24 63 41 96v-2q17 38 53 90q3 4 8.5 14.5t7.5 14.5q15 25 33 47q6 6 19 18.5t24 22t21 16.5q3 3 7 8.5t7 8.5q64 58 143 98q71 33 115 43h-2q79 23 178 19h14q21 1 76 -11.5t68 -17.5h-2l39 -12l16 -7h-4q2 0 6.5 -1t5.5 -1l37 -20v-2q31 -19 37 -21h6l14 -14q5 -3 27 -25 q5 -9 10 -12q2 -2 9 -7t10.5 -8.5t10.5 -11.5t13 -18l13 -14l12 -17l35 -47q6 -12 20 -26l21 -23q22 -38 133 -186l51 -70q0 -6 4 -6l17 -23l8 -12l92 -119q2 -3 29 -30q82 -84 138 -53t50 161l4 31v45v43v53q0 29 -2 45q-2 18 -2 58q0 23 4 51v39v65v23v22q19 56 51 72 q33 10 64 10h12q38 0 61 -39h3l14 -14q12 -20 12 -43z" />
<glyph unicode="&#xd2;" horiz-adv-x="1536" d="M1434 688q0 -19 -4 -43q-5 -30 -5 -41q-2 -12 -2 -33q0 -7 -1 -22.5t-1 -22.5q-4 -24 -4 -32l-4 -43l-6 -37q-4 -9 -8 -35q-7 -16 -10 -37q-5 -11 -9 -39q-6 -18 -6 -20l-16 -60l-37 -71l2 6l-10 -21q-8 -26 -37 -67v2l-19 -35l-14 -21v2q-20 -34 -33 -45l-8 -8l-14 -18 l-19 -19q-11 -13 -32.5 -32.5t-32.5 -22.5q-10 -6 -45.5 -34.5t-44.5 -31.5q-8 -2 -20.5 -5t-14.5 -3l2 2l-23 -6q5 0 -3 -3q-9 -4 -11 -5l2 2q-16 -11 -45 -18l-51 -9l-29 -4q-4 0 -13 -1t-13 -1q-28 -4 -35 -4q-23 0 -55 4q-14 2 -46 2q-66 4 -96 17l-31 14h5q-18 6 -21 6 l-10 4q-30 9 -47 23q-12 3 -19 10l-34 25q-9 6 -21 18h-2q-3 2 -4 2t-2.5 0.5t-12 9.5t-32.5 29q-23 12 -23 31l-10 8q-33 49 -83 146.5t-60 136.5q-7 21 -21 49q-10 20 -10 49l-4 22q-9 29 -12 62l-3 10q-10 24 -14 47q-4 12 -4 29q-2 8 -2 35q-6 105 -6 121q4 46 6 67v-2 l6 43l4 37q0 2 1 7.5t3.5 19t5.5 30.5q3 21 23 86q1 6 5 18.5t5 16.5q4 26 19 62v-3q2 5 43 84h-2q6 13 23 33t20 25l16 18l-6 -4l14 19q18 24 47 53l43 41l25 24q24 18 25 19q12 12 32 20q11 5 23 13q14 8 16 12l37 18l-6 -2q1 1 41 21l10 6q27 8 41 12l18 6q9 4 15 8 l33 15q50 4 57 4q39 8 98 0q52 0 88 -10l72 -25q22 -9 34.5 -15.5t19 -11t9.5 -6.5l7 -6q32 -16 69 -41l27 -24l33 -27q4 -7 20 -23l35 -34q2 -2 10 -16t12 -19q16 -24 25 -33l33 -61q21 -38 31 -76l8 -14q15 -25 22 -54q8 -21 21 -75q1 -2 3 -11t5 -20q7 -30 10 -45l4 -27 v8q4 -13 8 -55q0 -4 1.5 -13.5t1.5 -13.5q4 -28 4 -53zM1212 823h2l-2 2v-2zM1212 831v-6v6zM1221 553l4 205l-8 45l-5 20q-6 12 -6 29q0 8 -4 20q-2 8 -4.5 21.5t-3.5 15.5l-12 37q-2 5 -21 39l-18 35l-13 24l-16 39q-26 43 -47 64l-25 22l-10 9l-47 47q-41 28 -92 47h2 q-3 1 -34 9.5t-48 12.5q-34 0 -74 -8h-6q-32 -11 -61 -16l4 2q-3 -1 -47 -23l-70 -39l-18 -10q-23 -13 -39 -29q-16 -10 -27 -28l-26 -27q-4 -5 -15 -16.5t-20 -21.5t-15 -19l-18 -29l-19 -31v2l-24 -51l-4 -20q-12 -30 -23 -76q0 -4 -2 -12t-2 -11q-15 -112 25 -160 t160 -20q12 4 57 8q2 0 7.5 1.5t8.5 1.5q39 4 74 0l43 -11q8 -4 10 -4q26 -4 37 -8q54 -16 68 -33l10 -8l37 -23l57 -61l17 -27q40 -67 40 -81q3 -15 3 -41v-9q2 -19 -3 -59q-2 -9 -14 -39l-2 -14q-9 -30 -24 -51l2 4q-18 -47 -58 -76l-10 -8q-39 -30 -90 -47l-37 -5 q-9 0 -39.5 8.5t-34.5 12.5q-22 12 -33 35q-14 17 -20 49q0 65 45 90q19 10 74 14l12 6q31 57 31 64q4 16 -8 33l-9 12q-29 32 -30 35l-2 2l-9 6q-2 2 -10 8q-8 8 -35 19q-16 2 -30 4h-54q-7 -1 -21.5 -5t-21.5 -5l-6 -3l-37 -24q-16 -14 -24 -25l-12 -20q-1 -2 -9.5 -14 t-9.5 -14t-7 -11.5t-7 -14t-4.5 -14t-5 -18.5t-2.5 -21v-12v-33q0 -62 51 -135l18 -22l-2 2q16 -24 25 -33q14 -12 55 -41l-2 2q37 -21 65 -27q17 -4 29 -6h2q17 0 33 -4q4 -2 16 -2h84q11 0 51 8l-2 -2l43 12h-2l33 9q27 7 51 28l7 4l6 5l39 32l26 27q38 38 41 53 q5 5 7 8.5t2 4.5t1 2l15 22l12 12l18 39l15 25l12 22q2 6 9 20.5t10 22.5q0 13 2 17l8 20v6q3 8 14 64q0 2 2 8.5t2 7.5q8 22 12 49q5 40 5 43q0 4 1 12.5t1 12.5zM899 1630l2 -2q26 -38 3.5 -74t-68.5 -36q-3 0 -6.5 -1t-6.5 -1q-29 0 -59 16.5t-51 38.5l-17 14 q-1 1 -2 2.5t-4 5.5t-8 9l-23 20q-13 17 -33 33t-24 20l-53 54q-27 34 -11.5 77t60.5 43q17 0 23 2q1 0 12 1t18 1h27q31 0 62 -17.5t48 -45.5v2q10 -17 17 -20q7 -7 31 -39l36 -66l19 -22z" />
<glyph unicode="&#xd3;" horiz-adv-x="1536" d="M651 1694l39 59q13 23 29 39q11 11 16 20v-2q17 28 49 47t62 19h26q7 0 19 -1t14 -1q4 -2 21 -2q45 0 61.5 -44.5t-12.5 -78.5q-5 -6 -17.5 -17t-13.5 -12l-47 -49h-2q-23 -23 -31 -29l-22 -18q-5 -6 -8.5 -10t-4.5 -5.5t-2 -2.5l-16 -13q-2 -25 -97 -50q-39 -10 -36 -6 l2 1q-43 5 -62 39.5t5 71.5q5 5 7 8.5t2 6t1 3.5zM1434 688q0 -19 -4 -43q-5 -30 -5 -41q-2 -12 -2 -33q0 -7 -1 -22.5t-1 -22.5q-4 -24 -4 -32l-4 -43l-6 -37q-4 -9 -8 -35q-7 -16 -10 -37q-5 -11 -9 -39q-6 -18 -6 -20l-16 -60l-37 -71l2 6l-10 -21q-8 -26 -37 -67v2 l-19 -35l-14 -21v2q-20 -34 -33 -45l-8 -8l-14 -18l-19 -19q-11 -13 -32.5 -32.5t-32.5 -22.5q-10 -6 -45.5 -34.5t-44.5 -31.5q-8 -2 -20.5 -5t-14.5 -3l2 2l-23 -6q5 0 -3 -3q-9 -4 -11 -5l2 2q-16 -11 -45 -18l-51 -9l-29 -4q-4 0 -13 -1t-13 -1q-28 -4 -35 -4 q-23 0 -55 4q-14 2 -46 2q-66 4 -96 17l-31 14h5q-18 6 -21 6l-10 4q-30 9 -47 23q-12 3 -19 10l-34 25q-9 6 -21 18h-2q-3 2 -4 2t-2.5 0.5t-12 9.5t-32.5 29q-23 12 -23 31l-10 8q-33 49 -83 146.5t-60 136.5q-7 21 -21 49q-10 20 -10 49l-4 22q-9 29 -12 62l-3 10 q-10 24 -14 47q-4 12 -4 29q-2 8 -2 35q-6 105 -6 121q4 46 6 67v-2l6 43l4 37q0 2 1 7.5t3.5 19t5.5 30.5q3 21 23 86q1 6 5 18.5t5 16.5q4 26 19 62v-3q2 5 43 84h-2q6 13 23 33t20 25l16 18l-6 -4l14 19q18 24 47 53l43 41l25 24q24 18 25 19q12 12 32 20q11 5 23 13 q14 8 16 12l37 18l-6 -2q1 1 41 21l10 6q27 8 41 12l18 6q9 4 15 8l33 15q50 4 57 4q39 8 98 0q52 0 88 -10l72 -25q22 -9 34.5 -15.5t19 -11t9.5 -6.5l7 -6q32 -16 69 -41l27 -24l33 -27q4 -7 20 -23l35 -34q2 -2 10 -16t12 -19q16 -24 25 -33l33 -61q21 -38 31 -76l8 -14 q15 -25 22 -54q8 -21 21 -75q1 -2 3 -11t5 -20q7 -30 10 -45q8 -32 12 -74q0 -4 1.5 -13.5t1.5 -13.5q4 -28 4 -53zM1221 553l4 205l-8 45q-11 40 -11 49q0 8 -4 20q-2 8 -4.5 21.5t-3.5 15.5l-12 37q-2 5 -21 39l-18 35l-13 24l-16 39q-26 43 -47 64l-25 22l-10 9l-47 47 q-41 28 -92 47h2q-3 1 -34 9.5t-48 12.5q-34 0 -74 -8h-6q-32 -11 -61 -16l4 2q-3 -1 -47 -23l-70 -39l-18 -10q-23 -13 -39 -29q-16 -10 -27 -28l-26 -27q-4 -5 -15 -16.5t-20 -21.5t-15 -19l-18 -29l-19 -31v2l-24 -51l-4 -20q-12 -30 -23 -76q0 -4 -2 -12t-2 -11 q-15 -112 25 -160t160 -20q12 4 57 8q2 0 7.5 1.5t8.5 1.5q39 4 74 0l43 -11q8 -4 10 -4q26 -4 37 -8q54 -16 68 -33l10 -8l37 -23l57 -61l17 -27q40 -67 40 -81q3 -15 3 -41v-9q2 -19 -3 -59q-2 -9 -14 -39l-2 -14q-9 -30 -24 -51l2 4q-18 -47 -58 -76l-10 -8 q-39 -30 -90 -47l-37 -5q-9 0 -39.5 8.5t-34.5 12.5q-22 12 -33 35q-14 17 -20 49q0 65 45 90q19 10 74 14l12 6q31 57 31 64q4 16 -8 33l-9 12q-29 32 -30 35l-2 2l-9 6q-2 2 -10 8q-8 8 -35 19q-16 2 -30 4h-54q-7 -1 -21.5 -5t-21.5 -5l-6 -3l-37 -24q-16 -14 -24 -25 l-12 -20q-1 -2 -9.5 -14t-9.5 -14t-7 -11.5t-7 -14t-4.5 -14t-5 -18.5t-2.5 -21v-12v-33q0 -62 51 -135l18 -22l-2 2q16 -24 25 -33q14 -12 55 -41l-2 2q37 -21 65 -27q17 -4 29 -6h2q17 0 33 -4q4 -2 16 -2h84q11 0 51 8l-2 -2l43 12h-2l33 9q27 7 51 28l7 4l6 5l39 32 l26 27q38 38 41 53q5 5 7 8.5t2 4.5t1 2l15 22l12 12l18 39l15 25l12 22q2 6 9 20.5t10 22.5q0 13 2 17l8 20v6q3 8 14 64q0 2 2 8.5t2 7.5q8 22 12 49q5 40 5 43q0 4 1 12.5t1 12.5z" />
<glyph unicode="&#xd4;" horiz-adv-x="1536" d="M641 1806q34 49 104 62l-2 -2q44 9 62 6q3 0 11 -1t13 -1q30 0 63 -23.5t50 -50.5l16 -27l25 -32q4 -8 16 -19q19 -19 31 -35l17 -26q0 -4 10 -19q26 -32 9 -80.5t-60 -48.5h-33q-31 0 -61 18t-46 44l2 -2l-18 24l-16 25q-25 31 -48 31q-15 0 -38 -29l-17 -25l-14 -24 q-54 -71 -117 -62q-5 0 -6 2q-6 0 -27 7q-35 7 -46 50.5t11 78.5l13 14l12 18v-2l18 29q1 2 6 13t11 20l26 35zM1434 688q0 -19 -4 -43q-5 -30 -5 -41q-2 -12 -2 -33q0 -7 -1 -22.5t-1 -22.5q-4 -24 -4 -32l-4 -43l-6 -37q-4 -9 -8 -35q-7 -16 -10 -37q-5 -11 -9 -39 q-6 -18 -6 -20l-16 -60l-37 -71l2 6l-10 -21q-8 -26 -37 -67v2l-19 -35l-14 -21v2q-20 -34 -33 -45l-8 -8l-14 -18l-19 -19q-12 -9 -66 -57.5t-89 -63.5q-89 -30 -113 -36l-51 -9l-29 -4q-4 0 -13 -1t-13 -1q-28 -4 -35 -4q-23 0 -55 4q-14 2 -46 2q-66 4 -96 17 q-41 20 -47 20l-10 4q-30 9 -47 23q-12 3 -19 10l-34 25q-12 10 -19 14t-17 11.5t-38 33.5q-23 12 -23 31l-10 8q-33 49 -83 146.5t-60 136.5q-31 71 -31 98l-4 22q-9 29 -12 62l-3 10q-10 24 -14 47q-4 12 -4 29q-2 8 -2 35q-6 105 -6 121q4 46 6 67v-2l6 43l4 37 q13 78 33 143q1 6 5 18.5t5 16.5q4 26 19 62v-3q2 5 43 84h-2q6 13 23 33t20 25l24 33q18 24 47 53l43 41l25 24q24 18 25 19q12 12 32 20q11 5 23 13q14 8 16 12l82 43q27 8 41 12l18 6q9 4 15 8l33 15q50 4 57 4q39 8 98 0q52 0 88 -10l72 -25q22 -9 34.5 -15.5t19 -11 t9.5 -6.5l7 -6q32 -16 69 -41l27 -24l33 -27q4 -7 20 -23l35 -34q2 -2 10 -16t12 -19q16 -24 25 -33l33 -61q21 -38 31 -76l8 -14q15 -25 22 -54q8 -21 21 -75q1 -2 3 -11t5 -20q7 -30 10 -45l4 -27v8q4 -13 8 -55q0 -4 1.5 -13.5t1.5 -13.5q4 -28 4 -53zM1221 553l4 205 l-8 45q-11 40 -11 49q0 8 -4 20q-2 8 -4.5 21.5t-3.5 15.5l-12 37q-2 5 -21 39l-18 35l-13 24l-16 39q-26 43 -47 64l-25 22l-10 9l-47 47q-41 28 -92 47h2q-3 1 -34 9.5t-48 12.5q-34 0 -74 -8h-6q-32 -11 -61 -16l4 2q-3 -1 -47 -23l-70 -39l-18 -10q-23 -13 -39 -29 q-16 -10 -27 -28l-26 -27q-4 -5 -15 -16.5t-20 -21.5t-15 -19l-18 -29l-19 -31v2l-24 -51l-4 -20q-12 -30 -23 -76q0 -11 -4 -23q-6 -22 -5.5 -50t9.5 -59t30.5 -52t58 -29t92.5 10q12 4 57 8q2 0 7.5 1.5t8.5 1.5q39 4 74 0l43 -11q8 -4 10 -4q26 -4 37 -8q54 -16 68 -33 l10 -8l37 -23l57 -61l17 -27q40 -67 40 -81q3 -15 3 -41v-9q2 -19 -3 -59q-2 -9 -14 -39l-2 -14q-9 -30 -24 -51l2 4q-18 -47 -58 -76l-10 -8q-39 -30 -90 -47l-37 -5q-9 0 -39.5 8.5t-34.5 12.5q-22 12 -33 35q-14 17 -20 49q0 65 45 90q12 6 37 7t37 7q26 13 38.5 47 t-3.5 56l-9 12q-29 32 -30 35l-2 2l-9 6q-2 2 -10 8q-8 8 -35 19q-16 2 -30 4h-54q-7 -1 -21.5 -5t-21.5 -5q-7 -2 -10.5 -5t-5.5 -4l-27 -18l-36 -45q-1 -2 -9.5 -14t-9.5 -14t-7 -11.5t-7 -14t-4.5 -14t-5 -18.5t-2.5 -21v-12v-33q0 -62 51 -135l18 -22l-2 2 q16 -24 25 -33q87 -59 118 -66q17 -4 29 -6h2q17 0 33 -4q4 -2 16 -2h84l92 18h-2l33 9q27 7 51 28l7 4l6 5l39 32l26 27q38 38 41 53q5 5 7 8.5t2 4.5t1 2l15 22l12 12l18 39l15 25l12 22q2 6 9 20.5t10 22.5q0 13 2 17l8 20v6q3 8 14 64q0 2 2 8.5t2 7.5q8 22 12 49 q5 40 5 43q0 4 1 12.5t1 12.5z" />
<glyph unicode="&#xd5;" horiz-adv-x="1536" d="M1057 1845q39 0 67 -33t15 -73q-8 -25 -23 -49l4 10l-12 -27q-32 -40 -47 -55q-18 -27 -66 -55q-49 -17 -75 -17q-18 0 -84 15l-72 24l-66 25h2q-28 8 -43 8q-25 0 -32 -10q-15 -26 -50.5 -48t-64.5 -22q-42 0 -61 30.5t-7 69.5q4 16 7.5 24t9 13t6.5 6q11 11 14 19v2 q9 21 41 61q29 29 66 47l-2 -2q44 21 78 21q13 0 43 -10l26 -9l51 -12h-4l27 -8q9 -4 31 -10l38 -8h-2q50 -13 56 -13q16 0 43 27l10 14q15 18 22 25t21.5 13.5t32.5 6.5zM1434 688q0 -19 -4 -43q-5 -30 -5 -41q-2 -12 -2 -33q0 -7 -1 -22.5t-1 -22.5q-4 -24 -4 -32l-4 -43 l-6 -37q-4 -9 -8 -35q-7 -16 -10 -37q-5 -11 -9 -39q-6 -18 -6 -20l-16 -60l-37 -71l2 6l-10 -21q-8 -26 -37 -67v2l-19 -35l-14 -21v2q-20 -34 -33 -45l-8 -8l-14 -18l-19 -19q-12 -9 -66 -57.5t-89 -63.5q-89 -30 -113 -36l-51 -9l-29 -4q-4 0 -13 -1t-13 -1 q-28 -4 -35 -4q-23 0 -55 4q-14 2 -46 2q-66 4 -96 17q-41 20 -47 20l-10 4q-30 9 -47 23q-12 3 -19 10l-34 25q-12 10 -19 14t-17 11.5t-38 33.5q-23 12 -23 31l-10 8q-33 49 -83 146.5t-60 136.5q-31 71 -31 98l-4 22q-9 29 -12 62l-3 10q-10 24 -14 47q-4 12 -4 29 q-2 8 -2 35q-6 105 -6 121q4 46 6 67v-2l6 43l4 37q13 78 33 143q1 6 5 18.5t5 16.5q4 26 19 62v-3q2 5 43 84h-2q6 13 23 33t20 25l24 33q18 24 47 53l43 41l25 24q24 18 25 19q12 12 32 20q11 5 23 13q14 8 16 12l82 43q27 8 41 12l18 6q9 4 15 8l33 15q50 4 57 4 q39 8 98 0q52 0 88 -10l72 -25q22 -9 34.5 -15.5t19 -11t9.5 -6.5l7 -6q32 -16 69 -41l27 -24l33 -27q4 -7 20 -23l35 -34q2 -2 10 -16t12 -19q16 -24 25 -33l33 -61q21 -38 31 -76l8 -14q15 -25 22 -54q8 -21 21 -75q1 -2 3 -11t5 -20q7 -30 10 -45l4 -27v8q4 -13 8 -55 q0 -4 1.5 -13.5t1.5 -13.5q4 -28 4 -53zM1221 553l4 205l-8 45q-11 40 -11 49q0 8 -4 20q-2 8 -4.5 21.5t-3.5 15.5l-12 37q-2 5 -21 39l-18 35l-13 24l-16 39q-26 43 -47 64l-25 22l-10 9l-47 47q-41 28 -92 47h2q-3 1 -34 9.5t-48 12.5q-34 0 -74 -8h-6q-32 -11 -61 -16 l4 2q-3 -1 -47 -23l-70 -39l-18 -10q-23 -13 -39 -29q-16 -10 -27 -28l-26 -27q-4 -5 -15 -16.5t-20 -21.5t-15 -19l-18 -29l-19 -31v2l-24 -51l-4 -20q-12 -30 -23 -76q0 -11 -4 -23q-6 -22 -5.5 -50t9.5 -59t30.5 -52t58 -29t92.5 10q12 4 57 8q2 0 7.5 1.5t8.5 1.5 q39 4 74 0l43 -11q8 -4 10 -4q26 -4 37 -8q54 -16 68 -33l10 -8l37 -23l57 -61l17 -27q40 -67 40 -81q3 -15 3 -41v-9q2 -19 -3 -59q-2 -9 -14 -39l-2 -14q-9 -30 -24 -51l2 4q-18 -47 -58 -76l-10 -8q-39 -30 -90 -47l-37 -5q-9 0 -39.5 8.5t-34.5 12.5q-22 12 -33 35 q-14 17 -20 49q0 65 45 90q12 6 37 7t37 7q26 13 38.5 47t-3.5 56l-9 12q-29 32 -30 35l-2 2l-9 6q-2 2 -10 8q-8 8 -35 19q-16 2 -30 4h-54q-7 -1 -21.5 -5t-21.5 -5q-7 -2 -10.5 -5t-5.5 -4l-27 -18l-36 -45q-1 -2 -9.5 -14t-9.5 -14t-7 -11.5t-7 -14t-4.5 -14t-5 -18.5 t-2.5 -21v-12v-33q0 -62 51 -135l18 -22l-2 2q16 -24 25 -33q87 -59 118 -66q17 -4 29 -6h2q17 0 33 -4q4 -2 16 -2h84l92 18h-2l33 9q27 7 51 28l7 4l6 5l39 32l26 27q38 38 41 53q5 5 7 8.5t2 4.5t1 2l15 22l12 12l18 39l15 25l12 22q2 6 9 20.5t10 22.5q0 13 2 17l8 20v6 q3 8 14 64q0 2 2 8.5t2 7.5q8 22 12 49q5 40 5 43q0 4 1 12.5t1 12.5z" />
<glyph unicode="&#xd6;" horiz-adv-x="1536" d="M494 1702q0 33 34.5 68.5t69.5 35.5q8 0 13 -0.5t7 -1.5h3h20q35 0 66.5 -36.5t31.5 -69.5q0 -23 2 -25q7 -28 7 -43q0 -35 -36 -69.5t-71 -34.5h-20h-3q-2 1 -7 1.5t-13 0.5q-34 0 -69 35.5t-37 68.5v37q0 1 0.5 5.5t1 11.5t0.5 16zM801 1702q0 32 31.5 67t66.5 35h49 q34 0 71.5 -35.5t37.5 -66.5v-39q0 -2 1 -13t1 -24q0 -35 -34 -68.5t-69 -33.5h-38q-40 0 -78.5 36.5t-38.5 69.5q-1 12 -1 20v12l1 5v35zM1434 688q0 -19 -4 -43q-5 -30 -5 -41q-2 -12 -2 -33q0 -7 -1 -22.5t-1 -22.5q-4 -24 -4 -32l-4 -43l-6 -37q-4 -9 -8 -35 q-7 -16 -10 -37q-5 -11 -9 -39q-6 -18 -6 -20l-16 -60l-37 -71l2 6l-10 -21q-8 -26 -37 -67v2l-19 -35l-14 -21v2q-20 -34 -33 -45l-8 -8l-14 -18l-19 -19q-12 -9 -66 -57.5t-89 -63.5q-89 -30 -113 -36l-51 -9l-29 -4q-4 0 -13 -1t-13 -1q-28 -4 -35 -4q-23 0 -55 4 q-14 2 -46 2q-66 4 -96 17q-41 20 -47 20l-10 4q-30 9 -47 23q-12 3 -19 10l-34 25q-12 10 -19 14t-17 11.5t-38 33.5q-23 12 -23 31l-10 8q-33 49 -83 146.5t-60 136.5q-31 71 -31 98l-4 22q-9 29 -12 62l-3 10q-10 24 -14 47q-4 12 -4 29q-2 8 -2 35q-6 105 -6 121 q4 46 6 67v-2l6 43l4 37q13 78 33 143q1 6 5 18.5t5 16.5q4 26 19 62v-3q2 5 43 84h-2q6 13 23 33t20 25l24 33q18 24 47 53l43 41l25 24q24 18 25 19q12 12 32 20q11 5 23 13q14 8 16 12l82 43q27 8 41 12l18 6q9 4 15 8l33 15q50 4 57 4q39 8 98 0q52 0 88 -10l72 -25 q22 -9 34.5 -15.5t19 -11t9.5 -6.5l7 -6q32 -16 69 -41l27 -24l33 -27q4 -7 20 -23l35 -34q2 -2 10 -16t12 -19q16 -24 25 -33l33 -61q21 -38 31 -76l8 -14q15 -25 22 -54q8 -21 21 -75q1 -2 3 -11t5 -20q7 -30 10 -45l4 -27v8q4 -13 8 -55q0 -4 1.5 -13.5t1.5 -13.5 q4 -28 4 -53zM1221 553l4 205l-8 45q-11 40 -11 49q0 8 -4 20q-2 8 -4.5 21.5t-3.5 15.5l-12 37q-2 5 -21 39l-18 35l-13 24l-16 39q-26 43 -47 64l-25 22l-10 9l-47 47q-41 28 -92 47h2q-3 1 -34 9.5t-48 12.5q-34 0 -74 -8h-6q-32 -11 -61 -16l4 2q-3 -1 -47 -23l-70 -39 l-18 -10q-23 -13 -39 -29q-16 -10 -27 -28l-26 -27q-4 -5 -15 -16.5t-20 -21.5t-15 -19l-18 -29l-19 -31v2l-24 -51l-4 -20q-12 -30 -23 -76q0 -11 -4 -23q-6 -22 -5.5 -50t9.5 -59t30.5 -52t58 -29t92.5 10q12 4 57 8q2 0 7.5 1.5t8.5 1.5q39 4 74 0l43 -11q8 -4 10 -4 q26 -4 37 -8q54 -16 68 -33l10 -8l37 -23l57 -61l17 -27q40 -67 40 -81q3 -15 3 -41v-9q2 -19 -3 -59q-2 -9 -14 -39l-2 -14q-9 -30 -24 -51l2 4q-18 -47 -58 -76l-10 -8q-39 -30 -90 -47l-37 -5q-9 0 -39.5 8.5t-34.5 12.5q-22 12 -33 35q-14 17 -20 49q0 65 45 90 q12 6 37 7t37 7q26 13 38.5 47t-3.5 56l-9 12q-29 32 -30 35l-2 2l-9 6q-2 2 -10 8q-8 8 -35 19q-16 2 -30 4h-54q-7 -1 -21.5 -5t-21.5 -5q-7 -2 -10.5 -5t-5.5 -4l-27 -18l-36 -45q-1 -2 -9.5 -14t-9.5 -14t-7 -11.5t-7 -14t-4.5 -14t-5 -18.5t-2.5 -21v-12v-33 q0 -62 51 -135l18 -22l-2 2q16 -24 25 -33q87 -59 118 -66q17 -4 29 -6h2q17 0 33 -4q4 -2 16 -2h84l92 18h-2l33 9q27 7 51 28l7 4l6 5l39 32l26 27q38 38 41 53q5 5 7 8.5t2 4.5t1 2l15 22l12 12l18 39l15 25l12 22q2 6 9 20.5t10 22.5q0 13 2 17l8 20v6q3 8 14 64 q0 2 2 8.5t2 7.5q8 22 12 49q5 40 5 43q0 4 1 12.5t1 12.5z" />
<glyph unicode="&#xd9;" horiz-adv-x="1927" d="M1477 1415h2q26 -38 3 -74t-69 -36q-3 0 -5.5 -1t-4.5 -1q-29 0 -59.5 16.5t-51.5 38.5l-16 14l-2 2q-1 2 -4.5 6t-9.5 9l-21 20q-13 16 -32 31t-25 22l-54 54q-29 32 -12 76t62 44q14 0 20 2q2 0 14 1t17 1h28q30 0 62 -18t47 -45v2q10 -16 18 -20q12 -12 29 -39l39 -66 l18 -22zM1796 592q-6 -65 2 -260v-27q0 -2 -1 -10.5t-2.5 -28.5t-2.5 -49q0 -10 1 -27t1 -20q0 -7 -6 -31l2 -6q0 -3 -4 -22t-9.5 -46t-7.5 -40q-7 -31 -11.5 -45.5t-6.5 -17t-6.5 -8t-9.5 -17.5q-17 -35 -37 -60q-66 -74 -150 -112.5t-170 -38.5q-187 0 -301 81l-24 19 l-13 12q-3 2 -8.5 6.5t-8.5 7t-7 7t-8 10.5q-35 30 -66 94l2 -2q-18 31 -55 53t-79 30.5t-68.5 11.5t-43.5 3q-31 5 -41 7q-20 4 -28 4q-50 4 -68 8l-29 6l-40 8l-84 33h-2l-99 47q-14 8 -43 33l-16 16l-55 45q-28 24 -54 58l-14 14q-18 7 -27 22q-11 14 -22 41 q-16 16 -27 62v-2l-4 20l-29 72l-16 78q-8 62 -8 96q-1 16 4 68q4 20 4 26q-3 21 13.5 89t34.5 128.5t18 61.5q7 16 45 78l10 16l-2 -4q87 111 239 192.5t301 81.5q60 0 117 -14q54 -17 68 -23l-2 3q80 -32 133 -78.5t78 -85.5l18 -43q18 -51 21 -80l-2 4q14 -47 16 -80 q0 -5 1 -11.5t1 -11.5q4 -32 4 -57q1 -20 -4 -160q0 -5 -0.5 -13t-1 -14t-0.5 -7q-2 -18 -2 -60v-69q4 -40 0 -76q-3 -18 -19 -47q-2 -1 -4 -3t-4 -3q-1 -1 -3.5 -4t-4.5 -5q-14 -9 -16 -10q-15 -5 -36.5 -5.5t-48 4.5t-46.5 27t-23 58v16q0 2 1 11t1 14v55l1 12q1 12 1 21 q1 18 3.5 23.5t2.5 23.5q0 8 1 25t1 28q-2 37 -2 121q0 15 -2 23q0 3 -1 10t-1 10q0 16 -8 72v-2q-15 88 -85.5 141.5t-168.5 52.5q-90 -1 -178 -47t-119 -77l-45 -46q-45 -50 -70 -141t-30 -153q0 -27 -2 -35v2q-2 -10 -2 -25q0 -4 1 -14.5t1 -15.5q10 -96 14 -107 q4 -14 16 -33v2l11 -26l-2 6l8 -19q35 -67 39 -69l49 -47h2q43 -39 82 -60q19 -11 84 -43h-2q22 -11 55 -22q6 -2 45 -8q4 0 14 -2.5t13 -2.5q10 -2 53 -2h20q53 0 82 7q52 4 80 10l12 4l44 16q2 1 8.5 6t13.5 9.5t12 7.5l41 20l41 31q4 0 6 2l9 4l8 6q8 4 12 8q2 1 10 9 l4 4q5 4 27 26q38 25 64 25q25 0 49 -12q5 -2 8 -3.5t6 -4.5t4.5 -5t4.5 -6.5l5 -7.5l6 -6q13 -19 17 -32.5t2 -41.5q-7 -33 -31 -59q-91 -68 -91 -168.5t52 -153.5l11 -8l12 -6l10 -6q3 0 9 -1t9 -1q51 -13 119 -17q56 -5 124.5 49t82.5 138q0 1 0.5 9t1 34t0.5 73 q0 14 1 36.5t1 29.5q2 48 -2 147q-4 78 -4 129q0 79 8 136q0 103 4 145v2q-2 8 -2 39v233q0 13 11 78q14 44 59 64q35 10 55 10q37 0 60 -33l8 -16q9 -9 22 -39v-21q0 -3 -0.5 -9t-3 -28t-4.5 -49q0 -3 1 -10.5t1 -11.5q0 -3 -1 -12t-1 -13q-2 -8 -2 -24v-326q0 -4 2 -14 q2 -11 -2 -82z" />
<glyph unicode="&#xda;" horiz-adv-x="1927" d="M1307 1460l39 62q27 36 28 37q14 14 19 22v-2q15 27 47 45t63 18h27q7 0 18 -1t13 -1q6 -2 20 -2q46 0 62 -44t-13 -76q-12 -15 -28 -31l-50 -47h-2q-18 -23 -30 -29l-21 -20q-5 -4 -8 -7.5t-4.5 -5t-2 -3t-1.5 -1.5l-15 -14q-3 -24 -98 -48q-36 -9 -35 -5 q-42 3 -60.5 38t5.5 70q4 4 6 7.5t2.5 5t0.5 3.5t1 3zM1796 592q-6 -65 2 -260v-27q0 -2 -1 -10.5t-2.5 -28.5t-2.5 -49q0 -10 1 -27t1 -20q0 -7 -6 -31l2 -6q0 -3 -4 -22t-9.5 -46t-7.5 -40q-7 -31 -11.5 -45.5t-6.5 -17t-6.5 -8t-9.5 -17.5q-17 -35 -37 -60 q-66 -74 -150 -112.5t-170 -38.5q-187 0 -301 81l-24 19l-13 12q-3 2 -8.5 6.5t-8.5 7t-7 7t-8 10.5q-35 30 -66 94l2 -2q-18 31 -55 53t-79 30.5t-68.5 11.5t-43.5 3q-31 5 -41 7q-20 4 -28 4q-50 4 -68 8l-29 6l-40 8l-84 33h-2l-99 47q-14 8 -43 33l-16 16l-55 45 q-28 24 -54 58l-14 14q-18 7 -27 22q-11 14 -22 41q-16 16 -27 62v-2l-4 20l-29 72l-16 78q-8 62 -8 96q-1 16 4 68q4 20 4 26q-3 21 13.5 89t34.5 128.5t18 61.5q7 16 45 78l10 16l-2 -4q87 111 239 192.5t301 81.5q60 0 117 -14q54 -17 68 -23l-2 3q80 -32 133 -78.5 t78 -85.5l18 -43q18 -51 21 -80l-2 4q14 -47 16 -80q0 -5 1 -11.5t1 -11.5q4 -32 4 -57q1 -20 -4 -160q0 -5 -0.5 -13t-1 -14t-0.5 -7q-2 -18 -2 -60v-69q4 -40 0 -76q-3 -18 -19 -47q-2 -1 -4 -3t-4 -3q-1 -1 -3.5 -4t-4.5 -5q-14 -9 -16 -10q-15 -5 -36.5 -5.5t-48 4.5 t-46.5 27t-23 58v16q0 2 1 11t1 14v55l1 12q1 12 1 21q1 18 3.5 23.5t2.5 23.5q0 8 1 25t1 28q-2 37 -2 121q0 15 -2 23q0 3 -1 10t-1 10q0 16 -8 72v-2q-15 88 -85.5 141.5t-168.5 52.5q-90 -1 -178 -47t-119 -77l-45 -46q-45 -50 -70 -141t-30 -153q0 -27 -2 -35v2 q-2 -10 -2 -25q0 -4 1 -14.5t1 -15.5q10 -96 14 -107q4 -14 16 -33v2l11 -26l-2 6l8 -19q35 -67 39 -69l49 -47h2q43 -39 82 -60q19 -11 84 -43h-2q22 -11 55 -22q6 -2 45 -8q4 0 14 -2.5t13 -2.5q10 -2 53 -2h20q53 0 82 7q52 4 80 10l12 4l44 16q2 1 8.5 6t13.5 9.5 t12 7.5l41 20l41 31q4 0 6 2l9 4l8 6q8 4 12 8q2 1 10 9l4 4q5 4 27 26q38 25 64 25q25 0 49 -12q5 -2 8 -3.5t6 -4.5t4.5 -5t4.5 -6.5l5 -7.5l6 -6q13 -19 17 -32.5t2 -41.5q-7 -33 -31 -59q-91 -68 -91 -168.5t52 -153.5l11 -8l12 -6l10 -6q3 0 9 -1t9 -1q51 -13 119 -17 q56 -5 124.5 49t82.5 138q0 1 0.5 9t1 34t0.5 73q0 14 1 36.5t1 29.5q2 48 -2 147q-4 78 -4 129q0 79 8 136q0 103 4 145v2q-2 8 -2 39v233q0 13 11 78q14 44 59 64q35 10 55 10q37 0 60 -33l8 -16q9 -9 22 -39v-21q0 -3 -0.5 -9t-3 -28t-4.5 -49q0 -3 1 -10.5t1 -11.5 q0 -3 -1 -12t-1 -13q-2 -8 -2 -24v-326q0 -4 2 -14q2 -11 -2 -82z" />
<glyph unicode="&#xdb;" horiz-adv-x="1927" d="M1257 1606q36 51 105 61h-2q45 6 61 4q3 0 11 -1t12 -1q30 0 63.5 -23.5t48.5 -50.5l19 -26l24 -33q3 -4 6 -7t6.5 -5.5t4.5 -3.5q4 -5 15 -17t16 -18l14 -29q0 -2 12 -16q26 -34 8.5 -82.5t-61.5 -48.5h-33q-29 0 -58.5 18.5t-47.5 44.5l2 -2l-17 23l-18 24 q-26 33 -45 33q-20 0 -39 -31l-16 -22l-17 -25q-49 -70 -114 -63q-6 0 -7 2q-8 0 -26 6q-35 9 -46.5 52.5t11.5 78.5l10 12l15 21v-2l16 28l6 11q5 12 12 20l25 35zM1796 592q-6 -65 2 -260v-27q0 -2 -1 -10.5t-2.5 -28.5t-2.5 -49q0 -10 1 -27t1 -20q0 -7 -6 -31l2 -6 q0 -3 -4 -22t-9.5 -46t-7.5 -40q-7 -31 -11.5 -45.5t-6.5 -17t-6.5 -8t-9.5 -17.5q-17 -35 -37 -60q-66 -74 -150 -112.5t-170 -38.5q-187 0 -301 81l-24 19l-13 12q-3 2 -8.5 6.5t-8.5 7t-7 7t-8 10.5q-35 30 -66 94l2 -2q-18 31 -55 53t-79 30.5t-68.5 11.5t-43.5 3 q-31 5 -41 7q-20 4 -28 4q-50 4 -68 8l-29 6l-40 8l-84 33h-2l-99 47q-14 8 -43 33l-16 16l-55 45q-28 24 -54 58l-14 14q-18 7 -27 22q-11 14 -22 41q-16 16 -27 62v-2l-4 20l-29 72l-16 78q-8 62 -8 96q-1 16 4 68q4 20 4 26q-3 21 13.5 89t34.5 128.5t18 61.5q7 16 45 78 l10 16l-2 -4q87 111 239 192.5t301 81.5q60 0 117 -14q54 -17 68 -23l-2 3q80 -32 133 -78.5t78 -85.5l18 -43q18 -51 21 -80l-2 4q14 -47 16 -80q0 -5 1 -11.5t1 -11.5q4 -32 4 -57q1 -20 -4 -160q0 -5 -0.5 -13t-1 -14t-0.5 -7q-2 -18 -2 -60v-69q4 -40 0 -76 q-3 -18 -19 -47q-2 -1 -4 -3t-4 -3q-1 -1 -3.5 -4t-4.5 -5q-14 -9 -16 -10q-15 -5 -36.5 -5.5t-48 4.5t-46.5 27t-23 58v16q0 2 1 11t1 14v55l1 12q1 12 1 21q1 18 3.5 23.5t2.5 23.5q0 8 1 25t1 28q-2 37 -2 121q0 15 -2 23q0 3 -1 10t-1 10q0 16 -8 72v-2 q-15 88 -85.5 141.5t-168.5 52.5q-90 -1 -178 -47t-119 -77l-45 -46q-45 -50 -70 -141t-30 -153q0 -27 -2 -35v2q-2 -10 -2 -25q0 -4 1 -14.5t1 -15.5q10 -96 14 -107q4 -14 16 -33v2l11 -26l-2 6l8 -19q35 -67 39 -69l49 -47h2q43 -39 82 -60q19 -11 84 -43h-2 q22 -11 55 -22q6 -2 45 -8q4 0 14 -2.5t13 -2.5q10 -2 53 -2h20q53 0 82 7q52 4 80 10l12 4l44 16q2 1 8.5 6t13.5 9.5t12 7.5l41 20l41 31q4 0 6 2l9 4l8 6q8 4 12 8q2 1 10 9l4 4q5 4 27 26q38 25 64 25q25 0 49 -12q5 -2 8 -3.5t6 -4.5t4.5 -5t4.5 -6.5l5 -7.5l6 -6 q13 -19 17 -32.5t2 -41.5q-7 -33 -31 -59q-91 -68 -91 -168.5t52 -153.5l11 -8l12 -6l10 -6q3 0 9 -1t9 -1q51 -13 119 -17q56 -5 124.5 49t82.5 138q0 1 0.5 9t1 34t0.5 73q0 14 1 36.5t1 29.5q2 48 -2 147q-4 78 -4 129q0 79 8 136q0 103 4 145v2q-2 8 -2 39v233 q0 13 11 78q14 44 59 64q35 10 55 10q37 0 60 -33l8 -16q9 -9 22 -39v-21q0 -3 -0.5 -9t-3 -28t-4.5 -49q0 -3 1 -10.5t1 -11.5q0 -3 -1 -12t-1 -13q-2 -8 -2 -24v-326q0 -4 2 -14q2 -11 -2 -82z" />
<glyph unicode="&#xdc;" horiz-adv-x="1927" d="M1128 1491q0 33 36 68.5t69 35.5q6 0 10.5 -0.5t6.5 -0.5t3 -0.5t2 -0.5h21q35 0 66.5 -36.5t31.5 -69.5q0 -23 2 -25q6 -30 6 -45q0 -34 -35.5 -68t-70.5 -34h-21l-2 1q-2 0 -7 0.5t-13 0.5q-33 0 -69 35.5t-38 68.5v37l1 10q1 11 1 23zM1438 1489q0 34 30.5 69t65.5 35 h49q34 0 71.5 -36t37.5 -68v-37q0 -2 1 -13t1 -24q0 -35 -34 -68.5t-69 -33.5h-39q-40 0 -77 36t-39 70q-1 12 -1 20t1 13v4l1 10q1 11 1 23zM1796 592q-6 -65 2 -260v-27q0 -2 -1 -10.5t-2.5 -28.5t-2.5 -49q0 -10 1 -27t1 -20q0 -7 -6 -31l2 -6q0 -3 -4 -22t-9.5 -46 t-7.5 -40q-7 -31 -11.5 -45.5t-6.5 -17t-6.5 -8t-9.5 -17.5q-17 -35 -37 -60q-66 -74 -150 -112.5t-170 -38.5q-187 0 -301 81l-24 19l-13 12q-3 2 -8.5 6.5t-8.5 7t-7 7t-8 10.5q-35 30 -66 94l2 -2q-18 31 -55 53t-79 30.5t-68.5 11.5t-43.5 3q-31 5 -41 7q-20 4 -28 4 q-50 4 -68 8l-29 6l-40 8l-84 33h-2l-99 47q-14 8 -43 33l-16 16l-55 45q-28 24 -54 58l-14 14q-18 7 -27 22q-11 14 -22 41q-16 16 -27 62v-2l-4 20l-29 72l-16 78q-8 62 -8 96q-1 16 4 68q4 20 4 26q-3 21 13.5 89t34.5 128.5t18 61.5q7 16 45 78l10 16l-2 -4 q87 111 239 192.5t301 81.5q60 0 117 -14q54 -17 68 -23l-2 3q80 -32 133 -78.5t78 -85.5l18 -43q18 -51 21 -80l-2 4q14 -47 16 -80q0 -5 1 -11.5t1 -11.5q4 -32 4 -57q1 -20 -4 -160q0 -5 -0.5 -13t-1 -14t-0.5 -7q-2 -18 -2 -60v-69q4 -40 0 -76q-3 -18 -19 -47 q-2 -1 -4 -3t-4 -3q-1 -1 -3.5 -4t-4.5 -5q-14 -9 -16 -10q-15 -5 -36.5 -5.5t-48 4.5t-46.5 27t-23 58v16q0 2 1 11t1 14v55l1 12q1 12 1 21q1 18 3.5 23.5t2.5 23.5q0 8 1 25t1 28q-2 37 -2 121q0 15 -2 23q0 3 -1 10t-1 10q0 16 -8 72v-2q-15 88 -85.5 141.5t-168.5 52.5 q-90 -1 -178 -47t-119 -77l-45 -46q-45 -50 -70 -141t-30 -153q0 -27 -2 -35v2q-2 -10 -2 -25q0 -4 1 -14.5t1 -15.5q10 -96 14 -107q4 -14 16 -33v2l11 -26l-2 6l8 -19q35 -67 39 -69l49 -47h2q43 -39 82 -60q19 -11 84 -43h-2q22 -11 55 -22q6 -2 45 -8q4 0 14 -2.5 t13 -2.5q10 -2 53 -2h20q53 0 82 7q52 4 80 10l12 4l44 16q2 1 8.5 6t13.5 9.5t12 7.5l41 20l41 31q4 0 6 2l9 4l8 6q8 4 12 8q2 1 10 9l4 4q5 4 27 26q38 25 64 25q25 0 49 -12q5 -2 8 -3.5t6 -4.5t4.5 -5t4.5 -6.5l5 -7.5l6 -6q13 -19 17 -32.5t2 -41.5q-7 -33 -31 -59 q-91 -68 -91 -168.5t52 -153.5l11 -8l12 -6l10 -6q3 0 9 -1t9 -1q51 -13 119 -17q56 -5 124.5 49t82.5 138q0 1 0.5 9t1 34t0.5 73q0 14 1 36.5t1 29.5q2 48 -2 147q-4 78 -4 129q0 79 8 136q0 103 4 145v2q-2 8 -2 39v233q0 13 11 78q14 44 59 64q35 10 55 10q37 0 60 -33 l8 -16q9 -9 22 -39v-21q0 -3 -0.5 -9t-3 -28t-4.5 -49q0 -3 1 -10.5t1 -11.5q0 -3 -1 -12t-1 -13q-2 -8 -2 -24v-326q0 -4 2 -14q2 -11 -2 -82z" />
<glyph unicode="&#xdd;" horiz-adv-x="2224" d="M1556 1507l39 60q15 28 29 39q10 10 16 22v-2q17 28 48.5 46t62.5 18h27q7 0 18.5 -1t13.5 -1q4 -2 21 -2q45 0 61.5 -44.5t-12.5 -78.5q-4 -4 -16 -15t-15 -14l-47 -47h-2l-31 -31l-22 -18q-5 -6 -8 -10.5l-4 -6t-2 -2.5l-17 -12q0 -24 -104 -51l-30 -5q1 0 3 1 q-43 5 -62 40t5 70q4 4 6 7.5t2.5 5t0.5 3.5t1 3zM2103 1331l2 -6q10 -35 7 -52t-17 -50l-18 -43l-15 -33l-20 -47l-19 -39l-10 -17q-24 -43 -39 -77l-30 -64l2 2q-2 -6 -10 -18t-9 -15l-8 -18q-3 -14 -18 -41q-60 -107 -72 -127q-39 -71 -61 -180.5t-25 -169.5 q0 -2 -1 -6.5t-1 -5.5v-27l-4 -186v-13q2 -8 2 -39v-10q0 -3 0.5 -19.5t0.5 -41t-1 -56.5q-12 -88 -90 -100q-69 -13 -103 49q0 1 -1 8.5t-1 8.5l4 -17q-1 2 -3.5 8t-3.5 9t-3 8.5t-2.5 10t-1 10.5t0 12.5t1.5 13.5v37l-2 209v55q0 1 -1 22t-1 48l-2 94v-2q-4 126 -60 248 l-16 38l-8 21v-2q-5 11 -15 30.5t-12 22.5l-121 246l-2 4l-6 12l-14 21l-11 24q0 2 -2 5l-3 6l-39 57q-20 37 -43 63l-35 45l-4 7l-17 14l-12 14l-84 58l-27 14q-49 23 -75 29q-24 7 -56 10q-40 4 -59 4q-29 0 -64 -6l-63 -12h2q-63 -19 -123 -54l4 2l-43 -28 q-54 -46 -65 -60l4 4l-15 -16q-20 -20 -34 -47l2 2l-8 -14l-19 -29l-2 -2q-32 -70 -37 -94q-12 -61 -14 -92q-6 -49 -6 -97q0 -124 75 -250v2l25 -38l10 -13q24 -32 29 -37l12 -10q1 -1 8.5 -9.5t12.5 -12.5q39 -31 104 -72l-6 4l33 -16h-2l45 -17q24 -10 31 -12l-3 2l58 -8 l61 -6q80 7 109 16q4 1 59 25h2q52 25 88 61l19 14q30 30 67 33q43 0 74 -31q28 -23 35 -67q0 -49 -31 -76q-5 -6 -45 -41l-33 -24l-57 -37q-12 -9 -35 -17q-10 -8 -14 -8q-61 -27 -119 -39q-62 -12 -127 -12q-45 0 -68 2q-85 12 -174 45q-77 30 -155 90q-83 65 -129 123 q-50 61 -94 154q-68 152 -68 303q0 97 14 174q19 97 60 172q51 93 102 149q59 70 139 119q11 7 24.5 14.5t30.5 16t27 14.5q44 19 94 33h-2q109 33 201 33q90 0 182 -29h-2q80 -23 170 -76q72 -49 138 -121q3 -4 15.5 -22.5t18.5 -24.5v2l35 -49q5 -9 14 -24.5t13 -22.5 q48 -69 90 -153q0 -11 35 -68q29 -46 61.5 -67.5t60 -20.5t54 15.5t45 34t31.5 40.5l22 43l80 164l23 51q13 31 39.5 61.5t54.5 34.5q29 3 63 -12.5t45 -34.5z" />
<glyph unicode="&#xdf;" horiz-adv-x="1009" d="M178 913l6 7q33 34 48.5 49t44 37t59.5 35.5t72 23.5q32 4 73 4q21 0 49 -4q8 -2 31 -2q16 -4 25 -4q42 -6 49 -8q47 -15 61 -21q41 -23 66 -45l8 -4q3 -3 11.5 -10.5t16.5 -15t13 -15.5l27 -76v2q7 -18 10 -35v-53q0 -30 -12 -73q-4 -13 -12.5 -25.5t-20.5 -27 t-17 -21.5q-14 -11 -14 -21q0 -15 27 -45l20 -28q2 -5 10 -21q23 -57 23 -90v-29v-28q0 -15 -4 -39v-74q0 -58 -51.5 -118t-116 -98.5t-119.5 -51.5q-52 -6 -76 19.5t-24 68.5v18q0 28 20.5 49.5t50.5 32.5q75 29 95 65t20 115v29q2 6 2 18q0 36 -18 51.5t-58 30.5 q-4 2 -8 2.5t-7 0t-17 7t-37 23.5l-10.5 7l-10.5 7t-8 7t-7 9.5t-3.5 11t-1.5 15.5v13q0 21 0.5 32.5t5 29.5t12.5 27.5t24 17.5t40 10q90 27 94 40q4 8 4 33q0 73 -27 84q-34 17 -98 17q-42 0 -82 -9t-59 -22q-34 -26 -49 -78t-15 -84v-24q0 -3 1 -11.5t1 -17.5 q0 -5 -1 -17t-1 -14v-20v-25v-27q0 -9 1 -30.5t1 -34.5q2 -27 2 -90q0 -13 2 -19q0 -2 1.5 -12.5t1.5 -17.5q0 -16 -7 -37q-2 -4 -2 -15q0 -7 1 -15.5t1 -10.5v-25q0 -7 -1 -15.5t-1 -10.5v-25q0 -8 1 -23.5t1 -23.5v-41q0 -36 -7.5 -57.5t-24 -30t-28.5 -10.5t-34 -2h-10 q-38 -1 -69 27t-31 57v149q0 27 4 37l1 4q1 5 1 10v25q0 1 1 8.5t1 15.5q0 2 -1 6.5t-1 6.5q-6 12 -6 37v198q0 7 1 25t1 26q2 16 2 48q0 148 63 249z" />
<glyph unicode="&#xe0;" horiz-adv-x="991" d="M631 1212l2 -2q25 -37 3 -72.5t-67 -35.5q-3 0 -6 -1t-6 -1q-27 0 -57 16.5t-51 38.5l-15 12l-2 2q-1 2 -4.5 6.5t-9.5 10.5l-21 18q-13 17 -33 33t-24 20l-51 52q-27 32 -11.5 75t60.5 43q11 0 20 3q2 0 13 1t18 1h27q29 0 60 -18t46 -44q3 -4 19 -20q1 -1 28 -37 l37 -64l17 -22zM909 47l2 2q-8 -18 -35 -32t-61 -15q-27 0 -54 11.5t-38 31.5q-15 40 -23 57q0 13 -4 21l-12 35q-16 31 -38.5 54.5t-42.5 36.5t-46.5 22.5t-41.5 12.5t-36.5 6t-23.5 3q-41 7 -73.5 0t-54.5 -28.5t-36.5 -45t-28.5 -57.5q-27 -104 -45 -125q-20 -35 -76 -35 q-32 0 -84 23l-12 22q-5 11 -7 24.5t-0.5 25.5t5 25t7 21t6.5 15l3 8q2 0 2 10q4 6 13.5 37t11.5 45l84 270q9 17 18 48t19 51l22 63q6 22 25.5 77.5t26.5 78.5v-2l8 28v2q9 11 12 23l-2 -4l10 33l6 14q9 20 15 32.5t19 34.5t26.5 35t33.5 23t42 10h14q4 0 15.5 1t20.5 0.5 t19 -5.5q24 -12 33 -22.5t18 -30.5q0 -3 7 -10l49 -93l-2 3q16 -22 20 -35l4 -9l13 -24q1 -1 1.5 -3.5t2.5 -7.5t6 -12l80 -217q8 -15 30 -78q10 -25 47 -144t41 -134q13 -52 25 -70q14 -26 16 -32q21 -51 -2 -105zM567 535q-24 57 -49 139q-19 43 -42 46.5t-40 -34.5 q-5 -17 -16 -46.5t-18 -52.5t-7 -40q0 -24 13 -43t32 -27l66 -24l24 -7q24 -6 35 5.5t10 27t-4.5 35.5t-3.5 21z" />
<glyph unicode="&#xe1;" horiz-adv-x="991" d="M338 1255l39 60q4 5 9.5 13.5t10 13.5t9.5 10q11 11 16 20v-2q15 27 46.5 45.5t61.5 18.5h27q7 0 18 -1t13 -1q6 -2 20 -2q45 0 60.5 -43.5t-13.5 -75.5q-4 -5 -28 -29l-47 -47h-2q-11 -14 -31 -29l-21 -18q-5 -6 -8 -10.5l-4 -6t-2 -2.5l-16 -12q-2 -24 -96 -48 q-38 -10 -35 -6l2 1q-41 5 -59.5 39t5.5 69q4 4 6 7.5t2 6t1 3.5zM909 47l2 2q-8 -18 -35 -32t-61 -15q-27 0 -54 11.5t-38 31.5q-15 40 -23 57q0 13 -4 21l-12 35q-16 31 -38.5 54.5t-42.5 36.5t-46.5 22.5t-41.5 12.5t-36.5 6t-23.5 3q-41 7 -73.5 0t-54.5 -28.5 t-36.5 -45t-28.5 -57.5q-27 -104 -45 -125q-20 -35 -76 -35q-32 0 -84 23l-12 22q-5 11 -7 24.5t-0.5 25.5t5 25t7 21t6.5 15l3 8q2 0 2 10q4 6 13.5 37t11.5 45l84 270q9 17 18 48t19 51l22 63q6 22 25.5 77.5t26.5 78.5v-2l8 28v2q9 11 12 23l-2 -4l10 33l6 14 q9 20 15 32.5t19 34.5t26.5 35t33.5 23t42 10h14q4 0 15.5 1t20.5 0.5t19 -5.5q24 -12 33 -22.5t18 -30.5q0 -3 7 -10l49 -93l-2 3q16 -22 20 -35l4 -9l13 -24q1 -1 1.5 -3.5t2.5 -7.5t6 -12l80 -217q8 -15 30 -78q10 -25 47 -144t41 -134q13 -52 25 -70q14 -26 16 -32 q21 -51 -2 -105zM567 535q-24 57 -49 139q-19 43 -42 46.5t-40 -34.5q-5 -17 -16 -46.5t-18 -52.5t-7 -40q0 -24 13 -43t32 -27l66 -24l24 -7q24 -6 35 5.5t10 27t-4.5 35.5t-3.5 21z" />
<glyph unicode="&#xe2;" horiz-adv-x="991" d="M317 1366q37 49 103 59l-2 -2q46 10 61 7q3 0 10 -1.5t13 -1.5q29 0 62 -23t48 -48l17 -27l24 -33q4 -5 11 -10l6 -6q3 -3 8.5 -9t10.5 -12.5t9 -13.5l17 -26q0 -2 10 -17q26 -32 9 -79.5t-60 -47.5h-31q-31 0 -59.5 18t-44.5 44l2 -2l-19 22l-16 25q-25 27 -43.5 28 t-40.5 -26l-14 -23l-17 -24q-50 -71 -112 -62q-6 0 -7 2q-8 0 -26 6q-33 7 -44.5 50t9.5 77l12 13l31 45q1 2 5.5 12t10.5 18l25 35zM909 47l2 2q-8 -18 -35 -32t-61 -15q-27 0 -54 11.5t-38 31.5q-15 40 -23 57q0 13 -4 21l-12 35q-16 31 -38.5 54.5t-42.5 36.5t-46.5 22.5 t-41.5 12.5t-36.5 6t-23.5 3q-41 7 -73.5 0t-54.5 -28.5t-36.5 -45t-28.5 -57.5q-27 -104 -45 -125q-20 -35 -76 -35q-32 0 -84 23l-12 22q-5 11 -7 24.5t-0.5 25.5t5 25t7 21t6.5 15l3 8q2 0 2 10q4 6 13.5 37t11.5 45l84 270q9 17 18 48t19 51l22 63q6 22 25.5 77.5 t26.5 78.5v-2l8 28v2q9 11 12 23l-2 -4l10 33l6 14q9 20 15 32.5t19 34.5t26.5 35t33.5 23t42 10h14q4 0 15.5 1t20.5 0.5t19 -5.5q24 -12 33 -22.5t18 -30.5q0 -3 7 -10l49 -93l-2 3q16 -22 20 -35l4 -9l13 -24q1 -1 1.5 -3.5t2.5 -7.5t6 -12l80 -217q8 -15 30 -78 q10 -25 47 -144t41 -134q13 -52 25 -70q14 -26 16 -32q21 -51 -2 -105zM567 535q-24 57 -49 139q-19 43 -42 46.5t-40 -34.5q-5 -17 -16 -46.5t-18 -52.5t-7 -40q0 -24 13 -43t32 -27l66 -24l24 -7q24 -6 35 5.5t10 27t-4.5 35.5t-3.5 21z" />
<glyph unicode="&#xe3;" horiz-adv-x="991" d="M735 1395q37 0 64.5 -33t15.5 -70q-9 -27 -22 -51l4 10l-13 -24q-43 -54 -45 -56q-27 -31 -65 -53q-46 -16 -74 -16q-24 0 -82 14l-69 23l-64 26h2q-4 1 -19.5 3.5t-23.5 2.5q-27 0 -31 -8q-17 -27 -52 -48t-62 -21q-40 0 -59 29.5t-7 68.5q4 16 7.5 24t9 13t6.5 6 q11 11 14 16v2q14 32 41 62q22 25 61 45l-2 -2q42 20 78 20q1 0 41 -8l27 -8l51 -14h-4l26 -7q8 -5 29 -10l39 -10h-4q9 -1 20.5 -4t20 -4.5t14.5 -1.5q21 0 41 26l13 13q18 24 32 34.5t41 10.5zM909 47l2 2q-8 -18 -35 -32t-61 -15q-27 0 -54 11.5t-38 31.5q-15 40 -23 57 q0 13 -4 21l-12 35q-16 31 -38.5 54.5t-42.5 36.5t-46.5 22.5t-41.5 12.5t-36.5 6t-23.5 3q-41 7 -73.5 0t-54.5 -28.5t-36.5 -45t-28.5 -57.5q-27 -104 -45 -125q-20 -35 -76 -35q-32 0 -84 23l-12 22q-5 11 -7 24.5t-0.5 25.5t5 25t7 21t6.5 15l3 8q2 0 2 10q4 6 13.5 37 t11.5 45l84 270q9 17 18 48t19 51l22 63q6 22 25.5 77.5t26.5 78.5v-2l8 28v2q9 11 12 23l-2 -4l10 33l6 14q9 20 15 32.5t19 34.5t26.5 35t33.5 23t42 10h14q4 0 15.5 1t20.5 0.5t19 -5.5q24 -12 33 -22.5t18 -30.5q0 -3 7 -10l49 -93l-2 3q16 -22 20 -35l4 -9l13 -24 q1 -1 1.5 -3.5t2.5 -7.5t6 -12l80 -217q8 -15 30 -78q10 -25 47 -144t41 -134q13 -52 25 -70q14 -26 16 -32q21 -51 -2 -105zM567 535q-24 57 -49 139q-19 43 -42 46.5t-40 -34.5q-5 -17 -16 -46.5t-18 -52.5t-7 -40q0 -24 13 -43t32 -27l66 -24l24 -7q24 -6 35 5.5t10 27 t-4.5 35.5t-3.5 21z" />
<glyph unicode="&#xe4;" horiz-adv-x="991" d="M195 1333q0 31 34.5 66t67.5 35h7t5 -0.5t3.5 -0.5t2 -0.5t1.5 -0.5h1h21q35 0 66.5 -35.5t31.5 -69.5q0 -20 2 -22q4 -20 4 -43q0 -34 -34.5 -67.5t-69.5 -33.5h-21l-2 1q-2 0 -6.5 0.5t-11.5 0.5q-33 0 -67.5 34.5t-36.5 68.5v34l1 10q1 11 1 23zM496 1331 q0 33 30.5 67t65.5 34h49q32 0 69.5 -35t37.5 -66v-39v-35q0 -34 -33 -66t-68 -32h-37q-40 0 -77 35t-39 70v34l1 10q1 11 1 23zM909 47l2 2q-8 -18 -35 -32t-61 -15q-27 0 -54 11.5t-38 31.5q-15 40 -23 57q0 13 -4 21l-12 35q-16 31 -38.5 54.5t-42.5 36.5t-46.5 22.5 t-41.5 12.5t-36.5 6t-23.5 3q-41 7 -73.5 0t-54.5 -28.5t-36.5 -45t-28.5 -57.5q-27 -104 -45 -125q-20 -35 -76 -35q-32 0 -84 23l-12 22q-5 11 -7 24.5t-0.5 25.5t5 25t7 21t6.5 15l3 8q2 0 2 10q4 6 13.5 37t11.5 45l84 270q9 17 18 48t19 51l22 63q6 22 25.5 77.5 t26.5 78.5v-2l8 28v2q9 11 12 23l-2 -4l10 33l6 14q9 20 15 32.5t19 34.5t26.5 35t33.5 23t42 10h14q4 0 15.5 1t20.5 0.5t19 -5.5q24 -12 33 -22.5t18 -30.5q0 -3 7 -10l49 -93l-2 3q16 -22 20 -35l4 -9l13 -24q1 -1 1.5 -3.5t2.5 -7.5t6 -12l80 -217q8 -15 30 -78 q10 -25 47 -144t41 -134q13 -52 25 -70q14 -26 16 -32q21 -51 -2 -105zM567 535q-24 57 -49 139q-19 43 -42 46.5t-40 -34.5q-5 -17 -16 -46.5t-18 -52.5t-7 -40q0 -24 13 -43t32 -27l66 -24l24 -7q24 -6 35 5.5t10 27t-4.5 35.5t-3.5 21z" />
<glyph unicode="&#xe5;" horiz-adv-x="991" d="M467 1552q17 0 78 -16q36 -14 67 -49q27 -27 45 -70q19 -51 19 -78q0 -47 -14 -82q-15 -34 -48 -67q-34 -30 -71 -47q-25 -8 -66 -8h-10q-50 0 -80 12q-33 13 -65 45q-27 21 -48 70q-20 38 -20 77q24 75 35.5 102.5t27.5 45.5l72 43q55 22 78 22zM467 1296q8 0 20 4 q16 10 19 17q8 16 8 22q0 5 -8 21q-3 4 -21 18q-4 4 -18 4q-19 0 -21 -2q-3 -2 -12 -7.5t-12 -8.5q-2 -6 -2 -25q0 -13 8 -24q3 -6 14 -17q2 -2 19 -2h6zM909 47l2 2q-8 -18 -35 -32t-61 -15q-27 0 -54 11.5t-38 31.5q-15 40 -23 57q0 13 -4 21l-12 35q-16 31 -38.5 54.5 t-42.5 36.5t-46.5 22.5t-41.5 12.5t-36.5 6t-23.5 3q-41 7 -73.5 0t-54.5 -28.5t-36.5 -45t-28.5 -57.5q-27 -104 -45 -125q-20 -35 -76 -35q-32 0 -84 23l-12 22q-5 11 -7 24.5t-0.5 25.5t5 25t7 21t6.5 15l3 8q2 0 2 10q4 6 13.5 37t11.5 45l84 270q9 17 18 48t19 51 l22 63q6 22 25.5 77.5t26.5 78.5v-2l8 28v2q9 11 12 23l-2 -4l10 33l6 14q9 20 15 32.5t19 34.5t26.5 35t33.5 23t42 10h14q4 0 15.5 1t20.5 0.5t19 -5.5q24 -12 33 -22.5t18 -30.5q0 -3 7 -10l49 -93l-2 3q16 -22 20 -35l4 -9l13 -24q1 -1 1.5 -3.5t2.5 -7.5t6 -12l80 -217 q8 -15 30 -78q10 -25 47 -144t41 -134q13 -52 25 -70q14 -26 16 -32q21 -51 -2 -105zM567 535q-24 57 -49 139q-19 43 -42 46.5t-40 -34.5q-5 -17 -16 -46.5t-18 -52.5t-7 -40q0 -24 13 -43t32 -27l66 -24l24 -7q24 -6 35 5.5t10 27t-4.5 35.5t-3.5 21z" />
<glyph unicode="&#xe6;" horiz-adv-x="1486" d="M911 844h-2q-19 0 -33 -1.5t-32.5 -8t-30 -18t-20 -34t-7.5 -53.5q2 -33 21.5 -62.5t54.5 -33.5q16 -2 66 -2h84q42 0 64 -26.5t22 -67.5t-22.5 -72t-59.5 -31q-3 0 -15 -2q-108 -8 -116 -8q-44 0 -69.5 -21t-22.5 -49v-41q1 -34 37.5 -59t76.5 -25l47 4h80q33 0 51 -2 q8 0 26 -2t30 -2q46 4 80 4q33 0 45 -2q80 -27 80 -98q-1 -50 -36.5 -76t-64.5 -26h-28q-8 0 -30.5 1t-35.5 1q-80 0 -109 2h-106q-36 0 -76 -8q-18 -2 -88 2h-8q-27 1 -46.5 5t-47 15.5t-46.5 39t-28 69.5q-4 17 -24.5 44t-51.5 44q-42 20 -84 30q-14 7 -35 7 q-26 0 -53 -19t-43 -45q-7 -21 -26 -59q-5 -18 -25.5 -62t-30.5 -57q-33 -36 -86 -27h2q-40 5 -69 25q-21 16 -22.5 45t7 52t21.5 44q31 51 39 84q7 18 52.5 124t61.5 140q4 16 13 25l6 6v2l35 72q3 8 10 18l16 35l72 158l6 12l6 6q0 6 6 12v5q15 20 19 32q13 23 21.5 35.5 t27 35t42 37t50.5 21.5q59 15 107 15t112 -6h135q45 0 91 -3q37 -2 141 -2h78l28 -2q11 0 23 -2t18 -4l6 -2q31 -15 49 -58.5t-1 -84.5q-16 -26 -44.5 -38.5t-46.5 -8.5h-53q-106 4 -151 4h-68q-17 0 -72 -2zM457 530q-11 -56 37 -81q44 -23 71.5 -18t26.5 42v6q0 3 1 11 t1 12v22q0 19 -2 35q0 43 -2 51l-2 43q-28 87 -74 2q-9 -13 -27 -55q-9 -32 -26 -57q-4 -8 -4 -13z" />
</font>
</defs>
</svg>
